<svg xmlns="http://www.w3.org/2000/svg" xmlns:xlink="http://www.w3.org/1999/xlink" version="1.1" id="Layer_1" x="0px" y="0px" width="100px" height="112px" viewBox="0 0 100 112" enable-background="new 0 0 100 112" xml:space="preserve">
  <g>
    <path fill="#FFFFFF" d="M9.482 13.328v-0.88c-0.234 0-0.426-0.019-0.574-0.056 -0.149-0.037-0.282-0.109-0.399-0.216 0.245-0.370747BB0A70"/>
    <path fill="#FFFFFF" d="M15.533 3.32c-0.245-0.271-0.554-0.485-0.926-0.64 -0.373-0.155-0.81-0.232-1.31-0.232s-0.937 0.077-1.30B912FCAE9"/>
    <path fill="#FFFFFF" d="M23.483 11.874V9.945c0-0.425-0.11-0.818-0.331-1.18s-0.589-0.584-1.105-0.669c0.517-0.106 0.877-0.314 071270EA2C"/>
    <path fill="#FFFFFF" d="M30.108 3.32c-0.244-0.271-0.553-0.485-0.926-0.64 -0.372-0.155-0.809-0.232-1.309-0.232 -0.501 0-0.938088DBE7AF0"/>
    <path fill="#FFFFFF" d="M32.841 12.783c0.256 0.242 0.565 0.435 0.929 0.574 0.362 0.141 0.763 0.211 1.2 0.211 0.416 0 0.803-00DDB260A0D"/>
    <path fill="#FFFFFF" d="M42.209 12.824c0.213 0.229 0.481 0.411 0.807 0.544 0.324 0.134 0.705 0.2 1.142 0.2 0.861 0 1.521-0.207AF3E7A8F"/>
    <path fill="#FFFFFF" d="M51.421 12.68c0.244 0.271 0.553 0.487 0.926 0.647 0.372 0.16 0.809 0.24 1.31 0.24 0.5 0 0.934-0.075 01AE16CA48"/>
    <rect x="57.918" y="2.672" fill="#FFFFFF" width="1.517" height="10.655"/>
    <polygon fill="#FFFFFF" points="62.676 13.328 64.192 13.328 64.192 4.064 66.363 4.064 66.363 2.672 60.488 2.672 60.488 4.064 62.676 4.064 "/>
    <polygon fill="#FFFFFF" points="69.333 13.328 70.85 13.328 70.85 9.04 73.403 2.672 71.887 2.672 70.14 7.583 68.391 2.672 66.763 2.672 69.333 9.04 "/>
    <path fill="#FFFFFF" d="M78.134 13.357c0.363 0.141 0.764 0.211 1.201 0.211 0.416 0 0.803-0.069 1.16-0.207 0.357-0.139 0.667-040686FAAC"/>
    <path fill="#FFFFFF" d="M85.345 13.384c0.362 0.122 0.756 0.184 1.182 0.184 0.437 0 0.836-0.062 1.197-0.184 0.362-0.123 0.6760D5BB18A48"/>
    <polygon fill="#FFFFFF" points="95.515 2.672 93.807 10.912 92.098 2.672 90.518 2.672 93.024 13.328 94.477 13.328 97.047 2.672 "/>
    <path fill="#FFFFFF" d="M14.695 28.176c0.245-0.374 0.367-0.811 0.367-1.312V21.36c0-0.395-0.062-0.768-0.184-1.12 -0.122-0.35204C81DAA8B"/>
    <path fill="#FFFFFF" d="M21.72 19.32c-0.245-0.271-0.554-0.485-0.926-0.64 -0.373-0.155-0.81-0.232-1.31-0.232s-0.937 0.077-1.30E1006BAAD"/>
    <path fill="#FFFFFF" d="M29.67 27.874v-1.929c0-0.425-0.11-0.818-0.331-1.18s-0.589-0.584-1.105-0.669c0.517-0.106 0.877-0.314 07F2284AB6"/>
    <path fill="#FFFFFF" d="M31.825 28.696c0.244 0.272 0.553 0.485 0.926 0.64 0.372 0.155 0.809 0.232 1.31 0.232 0.5 0 0.937-0.00136A18AEF"/>
    <path fill="#FFFFFF" d="M39.027 28.783c0.256 0.242 0.565 0.435 0.929 0.574 0.362 0.141 0.763 0.211 1.2 0.211 0.416 0 0.803-0095DC13A8D"/>
    <path fill="#FFFFFF" d="M48.396 28.824c0.213 0.229 0.481 0.411 0.807 0.544 0.324 0.134 0.705 0.2 1.142 0.2 0.861 0 1.521-0.20376C1CA8E"/>
    <path fill="#FFFFFF" d="M57.434 28.783c0.256 0.242 0.565 0.435 0.929 0.574 0.363 0.141 0.764 0.211 1.201 0.211 0.416 0 0.80305C1025AF3"/>
    <polygon fill="#FFFFFF" points="68.799 20.048 68.799 18.672 63.834 18.672 63.834 29.328 68.799 29.328 68.799 27.952 65.351 27.952 65.351 24.4 67.841 24.4 67.841 23.087 65.351 23.087 65.351 20.048 "/>
    <path fill="#FFFFFF" d="M70.107 18.672v10.655h3.001c0.501 0 0.929-0.071 1.285-0.216 0.356-0.144 0.649-0.344 0.879-0.6 0.229-01998F2A86"/>
    <path fill="#FFFFFF" d="M79.127 18.672l-2.41 10.655h1.469l0.559-2.607h2.299l0.559 2.607h1.533l-2.411-10.655H79.127zM79.016 25.408l0.878-4.368 0.878 4.368H79.016z"/>
    <polygon fill="#FFFFFF" points="85.545 22.272 86.438 24.144 89.073 29.328 90.143 29.328 90.143 18.672 88.706 18.672 88.706 25.824 87.859 23.952 85.337 18.672 84.108 18.672 84.108 29.328 85.545 29.328 "/>
    <path fill="#FFFFFF" d="M14.606 44.176c0.245-0.374 0.367-0.811 0.367-1.312V37.36c0-0.395-0.061-0.768-0.184-1.12 -0.122-0.35209DC283A5D"/>
    <path fill="#FFFFFF" d="M21.631 35.32c-0.244-0.271-0.553-0.485-0.926-0.64 -0.372-0.155-0.809-0.232-1.309-0.232 -0.501 0-0.9301DBDE3AF1"/>
    <path fill="#FFFFFF" d="M29.581 43.874v-1.929c0-0.425-0.11-0.818-0.33-1.18 -0.221-0.361-0.589-0.584-1.105-0.669 0.517-0.106 06B4037A0A"/>
    <path fill="#FFFFFF" d="M33.972 45.568c0.5 0 0.937-0.077 1.31-0.232 0.372-0.154 0.681-0.367 0.926-0.64 0.244-0.271 0.428-0.50530996A9D"/>
    <path fill="#FFFFFF" d="M38.938 44.783c0.256 0.242 0.565 0.435 0.929 0.574 0.363 0.141 0.764 0.211 1.201 0.211 0.416 0 0.80301311B4A25"/>
    <path fill="#FFFFFF" d="M48.308 44.824c0.213 0.229 0.481 0.411 0.806 0.544 0.325 0.134 0.705 0.2 1.142 0.2 0.862 0 1.522-0.20661B28A12"/>
    <polygon fill="#FFFFFF" points="62.963 45.328 62.963 34.672 61.446 34.672 61.446 39.295 58.445 39.295 58.445 34.672 56.929 34.672 56.929 45.328 58.445 45.328 58.445 40.656 61.446 40.656 61.446 45.328 "/>
    <path fill="#FFFFFF" d="M66.348 34.672l-2.411 10.655h1.469l0.559-2.607h2.299l0.56 2.607h1.532l-2.41-10.655H66.348zM66.235 41.408l0.878-4.368 0.879 4.368H66.235z"/>
    <polygon fill="#FFFFFF" points="70.259 36.064 72.445 36.064 72.445 45.328 73.962 45.328 73.962 36.064 76.134 36.064 76.134 34.672 70.259 34.672 "/>
    <path fill="#FFFFFF" d="M82.121 35.264c-0.234-0.256-0.535-0.456-0.902-0.601 -0.367-0.144-0.801-0.216-1.301-0.216 -0.501 0-0.02C5F14A5B"/>
    <polygon fill="#FFFFFF" points="88.698 39.295 85.696 39.295 85.696 34.672 84.18 34.672 84.18 45.328 85.696 45.328 85.696 40.656 88.698 40.656 88.698 45.328 90.215 45.328 90.215 34.672 88.698 34.672 "/>
    <path fill="#FFFFFF" d="M45.506 53.919v-0.864c0-0.768-0.194-1.356-0.582-1.768 -0.389-0.41-1.015-0.616-1.876-0.616h-3.081v10.0BAE72AA57"/>
    <path fill="#FFFFFF" d="M47.885 60.839c0.266 0.24 0.58 0.422 0.941 0.544 0.362 0.123 0.756 0.185 1.182 0.185 0.437 0 0.836-00F52EF9A81"/>
    <polygon fill="#FFFFFF" points="56.33 61.328 57.847 61.328 57.847 57.04 60.401 50.671 58.885 50.671 57.137 55.583 55.389 50.671 53.76 50.671 56.33 57.04 "/>
    <path fill="#FFFFFF" d="M38.681 76.696c0.245 0.271 0.554 0.485 0.927 0.64 0.372 0.154 0.809 0.232 1.309 0.232s0.937-0.078 1.0F828D9A77"/>
    <polygon fill="#FFFFFF" points="48.116 77.328 49.553 69.984 50.895 77.328 52.363 77.328 54.327 66.671 52.842 66.671 51.677 74.543 50.304 66.671 48.931 66.671 47.43 74.543 46.312 66.671 44.779 66.671 46.647 77.328 "/>
    <polygon fill="#FFFFFF" points="56.737 70.272 57.631 72.144 60.266 77.328 61.335 77.328 61.335 66.671 59.898 66.671 59.898 73.824 59.052 71.952 56.529 66.671 55.301 66.671 55.301 77.328 56.737 77.328 "/>
    <path fill="#FFFFFF" d="M37.188 93.328h1.533l-2.411-10.656h-1.597l-2.41 10.656h1.469l0.559-2.608h2.299L37.188 93.328zM34.603 89.408l0.878-4.368 0.878 4.368H34.603z"/>
    <path fill="#FFFFFF" d="M45.362 90.944v-1.136c0-0.523-0.114-0.955-0.343-1.297 -0.229-0.341-0.604-0.564-1.126-0.672 0.904-0.104BE6E6A18"/>
    <path fill="#FFFFFF" d="M51.892 92.696c0.245-0.272 0.429-0.595 0.551-0.968 0.123-0.374 0.184-0.779 0.184-1.217v-5.023c0-0.430D8BA9EAED"/>
    <path fill="#FFFFFF" d="M59.268 92.839c0.266-0.239 0.471-0.533 0.614-0.88s0.216-0.738 0.216-1.176v-8.112h-1.517v8.126c0 0.970568D04A9F"/>
    <polygon fill="#FFFFFF" points="61.136 84.064 63.322 84.064 63.322 93.328 64.839 93.328 64.839 84.064 67.011 84.064 67.011 82.671 61.136 82.671 "/>
    <path fill="#FFFFFF" d="M41.715 99.263c-0.234-0.256-0.535-0.455-0.902-0.6 -0.367-0.144-0.801-0.216-1.301-0.216s-0.937 0.08-10483494A76"/>
    <path fill="#FFFFFF" d="M45.435 98.671l-2.411 10.656h1.469l0.559-2.608h2.299l0.56 2.608h1.532l-2.41-10.656H45.435zM45.322 105.408l0.878-4.368 0.879 4.368H45.322z"/>
    <path fill="#FFFFFF" d="M56.066 107.874v-1.929c0-0.425-0.11-0.818-0.33-1.18 -0.221-0.361-0.589-0.585-1.105-0.67 0.517-0.106 020B711A6E"/>
    <path fill="#FFFFFF" d="M62.564 104.895c-0.181-0.261-0.415-0.511-0.702-0.75 -0.288-0.24-0.623-0.487-1.006-0.743 -0.384-0.24504CCE57A0A"/>
  </g>
</svg>
