<svg xmlns="http://www.w3.org/2000/svg" xmlns:xlink="http://www.w3.org/1999/xlink" version="1.1" id="Layer_1" x="0" y="0" width="74" height="270" viewBox="0 0 74 270" enable-background="new 0 0 74 270" xml:space="preserve">
  <path fill="#FFFFFF" d="M14.1 27.49v-9.99h4.76v1.61h-2.9v2.48h2.01v1.47h-2v2.78h2.9v1.67H14.1z"/>
  <path fill="#FFFFFF" d="M23.56 27.49l-1.17-3.45 -1.27 3.45H19.31l2.05-5.04 -1.93-4.95h1.95l1.09 3.45 1.2-3.45h1.83l-1.99 4.8 2.01 5.19H23.56z"/>
  <path fill="#FFFFFF" d="M29.47 19.13v8.36h-1.86v-8.35h-1.84v-1.63h5.52v1.64H29.47z"/>
  <path fill="#FFFFFF" d="M32.11 27.49v-9.99h4.76v1.61h-2.9v2.48h2.01v1.47h-2v2.78h2.9v1.67H32.11z"/>
  <path fill="#FFFFFF" d="M42.48 27.55c-0.37 0-0.63-0.13-0.79-0.4 -0.15-0.27-0.23-0.62-0.23-1.06v-1.87c0-0.23-0.06-0.43-0.19-001AB2F5AC6"/>
  <path fill="#FFFFFF" d="M44.44 27.49v-9.99h1.86v9.99H44.44z"/>
  <path fill="#FFFFFF" d="M53.15 24.98c0 0.4-0.06 0.77-0.19 1.1 -0.13 0.34-0.32 0.62-0.56 0.86 -0.24 0.24-0.54 0.43-0.89 0.56 0EB319EAB3"/>
  <path fill="#FFFFFF" d="M58.94 27.55c-0.37 0-0.63-0.13-0.79-0.4 -0.15-0.27-0.23-0.62-0.23-1.06v-1.87c0-0.23-0.06-0.43-0.19-00A0A764A15"/>
  <path fill="#FFFFFF" d="M15.08 72.49v-9.99h1.86v9.99H15.08z"/>
  <path fill="#FFFFFF" d="M22.57 72.49l-1.93-4.26 -0.7-1.59v5.85h-1.71v-9.99h1.6l1.84 4.34 0.66 1.59v-5.92h1.68v9.99H22.57z"/>
  <path fill="#FFFFFF" d="M28.49 64.13v8.36h-1.86v-8.35h-1.84v-1.63h5.52v1.64H28.49z"/>
  <path fill="#FFFFFF" d="M31.13 72.49v-9.99h4.76v1.61h-2.9v2.48h2.01v1.47h-2v2.78h2.9v1.67H31.13z"/>
  <path fill="#FFFFFF" d="M41.5 72.55c-0.37 0-0.63-0.13-0.79-0.4 -0.15-0.27-0.23-0.62-0.23-1.06v-1.87c0-0.23-0.06-0.43-0.19-0.01352B5A4C"/>
  <path fill="#FFFFFF" d="M43.46 72.49v-9.99h1.86v9.99H43.46z"/>
  <path fill="#FFFFFF" d="M52.17 69.98c0 0.4-0.06 0.77-0.19 1.1 -0.13 0.34-0.32 0.62-0.56 0.86s-0.54 0.43-0.89 0.56 -0.74 0.2-019A516A28"/>
  <path fill="#FFFFFF" d="M57.96 72.55c-0.37 0-0.63-0.13-0.79-0.4 -0.15-0.27-0.23-0.62-0.23-1.06v-1.87c0-0.23-0.06-0.43-0.19-000EEBF0ACC"/>
  <path fill="#FFFFFF" d="M7.85 115.1c0 0.37-0.06 0.72-0.17 1.03 -0.11 0.32-0.28 0.6-0.51 0.83 -0.22 0.24-0.51 0.42-0.85 0.55 0C35B7CAB9"/>
  <path fill="#FFFFFF" d="M14.45 114.98c0 0.4-0.06 0.77-0.19 1.1 -0.13 0.34-0.32 0.62-0.56 0.86s-0.54 0.43-0.89 0.56 -0.74 0.2056A7D3AE4"/>
  <path fill="#FFFFFF" d="M19.95 117.49l-1.93-4.26 -0.7-1.59v5.85h-1.71v-9.99h1.6l1.84 4.34 0.66 1.59v-5.92h1.68v9.99H19.95z"/>
  <path fill="#FFFFFF" d="M27 117.49l-1.93-4.26 -0.7-1.59v5.85h-1.71v-9.99h1.6l1.84 4.34 0.66 1.59v-5.92h1.68v9.99H27z"/>
  <path fill="#FFFFFF" d="M29.73 117.49v-9.99h4.76v1.61h-2.9v2.48h2.01v1.47h-2v2.78h2.9v1.67H29.73z"/>
  <path fill="#FFFFFF" d="M40.94 115.1c0 0.37-0.06 0.72-0.17 1.03 -0.11 0.32-0.28 0.6-0.51 0.83 -0.22 0.24-0.51 0.42-0.85 0.550F2AD1DA04"/>
  <path fill="#FFFFFF" d="M45.19 109.13v8.36h-1.86v-8.35h-1.84v-1.63h5.52v1.64H45.19z"/>
  <path fill="#FFFFFF" d="M47.82 117.49v-9.99h1.86v9.99H47.82z"/>
  <path fill="#FFFFFF" d="M54.39 117.49h-1.8l-2.17-9.99h1.92l1.21 6.89 1.24-6.88h1.81L54.39 117.49z"/>
  <path fill="#FFFFFF" d="M57.3 117.49v-9.99h1.86v9.99H57.3z"/>
  <path fill="#FFFFFF" d="M63.66 109.13v8.36H61.8v-8.35h-1.84v-1.63h5.52v1.64H63.66z"/>
  <path fill="#FFFFFF" d="M69.78 113.41v4.08h-1.86v-4.08l-2.2-5.91h1.95l1.29 4.07 1.23-4.07h1.86L69.78 113.41z"/>
  <path fill="#FFFFFF" d="M6.87 156.43c0 0.72-0.2 1.27-0.6 1.66s-0.95 0.58-1.66 0.58H3.4v3.83H1.54v-9.99h3.07c0.71 0 1.26 0.2 046AFC5A2F"/>
  <path fill="#FFFFFF" d="M7.86 162.49v-9.99h4.76v1.61H9.72v2.48h2.01v1.47H9.72v2.78h2.9v1.67H7.86z"/>
  <path fill="#FFFFFF" d="M18.23 162.55c-0.37 0-0.63-0.13-0.79-0.4 -0.15-0.27-0.23-0.62-0.23-1.06v-1.87c0-0.23-0.06-0.43-0.19-04D23D7A42"/>
  <path fill="#FFFFFF" d="M22.05 154.04v2.66h2.07v1.55h-2.06v4.25h-1.86v-9.99h4.66v1.55H22.05z"/>
  <path fill="#FFFFFF" d="M31.24 159.98c0 0.4-0.06 0.77-0.19 1.1 -0.13 0.34-0.32 0.62-0.56 0.86s-0.54 0.43-0.89 0.56 -0.74 0.20FD7A23AF2"/>
  <path fill="#FFFFFF" d="M37.03 162.55c-0.37 0-0.63-0.13-0.79-0.4 -0.15-0.27-0.23-0.62-0.23-1.06v-1.87c0-0.23-0.06-0.43-0.19-0D8B35CA48"/>
  <path fill="#FFFFFF" d="M44.92 162.49v-7.24l-0.4 2.17 -1.06 5.07h-1.41l-1-5.07 -0.39-2.17v7.25H38.99v-9.99h2.5l1.03 5.07 0.31 1.85 0.33-1.84 1.02-5.07h2.49v9.99H44.92z"/>
  <path fill="#FFFFFF" d="M51.55 162.49l-0.33-1.96h-1.77l-0.36 1.97h-1.74l2.01-9.99h2.08l1.99 9.99H51.55zM50.38 155.2l-0.67 3.86h1.27L50.38 155.2z"/>
  <path fill="#FFFFFF" d="M58.46 162.49l-1.93-4.26 -0.7-1.59v5.85h-1.71v-9.99h1.6l1.84 4.34 0.66 1.59v-5.92h1.68v9.99H58.46z"/>
  <path fill="#FFFFFF" d="M66.65 160.1c0 0.37-0.06 0.72-0.17 1.03 -0.11 0.32-0.28 0.6-0.51 0.83 -0.22 0.24-0.51 0.42-0.85 0.550F27A1DA04"/>
  <path fill="#FFFFFF" d="M67.7 162.49v-9.99h4.76v1.61h-2.9v2.48h2.01v1.47h-2v2.78h2.9v1.67H67.7z"/>
  <path fill="#FFFFFF" d="M27.21 204.95c0 0.4-0.07 0.77-0.2 1.11 -0.13 0.34-0.32 0.63-0.56 0.88 -0.24 0.25-0.53 0.44-0.87 0.570542FF0A14"/>
  <path fill="#FFFFFF" d="M33.54 201.43c0 0.72-0.2 1.27-0.6 1.66s-0.95 0.58-1.66 0.58H30.07v3.83h-1.86v-9.99h3.07c0.71 0 1.26 062D223A7E"/>
  <path fill="#FFFFFF" d="M34.53 207.49v-9.99h4.76v1.61h-2.9v2.48h2.01v1.47h-2v2.78h2.9v1.67H34.53z"/>
  <path fill="#FFFFFF" d="M45.74 205.1c0 0.37-0.06 0.72-0.17 1.03 -0.11 0.32-0.28 0.6-0.51 0.83 -0.22 0.24-0.51 0.42-0.85 0.5503DBD33A0A"/>
  <path fill="#FFFFFF" d="M52.03 204.95c0 0.4-0.07 0.77-0.2 1.11 -0.13 0.34-0.32 0.63-0.56 0.88 -0.24 0.25-0.53 0.44-0.87 0.570E00D90A17"/>
  <path fill="#FFFFFF" d="M20.9 252.49l-0.25-0.8c-0.17 0.33-0.41 0.59-0.73 0.77 -0.32 0.18-0.68 0.27-1.09 0.27s-0.77-0.07-1.09045B84FAF1"/>
  <path fill="#FFFFFF" d="M26.63 252.49l-0.33-1.96h-1.77l-0.36 1.97h-1.74l2.01-9.99h2.08l1.99 9.99H26.63zM25.46 245.2l-0.67 3.86h1.27L25.46 245.2z"/>
  <path fill="#FFFFFF" d="M29.22 252.49v-9.99h1.86v8.36h2.78v1.64H29.22z"/>
  <path fill="#FFFFFF" d="M34.68 252.49v-9.99h1.86v8.36h2.78v1.64H34.68z"/>
  <path fill="#FFFFFF" d="M40.14 252.49v-9.99h4.76v1.61h-2.9v2.48h2.01v1.47h-2v2.78h2.9v1.67H40.14z"/>
  <path fill="#FFFFFF" d="M50.52 252.55c-0.37 0-0.63-0.13-0.79-0.4 -0.15-0.27-0.23-0.62-0.23-1.06v-1.87c0-0.23-0.06-0.43-0.19-0F6F89FA47"/>
  <path fill="#FFFFFF" d="M55.8 248.41v4.08h-1.86v-4.08l-2.2-5.91h1.95l1.29 4.07 1.23-4.07h1.86L55.8 248.41z"/>
</svg>
