<svg xmlns="http://www.w3.org/2000/svg" xmlns:xlink="http://www.w3.org/1999/xlink" version="1.1" x="0px" y="0px" width="82px" height="70px" viewBox="2 0 82 70" enable-background="new 2 0 82 70" xml:space="preserve"><style>.style0{fill:	#FFFFFF;}</style><g><path d="M48.37 53.807l0.144 0.148h1.653l0.14-0.148v-0.791c0-0.56-0.322-1.054-0.976-1.379 c0.653-0.354 0.976-0.912 0.976-1.535c0-1.07-0.967-1.927-2.913-1.927H36.421c-0.161 0-0.292 0.129-0.292 0.289v5.343l0.145 0.1 h1.656l0.141-0.148v-1.761h8.839c0.969 0 1.5 0.4 1.5 0.97V53.807z M46.915 51.075h-8.846v-1.787l0.147-0.146h8.691 c0.969 0 1.5 0.4 1.5 0.959C48.37 50.6 47.9 51.1 46.9 51.075z" class="style0"/><path d="M28.203 54.051c5.12 0 5.829-0.638 5.829-2.527v-0.969c0-1.897-0.709-2.526-5.829-2.526h-2.916 c-5.12 0-5.827 0.629-5.827 2.526v0.969c0 1.9 0.7 2.5 5.8 2.527H28.203z M21.4 51.815V50.26 c0-0.945 0.355-1.263 2.917-1.263h4.856c2.562 0 2.9 0.3 2.9 1.263v1.556c0 0.946-0.352 1.264-2.915 1.264h-4.856 C21.755 53.1 21.4 52.8 21.4 51.815z" class="style0"/><path d="M60.99 54.051c5.122 0 5.827-0.638 5.827-2.527v-0.969c0-1.897-0.705-2.526-5.827-2.526h-2.915 c-5.122 0-5.831 0.629-5.831 2.526v0.969c0 1.9 0.7 2.5 5.8 2.527H60.99z M54.191 51.815V50.26 c0-0.945 0.354-1.263 2.914-1.263h4.855c2.562 0 2.9 0.3 2.9 1.263v1.556c0 0.946-0.352 1.264-2.913 1.264h-4.855 C54.546 53.1 54.2 52.8 54.2 51.815z" class="style0"/><path d="M13.785 54.005c0.389 0.3 0.7 0.5 0.7 0.495c0.114 0.1 0.2 0.1 0.3 0.076h2.004 l0.049-0.122l-0.995-0.696c1.501-0.347 1.783-1.041 1.783-2.234v-0.969c0-1.897-0.708-2.526-5.832-2.526H8.895 c-5.12 0-5.829 0.629-5.829 2.526v0.969c0 1.9 0.7 2.5 5.8 2.527h2.914C12.557 54.1 13.2 54 13.8 54.005z M7.928 53.079c-2.564 0-2.916-0.317-2.916-1.264V50.26c0-0.945 0.351-1.263 2.916-1.263h4.852c2.565 0 2.9 0.3 2.9 1.3 v1.556c0 0.624-0.155 0.969-0.985 1.139l-0.868-0.607c-0.117-0.08-0.232-0.074-0.315-0.074h-2.001l-0.048 0.1 c0.011 0 0.5 0.3 1 0.688H7.928z" class="style0"/><path d="M80.487 50.534h-8.869c-0.738 0-1.053-0.303-1.053-0.704c0-0.402 0.322-0.703 1.051-0.703h11.064 l0.072-0.066c-0.043-0.507-0.556-0.908-1.458-0.908H71.131c-1.698 0-2.514 0.736-2.514 1.678c0 0.9 0.8 1.7 2.5 1.7 h8.875c0.724 0 1 0.3 1 0.704c0 0.402-0.313 0.702-1.055 0.702h-5.597h-5.438l-0.148 0.152v0.676l0.148 0.146h5.438 h6.086c1.722 0 2.513-0.736 2.513-1.676C83 51.3 82.2 50.5 80.5 50.534z" class="style0"/><path d="M23.576 64.738l0.052 0.061c0.91-0.01 1.412-0.225 1.412-0.565v-2.325c0-0.709-0.611-1.266-1.895-1.266 h-3.902c-1.282 0-1.894 0.557-1.894 1.266v2.586l0.137 0.132h1.193l0.134-0.132v-2.525c0-0.305 0.25-0.528 0.797-0.528h3.171 c0.548 0 0.8 0.2 0.8 0.528v2.265V64.738z" class="style0"/><path d="M16.961 65.619l-1.594-1.349c0.736-0.878 1.193-1.873 1.357-2.748v-0.186l-0.137-0.142h-5.378l-0.138 0.1 v0.522l0.138 0.137h3.946c-0.171 0.507-0.434 0.997-0.769 1.452l-1.048-0.889l-0.319-0.077h-1.325l-0.054 0.1 c0.009 0 1.1 0.9 2 1.694c-0.743 0.724-1.649 1.278-2.542 1.524l-0.135 0.145v0.516l0.154 0.1 c1.404-0.195 2.552-0.784 3.445-1.545c0.389 0.3 0.7 0.6 0.7 0.591l0.318 0.079h1.326L16.961 65.619z" class="style0"/><path d="M37.855 61.24c0.053-0.184 0.085-0.342 0.085-0.459l-0.14-0.139h-1.075L36.58 60.8 c-0.142 0.758-0.402 1.737-1.466 2.609l-0.078 0.128v0.537l0.155 0.133c0.508-0.18 0.938-0.474 1.306-0.811 c0.344 0.5 0.8 1.1 1.4 1.578c-0.795 0.647-1.666 1.043-2.417 1.222l-0.136 0.146v0.514l0.153 0.1 c1.292-0.191 2.375-0.66 3.263-1.327c0.908 0.6 2 1.1 3.5 1.327l0.158-0.138v-0.514l-0.138-0.146 c-0.949-0.202-1.866-0.677-2.66-1.274c0.794-0.815 1.385-1.804 1.781-2.857h0.879l0.138-0.133v-0.525l-0.138-0.136H37.855z M38.689 64.141c-0.582-0.576-1.041-1.211-1.337-1.811l0.171-0.296h2.394C39.624 62.9 39.2 63.6 38.7 64.141z" class="style0"/><path d="M27.843 60.846l-0.133 0.131v0.547l0.133 0.135h1.416l-1.289 1.235l-0.053 0.114v0.523l0.138 0.135h2.603 v0.753h-2.406l-0.133 0.135v0.549l0.133 0.134h2.406v0.912h-2.708l-0.134 0.137v0.541l0.134 0.138h5.865 c0.718 0 1.126-0.36 1.158-0.767l-0.058-0.049h-2.792v-0.912h2.408l0.136-0.134v-0.549l-0.136-0.135h-2.408v-0.753h0.999h0.016 c1.283 0 1.892-0.62 1.892-1.325v-0.146l-0.131-0.14h-1.193l-0.137 0.14v0.146c0 0.302-0.243 0.532-0.793 0.532h-3.206l1.261-1.215 h4.068l0.131-0.135v-0.547l-0.131-0.131H27.843z" class="style0"/><path d="M24.285 65.625l-0.134 0.133v0.271c0 0.151-0.122 0.264-0.398 0.264h-0.775 c-0.275 0-0.397-0.112-0.397-0.264v-1.419l-0.135-0.138h-0.914c0.263-0.49 0.422-1.062 0.422-1.735v-0.534l-0.135-0.135h-1.192 l-0.135 0.135v0.41c0 1.736-1.378 3.192-3.667 3.615l-0.131 0.138v0.525l0.135 0.132c0.867 0 3.073-0.483 4.29-1.945v1.21 c0 0.4 0.4 0.7 1.1 0.735h2.237c0.762 0 1.129-0.315 1.129-0.735v-0.529l-0.138-0.133H24.285z" class="style0"/><path d="M69.032 65.097v-0.802h5.041l0.135-0.133v-0.513l-0.135-0.135h-5.041v-0.818l-0.134-0.131h-1.564 l-0.139 0.131v0.818h-3.56c0.796-0.315 1.59-0.856 2.154-1.385h8.599l0.137-0.141V61.44l-0.137-0.134h-7.802 c0.215-0.252 0.354-0.448 0.396-0.525l-0.073-0.139h-1.734l-0.179 0.106c-0.041 0.078-0.186 0.283-0.419 0.558h-3.294l-0.138 0.1 v0.549l0.138 0.141h2.475c-0.583 0.519-1.338 1.059-2.184 1.375l-0.112 0.145v0.513l0.137 0.133h5.597v0.802h-6.604l-0.142 0.1 v0.553l0.142 0.133h6.604v1.11l0.139 0.135h1.564l0.134-0.135v-1.11h5.929l0.136-0.133v-0.553l-0.136-0.138H69.032z" class="style0"/><path d="M47.073 64.389c-0.147 0-0.248 0.008-0.354 0.134c-0.107 0.126-0.326 0.443-0.937 1 c-0.717 0.673-1.507 1.216-1.507 1.216c-0.123 0.078-0.099 0.1 0 0.143h1.576c0.138 0 0.247-0.026 0.356-0.107 c0 0 0.525-0.36 1.197-1.046c0.637-0.643 1.013-1.154 1.013-1.154c0.085-0.109 0.041-0.204-0.1-0.204H47.073z" class="style0"/><path d="M57.724 61.896v-0.53l-0.138-0.141h-6.993c0.053-0.183 0.078-0.353 0.078-0.472l-0.133-0.136h-1.116 l-0.143 0.128c-0.04 0.74-0.305 1.6-0.915 2.13l-0.071 0.124v0.512l0.151 0.139c1.146-0.287 1.761-1.523 1.809-1.619h2.633h0.942 h3.758L57.724 61.896z" class="style0"/><polygon points="50.6,62.6 50.6,63.1 50.7,63.2 56.4,63.2 56.6,63.1 56.6,62.6 56.4,62.5 50.7,62.5" class="style0"/><path d="M46.359 60.996c-0.114-0.112-0.196-0.121-0.314-0.121h-1.414c-0.114 0-0.149 0.067-0.063 0.1 c0 0 0.4 0.4 0.9 0.833c0.496 0.4 1 0.7 1 0.715l0.316 0.064h1.418c0.118 0 0.135-0.053 0.041-0.117 c0 0-0.702-0.481-1.12-0.824C46.695 61.3 46.5 61.1 46.4 60.996z" class="style0"/><path d="M45.809 63.96c0.097 0.1 0.2 0.1 0.3 0.063h1.419c0.116 0 0.131-0.053 0.038-0.116 c0 0-0.628-0.434-0.988-0.741c-0.361-0.306-0.526-0.475-0.643-0.581l-0.312-0.125h-1.422c-0.115 0-0.139 0.066-0.06 0.1 c0 0 0.4 0.4 0.9 0.797C45.513 63.8 45.8 64 45.8 63.96z" class="style0"/><path d="M58.095 66.221c-0.375 0-0.526-0.185-0.526-0.42v-1.065c0-0.571-0.475-1.006-1.303-1.006h-6.668 l-0.134 0.134v0.539l0.134 0.13h5.568c0.432 0 0.6 0.2 0.6 0.542v1.176c0 0.4 0.3 0.8 1 0.774h1.821l0.134-0.134 v-0.533l-0.134-0.137H58.095z" class="style0"/><path d="M5.154 31.849c1.413 1.5 3.4 1.7 5 1.842c4.282 0.4 9.5 0.7 16 0.9 c4.903 0.1 10.2 0.2 16.1 0.191c5.908 0 11.164-0.063 16.06-0.191c6.514-0.171 11.758-0.456 16.048-0.868 c1.703-0.159 3.638-0.335 5.047-1.827c1.345-1.42 1.627-3.443 1.786-5.229c0.374-4.217 0.483-12.683 0.206-17.085 c-0.112-1.698-0.318-3.46-1.533-4.702c-1.188-1.224-2.84-1.425-4.586-1.538c-6.542-0.416-23.498-0.477-33.028-0.477 c-9.533 0-26.5 0.061-33.044 0.477C7.533 3.4 5.9 3.6 4.7 4.849C3.473 6.1 3.3 7.9 3.2 9.6 c-0.281 4.402-0.18 12.9 0.2 17.085C3.515 28.4 3.8 30.4 5.2 31.849z M10.128 10.818c0.057-1.02 0.193-2.194 1.07-3.061 c0.824-0.82 1.916-0.989 2.971-1.088C19.136 6.2 32.2 6.1 42.3 6.102C52.4 6.1 65.5 6.2 70.4 6.7 c1.052 0.1 2.1 0.3 3 1.088c0.88 0.9 1 2 1.1 3.061c0.178 3 0.1 9.741-0.146 12.7 c-0.059 0.783-0.18 1.601-0.824 2.236c-0.611 0.611-1.405 0.761-2.161 0.855c-0.948 0.12-1.918 0.191-2.844 0.3 c-0.437 0.03-0.916 0.069-1.387 0.106c-0.226 0.021-0.337 0.032-0.432 0.13c-0.095 0.107-0.139 0.275-0.176 0.5 c-0.049 0.257-0.093 0.524-0.139 0.778l-0.004 0.022c-0.068 0.376-0.14 0.766-0.215 1.148c-0.073 0.388-0.206 0.792-0.64 1.1 c-0.396 0.284-0.804 0.315-1.132 0.344c-3.456 0.292-8.139 0.388-11.093 0.388h-0.514c-0.794 0-1.521-0.024-2.358-0.259 c-0.83-0.238-1.553-0.64-2.161-1c-0.453-0.267-0.911-0.541-1.355-0.807l-0.037-0.023c-0.401-0.235-0.815-0.48-1.221-0.726 c-0.698-0.405-1.232-0.679-1.903-0.856c-0.688-0.184-1.379-0.213-2.081-0.227c-2.955-0.061-5.949-0.091-8.853-0.114h-0.017 c-1.743-0.021-3.527-0.034-5.287-0.051c-4.465-0.063-10.785-0.188-14.186-0.602c-0.773-0.096-1.595-0.238-2.214-0.888 c-0.632-0.659-0.752-1.5-0.818-2.304C10.041 20.6 10 13.8 10.1 10.818z" class="style0"/><path d="M15.442 23.992c0.351 0.4 0.9 0.4 1.5 0.494c3.203 0.3 9.3 0.4 13.7 0.4 c1.387 0 2.8 0 4.2 0.021h0.026c3.13 0 6.4 0 9.5 0.097c0.82 0 1.6 0 2.3 0.2 c0.831 0.2 1.4 0.5 2.2 0.915c0.38 0.2 0.8 0.4 1.1 0.64c0.413 0.2 0.8 0.5 1.2 0.7 c0.571 0.3 1.2 0.7 2 0.89c0.619 0.2 1.2 0.2 1.8 0.197c0.122 0 0.2 0 0.4 0 c2.104-0.03 5.007-0.112 6.859-0.251c0.178-0.012 0.362-0.027 0.47-0.113c0.087-0.067 0.12-0.175 0.163-0.385 c0.051-0.294 0.104-0.589 0.149-0.881c0.043-0.239 0.08-0.465 0.123-0.698c0.076-0.439 0.195-0.9 0.64-1.24 c0.396-0.303 0.884-0.351 1.24-0.386c0.398-0.035 0.807-0.067 1.19-0.101c0.486-0.039 0.979-0.078 1.463-0.125 c0.595-0.059 1.106-0.133 1.477-0.473c0.38-0.352 0.44-0.846 0.472-1.446c0.174-2.741 0.241-8.616 0.075-11.558 c-0.046-0.708-0.116-1.382-0.594-1.841c-0.455-0.445-1.092-0.535-1.822-0.594c-4.741-0.383-17.688-0.44-24.976-0.44h-0.02 c-7.286 0-20.226 0.057-24.962 0.44C16.6 8.6 16 8.6 15.5 9.095c-0.471 0.459-0.546 1.133-0.588 1.8 c-0.169 2.942-0.103 8.8 0.1 11.558C15.02 23.1 15.1 23.6 15.4 23.992z M18.043 12.8 c0.027-0.571 0.089-1.228 0.553-1.721c0.502-0.531 1.178-0.559 1.672-0.583c4.008-0.201 14.198-0.246 22.039-0.246h0.022 c7.837 0 18 0 22 0.246c0.493 0 1.2 0.1 1.7 0.583c0.459 0.5 0.5 1.1 0.6 1.7 c0.042 1 0 2.9 0 3.907c-0.018 0.477-0.043 1.2-0.551 1.724c-0.503 0.524-1.179 0.558-1.672 0.6 c-3.914 0.2-14.149 0.242-22.043 0.242c-7.894 0-18.125-0.042-22.039-0.242c-0.494-0.028-1.174-0.061-1.674-0.585 c-0.509-0.524-0.537-1.247-0.551-1.724C18.005 15.7 18 13.8 18 12.754z" class="style0"/></g></svg>