<?xml version="1.0" encoding="utf-8"?>
<!-- Generator: Adobe Illustrator 15.0.0, SVG Export Plug-In . SVG Version: 6.00 Build 0)  -->
<!DOCTYPE svg PUBLIC "-//W3C//DTD SVG 1.1//EN" "http://www.w3.org/Graphics/SVG/1.1/DTD/svg11.dtd">
<svg version="1.1" id="Layer_1" xmlns="http://www.w3.org/2000/svg" xmlns:xlink="http://www.w3.org/1999/xlink" x="0px" y="0px"
	 width="54px" height="270px" viewBox="0 0 54 270" enable-background="new 0 0 54 270" xml:space="preserve">
<path fill="#DCE7EA" d="M13.83,117.05v1.63h12.69v-1.62h-3.25c0.36-2.3,0.77-5.01,0.98-7.03l-1.27-0.15l-0.28,0.07h-4.01
	c0.11-0.63,0.22-1.23,0.35-1.83h7.06v-1.6H14.25v1.6h2.97c-0.4,2.35-1.07,5.27-1.6,7.14h6.2c-0.1,0.63-0.19,1.23-0.28,1.81h-7.71
	V117.05z M17.86,113.68c0.15-0.67,0.32-1.43,0.49-2.2h3.99c-0.08,0.66-0.18,1.43-0.29,2.2H17.86z"/>
<path fill="#DCE7EA" d="M36.71,113.8h3.14v-1.51H36.82v-0.14v-1.81h2.63v-1.51h-1.591c0.41-0.64,0.841-1.46,1.229-2.21l-1.68-0.43
	c-0.261,0.81-0.771,1.9-1.2,2.65h-1.602l1.17-0.62c-0.25-0.6-0.84-1.43-1.398-2.05l-1.33,0.63c0.5,0.6,1.021,1.43,1.271,2.03h-1.51
	v1.51h2.318v1.79v0.15h-2.568v1.51H35c-0.26,1.39-0.98,2.97-3.07,4.19v-1.62l1.08-0.2l-0.109-1.43l-0.961,0.15v-6.93h0.5v-1.48
	H27.02v1.48h0.6v7.61l-0.77,0.1l0.32,1.56c0.98-0.18,2.141-0.38,3.35-0.6v2.41h1.41v-1.01c0.43,0.29,0.961,0.8,1.23,1.16
	c1.449-0.94,2.359-2.06,2.88-3.19c0.69,1.33,1.63,2.4,2.931,3.03c0.239-0.45,0.729-1.06,1.1-1.39
	C38.4,116.96,37.279,115.52,36.71,113.8z M30.52,115.11l-1.438,0.23v-1.71h1.438V115.11z M30.52,112.27H29.08v-1.48h1.439V112.27
	L30.52,112.27z M30.52,109.43H29.08v-1.47h1.439V109.43L30.52,109.43z"/>
<g>
	<path fill="#FFFFFF" d="M17.875,24.456c0.137,0.437,0.41,1.052,0.614,1.338c-2.526,2.144-2.977,2.526-3.223,2.854
		c-0.123-0.396-0.546-1.065-0.819-1.379c0.3-0.219,0.683-0.683,0.683-1.338v-4.097h-1.625v-1.557h3.196v5.176L17.875,24.456z
		 M16.523,19.444c-0.437-0.601-1.393-1.557-2.117-2.199l1.038-0.997c0.724,0.601,1.734,1.489,2.185,2.076L16.523,19.444z
		 M25.468,22.353c-0.491,1.693-1.297,2.991-2.349,3.974c0.915,0.492,1.966,0.847,3.168,1.079c-0.355,0.354-0.792,0.997-0.997,1.447
		c-1.352-0.328-2.526-0.819-3.523-1.502c-1.093,0.669-2.363,1.133-3.742,1.461c-0.15-0.423-0.478-1.065-0.738-1.406
		c1.188-0.219,2.281-0.56,3.223-1.079c-0.751-0.751-1.393-1.625-1.885-2.636l0.56-0.191h-0.983v-1.516h6.009l0.273-0.068
		L25.468,22.353z M20.92,18.051c0,1.352-0.423,2.881-2.363,3.783c-0.191-0.314-0.778-0.956-1.079-1.174
		c1.721-0.737,1.925-1.721,1.925-2.663v-1.475h4.889V19.5c0,0.396,0.027,0.56,0.219,0.56h0.71c0.219,0,0.56-0.041,0.751-0.095
		c0.027,0.41,0.055,0.969,0.123,1.338c-0.218,0.095-0.56,0.109-0.847,0.109h-0.874c-1.352,0-1.625-0.573-1.625-1.925v-1.461h-1.83
		L20.92,18.051L20.92,18.051z M20.142,23.5c0.396,0.737,0.969,1.406,1.666,1.966c0.642-0.546,1.188-1.202,1.598-1.966H20.142z"/>
	<path fill="#FFFFFF" d="M32.236,24.579c0.096,0.464,0.342,1.161,0.52,1.489c-2.744,1.98-3.251,2.376-3.51,2.717
		c-0.137-0.423-0.533-1.161-0.793-1.516c0.301-0.205,0.738-0.656,0.738-1.27v-4.111h-1.995v-1.611h3.646v5.258L32.236,24.579z
		 M30.488,19.417c-0.465-0.601-1.461-1.516-2.227-2.158l1.023-1.038c0.752,0.587,1.816,1.434,2.295,2.008L30.488,19.417z
		 M39.829,22.052h-3.142v6.787h-1.748v-6.787h-3.276v-1.693h3.276v-4.22h1.748v4.22h3.142V22.052z"/>
</g>
<g>
	<path fill="#FFFFFF" d="M3.64,63.378c-0.382,1.325-1.147,2.322-2.813,2.991c-0.15-0.341-0.533-0.874-0.833-1.133
		c1.161-0.437,1.775-1.065,2.089-1.857H0.458V62.15h1.939c0.041-0.328,0.068-0.683,0.095-1.038h1.489
		c-0.027,0.355-0.055,0.697-0.096,1.038h2.718c0,0-0.014,0.328-0.041,0.505c-0.109,1.693-0.259,2.485-0.574,2.799
		c-0.246,0.26-0.532,0.355-0.86,0.396c-0.314,0.027-0.86,0.041-1.42,0.014c-0.014-0.369-0.164-0.874-0.355-1.202
		c0.451,0.041,0.82,0.055,1.011,0.041c0.178,0,0.273-0.014,0.382-0.109c0.109-0.123,0.205-0.478,0.287-1.215L3.64,63.378
		L3.64,63.378z M9.403,72.31H0.636v-1.284h8.768L9.403,72.31L9.403,72.31z M12.38,69.333c0,0-0.014,0.396-0.041,0.587
		c-0.191,2.049-0.423,2.991-0.806,3.374c-0.273,0.3-0.615,0.396-1.024,0.437c-0.369,0.041-0.97,0.041-1.639,0.027
		c-0.027-0.41-0.191-0.942-0.396-1.311c0.533,0.068,1.038,0.068,1.256,0.068c0.205,0,0.328-0.014,0.451-0.136
		c0.191-0.178,0.341-0.71,0.478-1.871H2.206c0.205-0.669,0.437-1.721,0.587-2.567l1.666,0.15c-0.068,0.396-0.164,0.833-0.259,1.243
		h4.11c0.123-0.533,0.246-1.093,0.341-1.625H1.906V66.26h7.156l0.273-0.068l1.243,0.164c-0.137,0.997-0.341,2.049-0.56,2.978
		L12.38,69.333L12.38,69.333z M11.971,65.659h-4.78v-3.851h4.78V65.659z M10.455,62.969H8.597v1.543h1.857L10.455,62.969
		L10.455,62.969z"/>
	<path fill="#FFFFFF" d="M23.505,70.193c-0.41,0-0.724-0.041-0.942-0.137c1.093,0.915,2.458,1.652,3.974,2.048
		c-0.354,0.314-0.819,0.942-1.051,1.366c-1.775-0.601-3.319-1.666-4.521-3.045v3.4h-1.721v-3.387
		c-1.216,1.352-2.786,2.39-4.548,3.004c-0.246-0.41-0.71-1.038-1.065-1.366c1.488-0.41,2.854-1.12,3.947-2.007h-0.819v-0.492
		c-0.82,0.137-1.64,0.259-2.35,0.382l-0.272-1.338c0.696-0.068,1.639-0.177,2.622-0.287v-0.751h-2.186v-1.271h2.186v-0.724h1.516
		v3.878c0.382-0.382,0.696-0.778,0.97-1.188v-3.004h-5.094v-1.461h5.094v-0.737c-1.325,0.068-2.677,0.109-3.92,0.123
		c-0.027-0.41-0.205-0.997-0.354-1.366c3.209-0.082,6.924-0.341,9.341-0.751l0.71,1.393c-1.175,0.205-2.581,0.369-4.056,0.478v0.86
		h5.08v1.461h-5.08v3.032c0.313,0.478,0.696,0.929,1.146,1.352c-0.149-0.26-0.19-0.656-0.19-1.202V65.55h1.475v1.079
		c0.546-0.219,1.079-0.451,1.475-0.669l0.929,1.161c-0.737,0.3-1.625,0.587-2.403,0.792v0.533c0,0.355,0.055,0.41,0.355,0.41H24.6
		c0.259,0,0.327-0.109,0.368-0.806c0.273,0.205,0.874,0.437,1.298,0.519c-0.178,1.27-0.574,1.625-1.503,1.625L23.505,70.193
		L23.505,70.193z"/>
	<path fill="#FFFFFF" d="M31.516,61.603c-0.301,0.874-0.668,1.762-1.092,2.636v9.573h-1.543v-6.938
		c-0.273,0.369-0.561,0.738-0.834,1.065c-0.15-0.396-0.601-1.284-0.901-1.693c1.147-1.243,2.211-3.182,2.827-5.108L31.516,61.603z
		 M37.047,65.058c0.752,2.104,2.008,4.234,3.332,5.477c-0.369,0.287-0.928,0.833-1.215,1.256c-0.383-0.423-0.738-0.915-1.094-1.448
		v1.202h-1.83v2.199h-1.584v-2.199h-1.789v-1.257c-0.381,0.574-0.777,1.106-1.215,1.543c-0.273-0.382-0.793-0.956-1.16-1.229
		c1.379-1.229,2.648-3.387,3.4-5.545h-2.691v-1.543h3.455v-2.363h1.584v2.363h3.77v1.543L37.047,65.058L37.047,65.058z
		 M34.656,70.098v-3.469c-0.449,1.256-1.023,2.458-1.666,3.469H34.656z M37.92,70.098c-0.641-1.052-1.215-2.281-1.68-3.564v3.564
		H37.92z"/>
	<path fill="#FFFFFF" d="M44.525,70.821c-1.16,0.273-2.363,0.56-3.373,0.792l-0.26-1.256c0.916-0.164,2.198-0.451,3.51-0.737
		L44.525,70.821z M47.803,65.454c-0.451,0.396-0.887,0.751-1.352,1.065c-0.178-0.314-0.656-0.997-0.93-1.311
		c-0.056,0.792-0.123,1.557-0.189,2.171h1.051c0,0-0.014,0.41-0.027,0.587c-0.164,3.387-0.342,4.725-0.752,5.189
		c-0.285,0.354-0.6,0.464-1.037,0.519c-0.354,0.041-1.01,0.041-1.666,0.014c-0.014-0.396-0.164-0.929-0.396-1.297
		c0.603,0.054,1.175,0.068,1.42,0.068c0.232,0,0.343-0.027,0.479-0.164c0.246-0.273,0.41-1.256,0.533-3.646h-3.523
		c0.164-1.229,0.301-3.25,0.355-4.793l1.379,0.082c-0.056,1.079-0.15,2.363-0.246,3.455h1.063c0.15-1.215,0.272-2.895,0.354-4.452
		h-3.086v-1.366h4.507c-0.056,1.12-0.138,2.431-0.232,3.633c1.601-0.97,3.115-2.554,3.962-4.288l1.405,0.492
		c-0.108,0.218-0.231,0.437-0.354,0.655c0.914,1.038,2.252,2.158,3.47,2.813c-0.273,0.41-0.589,1.161-0.738,1.611
		c-0.41-0.273-0.819-0.574-1.241-0.929v1.052h-4.207v-1.16H47.803z M53.648,67.721c-0.492,1.379-1.094,2.977-1.652,4.152h1.625
		v1.366h-7.074v-1.366h4.082c0.574-1.243,1.23-3.086,1.545-4.466L53.648,67.721z M47.598,71.108
		c-0.096-0.874-0.424-2.212-0.709-3.223l1.229-0.328c0.342,1.01,0.655,2.321,0.791,3.182L47.598,71.108z M51.641,65.25
		c-0.697-0.615-1.352-1.27-1.926-1.939c-0.506,0.71-1.092,1.352-1.693,1.939H51.641z M49.742,70.726
		c-0.068-0.874-0.301-2.212-0.506-3.223l1.229-0.178c0.244,1.024,0.49,2.322,0.572,3.209L49.742,70.726z"/>
</g>
</svg>
