<?xml version="1.0" encoding="utf-8"?>
<!-- Generator: Adobe Illustrator 16.0.0, SVG Export Plug-In . SVG Version: 6.00 Build 0)  -->
<!DOCTYPE svg PUBLIC "-//W3C//DTD SVG 1.1//EN" "http://www.w3.org/Graphics/SVG/1.1/DTD/svg11.dtd">
<svg version="1.1" id="Layer_1" xmlns="http://www.w3.org/2000/svg" xmlns:xlink="http://www.w3.org/1999/xlink" x="0px" y="0px"
	 width="100px" height="128.104px" viewBox="0 0 100 128.104" enable-background="new 0 0 100 128.104" xml:space="preserve">
<g>
	<path fill="#FFFFFF" d="M5.88,28.486c-0.22-0.56-0.51-1.22-0.89-1.907c-0.75,1.487-1.63,2.75-2.68,3.76
		c-0.29-0.431-0.91-1.12-1.39-1.46c1.15-0.99,2.11-2.511,2.87-4.353c-0.77-1.197-1.6-2.42-2.39-3.47l1.39-0.99
		c0.56,0.74,1.15,1.54,1.74,2.37c0.34-1.12,0.61-2.31,0.8-3.52H1.38v-1.812H5.8l0.34-0.08l1.21,0.381
		c-0.27,2.632-0.75,4.979-1.48,7.029c0.69,1.04,1.23,2.062,1.58,2.88L5.88,28.486z M14.15,29.206c0.37,0,0.46-0.46,0.51-2.513
		c0.43,0.303,1.04,0.562,1.47,0.672c-0.16,2.479-0.41,3.229-2.01,3.229h-1.01c-1.25,0-1.77-0.38-1.77-1.729v-1.972
		c-0.77,1.512-1.99,2.91-3.97,3.95c-0.21-0.38-0.83-1.09-1.18-1.36c4.04-2.107,4.49-5.277,4.49-7.71v-2.51h1.79v2.55
		c0,0.99-0.1,2.15-0.41,3.312h1.05v3.54c0,0.42,0.11,0.54,0.4,0.54H14.15z M9.6,25.115H7.8v-8.479h7.65v8.479h-1.87v-6.812H9.6
		V25.115z"/>
	<path fill="#FFFFFF" d="M30.18,20.596c-0.35,2.45-0.89,4.47-1.82,6.13c0.8,1.062,1.79,1.892,3.02,2.45
		c-0.4,0.39-0.99,1.12-1.26,1.63c-1.16-0.61-2.12-1.41-2.9-2.42c-0.85,1.01-1.91,1.83-3.22,2.5c-0.17-0.45-0.72-1.31-1.07-1.71
		l0.08-0.03c-2.31,0.37-4.69,0.722-6.46,0.98l-0.27-1.92c0.81-0.103,1.82-0.21,2.91-0.353v-1.897h-2.41v-1.73h2.41v-1.47h1.9v1.47
		h2.39v1.71h-2.39v1.65c0.86-0.11,1.76-0.24,2.6-0.37l0.08,1.52c0.97-0.54,1.74-1.229,2.36-2.05c-0.54-1.02-0.97-2.18-1.31-3.43
		c-0.25,0.399-0.51,0.77-0.78,1.12c-0.3-0.37-0.99-1.12-1.42-1.46c0.16-0.19,0.32-0.4,0.46-0.61l-0.85,0.43
		c-0.06-0.18-0.14-0.368-0.24-0.59c-3.86,0.34-4.53,0.433-4.98,0.61c-0.1-0.37-0.38-1.23-0.59-1.71c0.26-0.08,0.5-0.32,0.75-0.69
		c0.18-0.26,0.62-0.988,1-1.857h-1.72v-1.71h7.26v1.729H20.2c-0.37,0.78-0.85,1.59-1.31,2.271l2.31-0.143
		c-0.21-0.397-0.43-0.778-0.64-1.12l1.44-0.67c0.5,0.83,1.15,1.91,1.55,2.71c0.86-1.567,1.47-3.567,1.8-5.67l1.9,0.32
		c-0.18,0.899-0.38,1.78-0.62,2.63h4.47v1.76h-0.92V20.596z M25.96,20.836c0.29,1.43,0.69,2.75,1.25,3.938
		c0.5-1.18,0.83-2.58,1.02-4.18h-2.17L25.96,20.836z"/>
</g>
<g>
	<path fill="#FFFFFF" d="M17.93,12.59c-0.22-0.56-0.51-1.22-0.89-1.907c-0.75,1.487-1.63,2.75-2.68,3.76
		c-0.29-0.432-0.91-1.12-1.39-1.46c1.15-0.99,2.11-2.511,2.87-4.353c-0.77-1.197-1.6-2.42-2.39-3.47l1.39-0.99
		c0.56,0.74,1.15,1.54,1.74,2.37c0.34-1.12,0.61-2.31,0.8-3.52h-3.95V1.209h4.42l0.34-0.08L19.4,1.51
		c-0.27,2.632-0.75,4.979-1.48,7.029c0.69,1.04,1.23,2.062,1.58,2.88L17.93,12.59z M26.2,13.311c0.37,0,0.46-0.46,0.51-2.513
		c0.43,0.303,1.04,0.562,1.47,0.671c-0.16,2.479-0.41,3.229-2.01,3.229h-1.01c-1.25,0-1.77-0.38-1.77-1.729v-1.971
		c-0.77,1.511-1.99,2.91-3.97,3.95c-0.21-0.38-0.83-1.09-1.18-1.36c4.04-2.107,4.49-5.277,4.49-7.71v-2.51h1.79v2.55
		c0,0.99-0.1,2.15-0.41,3.312h1.05v3.54c0,0.42,0.11,0.54,0.4,0.54H26.2z M21.65,9.221h-1.8V0.74h7.65v8.479h-1.87v-6.81h-3.98
		V9.221z"/>
	<path fill="#FFFFFF" d="M42.23,4.7c-0.35,2.45-0.89,4.47-1.82,6.13c0.8,1.062,1.79,1.892,3.02,2.45c-0.4,0.39-0.99,1.12-1.26,1.63
		c-1.16-0.61-2.12-1.41-2.9-2.42c-0.85,1.01-1.91,1.83-3.22,2.5c-0.17-0.45-0.72-1.31-1.07-1.71l0.08-0.03
		c-2.31,0.37-4.69,0.722-6.46,0.98l-0.27-1.92c0.81-0.103,1.82-0.21,2.91-0.353v-1.897h-2.41V8.33h2.41v-1.47h1.9v1.47h2.39v1.71
		h-2.39v1.65c0.86-0.11,1.76-0.24,2.6-0.37l0.08,1.52c0.97-0.54,1.74-1.229,2.36-2.05c-0.54-1.02-0.97-2.18-1.31-3.43
		c-0.25,0.398-0.51,0.77-0.78,1.12c-0.3-0.37-0.99-1.12-1.42-1.46c0.16-0.19,0.32-0.4,0.46-0.61l-0.85,0.43
		c-0.06-0.18-0.14-0.368-0.24-0.59c-3.86,0.34-4.53,0.433-4.98,0.61c-0.1-0.37-0.38-1.23-0.59-1.71c0.26-0.08,0.5-0.32,0.75-0.69
		c0.18-0.26,0.62-0.988,1-1.857H28.5v-1.71h7.26v1.729h-3.51c-0.37,0.78-0.85,1.59-1.31,2.271l2.31-0.143
		c-0.21-0.397-0.43-0.778-0.64-1.12l1.44-0.67c0.5,0.83,1.15,1.91,1.55,2.71c0.86-1.567,1.47-3.567,1.8-5.67l1.9,0.32
		c-0.18,0.898-0.38,1.78-0.62,2.63h4.47v1.76h-0.92V4.7L42.23,4.7z M38.01,4.941c0.29,1.43,0.69,2.75,1.25,3.938
		c0.5-1.18,0.83-2.58,1.02-4.18h-2.17L38.01,4.941z"/>
</g>
<path fill="#FFFFFF" d="M31.36,28.046l1.1-1.49c0.7,0.69,1.56,1.22,2.63,1.22c1.2,0,2.01-0.59,2.01-1.647
	c0-1.17-0.69-1.893-3.26-1.893v-1.688c2.17,0,2.87-0.75,2.87-1.812c0-0.93-0.57-1.47-1.58-1.487c-0.85,0.02-1.53,0.42-2.23,1.06
	l-1.2-1.438c1.02-0.899,2.15-1.46,3.54-1.46c2.28,0,3.83,1.118,3.83,3.148c0,1.28-0.72,2.21-1.98,2.71v0.08
	c1.36,0.37,2.38,1.36,2.38,2.91c0,2.18-1.9,3.438-4.15,3.438C33.45,29.696,32.19,28.996,31.36,28.046z"/>
<path fill="#FFFFFF" d="M55.078,17.596c-0.568,1.54-1.279,3.35-1.93,4.75c1.357,1.43,1.631,2.69,1.631,3.71
	c0,1.2-0.25,1.98-0.891,2.4c-0.291,0.229-0.689,0.37-1.121,0.43c-0.369,0.05-0.891,0.05-1.391,0.021
	c-0.021-0.512-0.188-1.329-0.48-1.842c0.377,0.03,0.719,0.052,1,0.03c0.24,0,0.479-0.05,0.642-0.14
	c0.301-0.183,0.42-0.562,0.42-1.091c0-0.882-0.369-2.052-1.642-3.279c0.461-1.15,1-2.771,1.399-4h-2.03v12.26h-1.87v-13.7
	c-0.48,1.222-1.04,2.37-1.71,3.41h1.18v1.67h-2.37c-0.33,0.42-0.67,0.78-1.02,1.17h2.87v7.222h-1.8v-0.609h-2.57v0.82h-1.72v-4.853
	c-0.27,0.182-0.54,0.34-0.8,0.48c-0.21-0.4-0.75-1.2-1.1-1.58c1.421-0.7,2.691-1.58,3.811-2.65h-3.4v-1.67h2.78v-1.31h-2.09v-1.631
	h2.09v-1.552h1.76v1.552h1.64v0.818c0.3-0.56,0.54-1.17,0.78-1.79l1.68,0.472v-0.319h4.601l0.288-0.062L55.078,17.596z
	 M45.97,24.896H43.4v1.021h2.57V24.896z M45.97,28.486v-1.14H43.4v1.14H45.97z M45.04,20.556c0.3-0.42,0.59-0.85,0.88-1.31h-1.2
	v1.31H45.04z"/>
<path fill="#FFFFFF" d="M63.639,19.936v1.79h5.141v5.392c0,0.938-0.188,1.471-0.857,1.761c-0.648,0.31-1.58,0.317-2.812,0.317
	c-0.08-0.56-0.371-1.357-0.641-1.867c0.801,0.05,1.74,0.05,1.98,0.027c0.27,0,0.35-0.06,0.35-0.27v-3.5h-3.16v7.2h-1.979v-7.2h-2.95
	v5.62h-1.92v-7.48h4.869v-1.79h-6.209v-1.857h6.398c-0.238-0.58-0.539-1.23-0.812-1.763l1.881-0.59
	c0.396,0.74,0.932,1.7,1.199,2.353h5.891v1.857H63.639z"/>
<g>
	<path fill="#FFFFFF" d="M70.549,27.966l1.359-1.63c0.852,0.779,1.961,1.31,3,1.31c1.23,0,1.881-0.528,1.881-1.357
		c0-0.881-0.721-1.15-1.771-1.603l-1.578-0.67c-1.201-0.5-2.391-1.46-2.391-3.188c0-1.94,1.689-3.433,4.09-3.433
		c1.371,0,2.75,0.55,3.701,1.521l-1.201,1.489c-0.75-0.619-1.529-0.979-2.51-0.979c-1.039,0-1.709,0.46-1.709,1.25
		c0,0.85,0.85,1.15,1.85,1.55l1.561,0.67c1.439,0.59,2.383,1.512,2.383,3.222c0,1.938-1.609,3.591-4.342,3.591
		C73.279,29.696,71.699,29.076,70.549,27.966z"/>
	<path fill="#FFFFFF" d="M80.439,24.146v-6.52h2.357v6.72c0,2.47,0.852,3.3,2.229,3.3c1.398,0,2.301-0.83,2.301-3.3v-6.72h2.271
		v6.52c0,3.94-1.681,5.55-4.562,5.55C82.154,29.696,80.439,28.086,80.439,24.146z"/>
	<path fill="#FFFFFF" d="M89.979,17.626h2.473l1.561,5.76c0.371,1.31,0.609,2.5,0.988,3.83h0.08c0.371-1.33,0.645-2.51,1-3.83
		l1.529-5.76H100l-3.602,11.85H93.59L89.979,17.626z"/>
</g>
<g>
	<path fill="#FFFFFF" d="M57.271,12.136l1.358-1.63c0.853,0.779,1.961,1.31,3,1.31c1.229,0,1.882-0.528,1.882-1.357
		c0-0.881-0.722-1.15-1.771-1.603l-1.578-0.67c-1.201-0.5-2.391-1.46-2.391-3.188c0-1.94,1.688-3.433,4.09-3.433
		c1.371,0,2.75,0.551,3.701,1.521l-1.201,1.489c-0.75-0.619-1.529-0.979-2.51-0.979c-1.039,0-1.709,0.46-1.709,1.25
		c0,0.851,0.85,1.15,1.85,1.55l1.56,0.67c1.44,0.591,2.384,1.512,2.384,3.222c0,1.938-1.61,3.591-4.343,3.591
		C60.002,13.865,58.422,13.246,57.271,12.136z"/>
	<path fill="#FFFFFF" d="M67.162,8.316v-6.52h2.357v6.72c0,2.47,0.852,3.3,2.229,3.3c1.397,0,2.3-0.83,2.3-3.3v-6.72h2.271v6.52
		c0,3.94-1.68,5.551-4.562,5.551C68.878,13.866,67.162,12.256,67.162,8.316z"/>
	<path fill="#FFFFFF" d="M76.701,1.796h2.472l1.562,5.76c0.371,1.311,0.608,2.5,0.988,3.83h0.079c0.371-1.33,0.644-2.51,1-3.83
		l1.53-5.76h2.391l-3.602,11.85h-2.809L76.701,1.796z"/>
</g>
<path fill="#FFFFFF" d="M20.5,44.486c-0.22-0.56-0.51-1.22-0.89-1.897c-0.75,1.49-1.63,2.75-2.68,3.76
	c-0.29-0.43-0.91-1.12-1.39-1.46c1.15-0.99,2.11-2.51,2.87-4.35c-0.77-1.2-1.6-2.421-2.39-3.473l1.39-0.987
	c0.56,0.737,1.15,1.539,1.74,2.367c0.34-1.117,0.61-2.31,0.8-3.52h-3.94v-1.811h4.42l0.34-0.079l1.21,0.38
	c-0.27,2.63-0.75,4.979-1.48,7.027c0.69,1.04,1.23,2.062,1.58,2.883L20.5,44.486z M28.77,45.206c0.37,0,0.46-0.46,0.51-2.513
	c0.43,0.303,1.04,0.562,1.47,0.672c-0.16,2.479-0.41,3.229-2.01,3.229h-1.01c-1.25,0-1.77-0.38-1.77-1.729v-1.972
	c-0.77,1.51-1.99,2.91-3.97,3.95c-0.21-0.38-0.83-1.09-1.18-1.36c4.04-2.107,4.49-5.277,4.49-7.71v-2.51h1.79v2.55
	c0,0.99-0.1,2.15-0.41,3.312h1.05v3.54c0,0.42,0.11,0.54,0.4,0.54H28.77z M24.22,41.126h-1.8v-8.48h7.65v8.48H28.2v-6.82h-3.97v6.82
	H24.22z"/>
<path fill="#FFFFFF" d="M44.8,36.596c-0.35,2.45-0.89,4.47-1.82,6.13c0.8,1.062,1.79,1.892,3.02,2.45c-0.4,0.39-0.99,1.12-1.26,1.63
	c-1.16-0.61-2.12-1.41-2.9-2.42c-0.85,1.01-1.91,1.83-3.22,2.5c-0.17-0.45-0.72-1.31-1.07-1.71l0.08-0.03
	c-2.31,0.37-4.69,0.722-6.46,0.98l-0.27-1.92c0.81-0.103,1.82-0.21,2.91-0.353v-1.897H31.4v-1.71h2.41v-1.473h1.9v1.473h2.39v1.71
	h-2.39v1.647c0.86-0.107,1.76-0.238,2.6-0.37l0.08,1.521c0.97-0.54,1.74-1.23,2.36-2.05c-0.54-1.021-0.97-2.183-1.31-3.433
	c-0.25,0.4-0.51,0.771-0.78,1.12c-0.3-0.37-0.99-1.12-1.42-1.46c0.16-0.188,0.32-0.397,0.46-0.607l-0.85,0.43
	c-0.06-0.18-0.14-0.37-0.24-0.59c-3.86,0.34-4.53,0.43-4.98,0.607c-0.1-0.369-0.38-1.229-0.59-1.71c0.26-0.08,0.5-0.317,0.75-0.688
	c0.18-0.261,0.62-0.99,1-1.86h-1.72v-1.729h7.26v1.729h-3.51c-0.37,0.78-0.85,1.59-1.31,2.271l2.31-0.143
	c-0.21-0.397-0.43-0.778-0.64-1.12l1.44-0.67c0.5,0.83,1.15,1.91,1.55,2.71c0.86-1.567,1.47-3.567,1.8-5.67l1.9,0.32
	c-0.18,0.899-0.38,1.78-0.62,2.63h4.47v1.76H44.8V36.596L44.8,36.596z M40.59,36.836c0.29,1.43,0.69,2.75,1.25,3.938
	c0.5-1.18,0.83-2.58,1.02-4.18h-2.17L40.59,36.836z"/>
<path fill="#FFFFFF" d="M45.99,44.046l1.1-1.49c0.7,0.69,1.56,1.22,2.63,1.22c1.2,0,2.008-0.59,2.008-1.647
	c0-1.17-0.688-1.893-3.258-1.893v-1.697c2.17,0,2.87-0.75,2.87-1.812c0-0.93-0.57-1.47-1.58-1.49c-0.85,0.021-1.53,0.422-2.23,1.062
	l-1.2-1.44c1.02-0.897,2.15-1.46,3.54-1.46c2.278,0,3.83,1.12,3.83,3.15c0,1.28-0.722,2.21-1.979,2.71v0.08
	c1.34,0.37,2.357,1.357,2.357,2.91c0,2.18-1.898,3.438-4.147,3.438C48.08,45.696,46.82,44.996,45.99,44.046z"/>
<path fill="#FFFFFF" d="M67.609,37.586c0.59,0.857,1.398,1.71,2.219,2.21c-0.379,0.31-0.959,0.938-1.209,1.38
	c-0.27-0.19-0.541-0.43-0.801-0.69v6.32h-1.852v-6.56H67.6c-0.701-0.75-1.361-1.71-1.82-2.66h-0.93
	c-0.461,1.01-1.07,1.91-1.803,2.64h1.312v1.5c0,1.7-0.461,3.87-2.49,5.22c-0.25-0.34-1-0.987-1.398-1.25
	c1.84-1.147,2.08-2.737,2.08-4.02v-0.98c-0.303,0.263-0.621,0.48-0.939,0.712c-0.141-0.319-0.529-0.899-0.859-1.302v0.143h-1.26
	v1.55l1.408-0.21l0.102,1.63l-1.5,0.29v3.27h-1.66V43.83c-0.988,0.188-1.949,0.369-2.762,0.5l-0.408-1.83
	c0.852-0.11,1.959-0.263,3.146-0.433v-1.81h-1.209c-0.49,0-1.08,0.1-1.211,0.24c-0.102-0.341-0.381-1.17-0.57-1.62
	c0.342-0.103,0.561-0.54,0.811-1.25c0.131-0.34,0.4-1.15,0.689-2.183H54.85v-1.788h1.896c0.131-0.579,0.221-1.172,0.291-1.739
	l1.84,0.34c-0.102,0.46-0.188,0.93-0.301,1.41h2.25v1.79h-2.737c-0.33,1.1-0.721,2.159-1.103,3.09h0.859v-2.271h1.659v2.271h1.261
	v1.147c0.881-0.55,1.551-1.26,2.08-2.107h-1.867v-1.7h2.65c0.18-0.5,0.318-1.01,0.43-1.55c-0.721,0.06-1.449,0.107-2.141,0.13
	c-0.051-0.42-0.25-1.101-0.449-1.521c2.221-0.141,4.77-0.448,6.369-0.898l1.09,1.52c-0.879,0.23-1.92,0.4-3,0.54
	c-0.109,0.643-0.25,1.223-0.41,1.78h4.012v1.7L67.609,37.586L67.609,37.586z"/>
<path fill="#FFFFFF" d="M84.52,44.115h-5.271v2.75h-2.04v-2.75h-7.07v-1.859h7.07v-1.76h-3.381c-0.85,0-1.68,0.1-1.83,0.237
	c-0.1-0.397-0.449-1.39-0.689-1.947c0.42-0.131,0.73-0.53,1.201-1.223c0.189-0.26,0.529-0.83,0.889-1.567h-2.92v-1.841h3.801
	c0.354-0.771,0.66-1.579,0.91-2.392l2.23,0.562c-0.25,0.617-0.531,1.22-0.811,1.829h7.6v1.841h-8.551
	c-0.539,0.96-1.1,1.89-1.66,2.688h3.221v-2.08h2.041v2.08h3.91v1.812h-3.91v1.76h5.27v1.859H84.52L84.52,44.115z"/>
<path fill="#FFFFFF" d="M12.92,60.486c-0.22-0.56-0.51-1.22-0.89-1.897c-0.75,1.49-1.63,2.75-2.68,3.76
	c-0.29-0.43-0.91-1.12-1.39-1.46c1.15-0.99,2.11-2.51,2.87-4.35c-0.77-1.2-1.6-2.421-2.39-3.473l1.39-0.988
	c0.56,0.738,1.15,1.54,1.74,2.368c0.34-1.118,0.61-2.31,0.8-3.52H8.42v-1.811h4.42l0.34-0.079l1.21,0.38
	c-0.27,2.63-0.75,4.979-1.48,7.027c0.69,1.04,1.23,2.062,1.58,2.882L12.92,60.486z M21.19,61.206c0.37,0,0.46-0.46,0.51-2.513
	c0.43,0.303,1.04,0.562,1.47,0.672c-0.16,2.479-0.41,3.229-2.01,3.229h-1.01c-1.25,0-1.77-0.38-1.77-1.729v-1.972
	c-0.77,1.51-1.99,2.91-3.97,3.95c-0.21-0.38-0.83-1.09-1.18-1.36c4.04-2.107,4.49-5.277,4.49-7.71v-2.51h1.79v2.55
	c0,0.99-0.1,2.15-0.41,3.312h1.05v3.54c0,0.42,0.11,0.54,0.4,0.54H21.19L21.19,61.206z M16.64,57.126h-1.8v-8.48h7.65v8.48h-1.87
	v-6.82h-3.97v6.82H16.64z"/>
<path fill="#FFFFFF" d="M37.22,52.596c-0.35,2.45-0.89,4.47-1.82,6.13c0.8,1.062,1.79,1.892,3.02,2.45
	c-0.4,0.39-0.99,1.12-1.26,1.63c-1.16-0.61-2.12-1.41-2.9-2.42c-0.85,1.01-1.91,1.83-3.22,2.5c-0.17-0.45-0.72-1.31-1.07-1.71
	l0.08-0.03c-2.31,0.37-4.69,0.722-6.46,0.98l-0.27-1.92c0.81-0.103,1.82-0.21,2.91-0.353v-1.897h-2.41v-1.71h2.41v-1.473h1.9v1.473
	h2.39v1.71h-2.39v1.647c0.86-0.107,1.76-0.238,2.6-0.37l0.08,1.521c0.97-0.54,1.74-1.23,2.36-2.05
	c-0.54-1.021-0.97-2.183-1.31-3.433c-0.25,0.4-0.51,0.771-0.78,1.12c-0.3-0.37-0.99-1.12-1.42-1.46
	c0.16-0.188,0.32-0.397,0.46-0.607l-0.85,0.43c-0.06-0.18-0.14-0.37-0.24-0.59c-3.86,0.34-4.53,0.43-4.98,0.607
	c-0.1-0.369-0.38-1.229-0.59-1.71c0.26-0.08,0.5-0.317,0.75-0.688c0.18-0.261,0.62-0.99,1-1.86h-1.72v-1.729h7.26v1.729h-3.51
	c-0.37,0.78-0.85,1.59-1.31,2.271l2.31-0.143c-0.21-0.397-0.43-0.778-0.64-1.12l1.44-0.67c0.5,0.83,1.15,1.91,1.55,2.71
	c0.86-1.567,1.47-3.567,1.8-5.67l1.9,0.32c-0.18,0.899-0.38,1.78-0.62,2.63h4.47v1.76h-0.92V52.596z M33,52.826
	c0.29,1.43,0.69,2.75,1.25,3.938c0.5-1.18,0.83-2.58,1.02-4.18H33.1L33,52.826z"/>
<path fill="#FFFFFF" d="M38.4,60.046l1.1-1.49c0.7,0.69,1.56,1.22,2.63,1.22c1.2,0,2.01-0.59,2.01-1.647
	c0-1.17-0.69-1.893-3.26-1.893v-1.697c2.17,0,2.87-0.75,2.87-1.812c0-0.93-0.57-1.47-1.58-1.49c-0.85,0.021-1.53,0.422-2.23,1.062
	l-1.2-1.44c1.02-0.897,2.15-1.46,3.54-1.46c2.28,0,3.83,1.12,3.83,3.15c0,1.28-0.72,2.21-1.98,2.71v0.08
	c1.34,0.37,2.36,1.357,2.36,2.91c0,2.18-1.9,3.438-4.15,3.438C40.49,61.696,39.23,60.996,38.4,60.046z"/>
<path fill="#FFFFFF" d="M61.738,60.226v1.892H47.5v-1.892h3.689c0.271-1.3,0.56-2.8,0.83-4.37H49.31v-1.87h2.999
	c0.143-0.907,0.271-1.84,0.381-2.72h-4.278v-1.89h12.29v1.89h-5.91c-0.131,0.88-0.271,1.812-0.41,2.72h2.949l0.342-0.06l1.521,0.11
	c-0.102,1.869-0.301,4.13-0.531,6.188L61.738,60.226L61.738,60.226z M54.09,55.856c-0.271,1.58-0.541,3.09-0.801,4.37h3.34
	c0.16-1.46,0.301-3.06,0.4-4.37H54.09z"/>
<path fill="#FFFFFF" d="M63.068,51.426h1.951v11.41h-1.951V51.426z M65.01,47.806c0.799,0.91,1.879,2.16,2.379,2.99l-1.58,1.12
	c-0.43-0.853-1.449-2.183-2.25-3.12L65.01,47.806z M76.469,60.696c0,1.062-0.24,1.54-0.91,1.843c-0.648,0.3-1.68,0.34-3.16,0.317
	c-0.08-0.51-0.35-1.31-0.619-1.79c0.934,0.052,2.029,0.052,2.33,0.03c0.32,0,0.432-0.1,0.432-0.42v-10.41h-6.962v-1.82h8.892v12.25
	H76.469z"/>
<path fill="#FFFFFF" d="M83.229,55.586v7.24H81.51v-5.553h-1.451c-0.129,2.08-0.49,4.183-1.369,5.683
	c-0.301-0.353-0.939-0.933-1.318-1.183c0.932-1.938,1.039-4.987,1.039-7.25v-6.18h1.738v3.79h1.09v-4.21h1.713v4.21h1.102v1.68
	h-3.894v0.7c0,0.34,0,0.7-0.021,1.07L83.229,55.586L83.229,55.586z M91.988,52.546c-0.299,2.8-0.969,5.04-1.979,6.79
	c0.671,0.87,1.472,1.59,2.382,2.08c-0.41,0.34-0.972,1.02-1.279,1.52c-0.829-0.54-1.562-1.25-2.188-2.06
	c-0.7,0.83-1.551,1.52-2.512,2.06c-0.22-0.42-0.642-1.02-0.988-1.42c-0.19,0.562-0.409,1.062-0.7,1.521
	c-0.33-0.32-1.05-0.83-1.5-1.062c1.17-2.108,1.311-5.46,1.311-7.729v-5.36c2.33-0.16,4.921-0.479,6.66-0.88l1.05,1.66
	c-1.72,0.39-3.88,0.63-5.897,0.75v1.897h4.211l0.299-0.06L91.988,52.546z M87.908,59.206c-0.67-1.28-1.16-2.75-1.561-4.353
	c-0.029,2.021-0.189,4.42-0.83,6.4C86.439,60.776,87.219,60.066,87.908,59.206z M87.629,54.046c0.301,1.25,0.73,2.43,1.26,3.51
	c0.5-1.02,0.881-2.21,1.131-3.5h-2.391V54.046z"/>
<path fill="#FFFFFF" d="M39.38,71.636c0,2.37-0.46,5.312-3.14,7.141c-0.21-0.317-0.69-0.817-1.02-1.09
	c2.51-1.471,2.7-4.107,2.7-6.051v-4.29h1.47v4.29H39.38z M49.79,67.186c-0.18,7.312-0.32,9.893-0.89,10.71
	c-0.38,0.58-0.77,0.75-1.36,0.86c-0.51,0.101-1.32,0.08-2.12,0.06c-0.02-0.539-0.25-1.356-0.59-1.896c0.78,0.06,1.5,0.06,1.85,0.06
	c0.27,0,0.43-0.05,0.59-0.289c0.18-0.211,0.3-0.738,0.4-1.729l-1.34,0.5c-0.03-0.24-0.1-0.5-0.16-0.78
	c-2.78,0.61-3.3,0.78-3.64,0.99c-0.1-0.34-0.35-1.12-0.56-1.57c0.27-0.08,0.5-0.42,0.72-0.93c0.24-0.479,0.94-2.4,1.25-4.15
	l1.71,0.48c-0.35,1.38-0.91,2.85-1.5,4.066l1.68-0.316c-0.14-0.58-0.3-1.15-0.48-1.66l1.29-0.431c0.43,1.148,0.88,2.658,1.05,3.631
	c0.13-1.394,0.21-3.521,0.27-6.75h-3.93c-0.38,0.88-0.83,1.699-1.28,2.317c-0.27-0.26-0.81-0.72-1.25-1.04v5.15h-1.48v-7.972h-2.84
	v8.066h-1.42v-9.76h5.75v4.03c0.86-1.261,1.56-3.12,1.98-4.91l1.82,0.399c-0.17,0.671-0.37,1.328-0.59,1.979h5.08v0.88h-0.01V67.186
	z M39.99,74.846c0.77,0.853,1.79,2.03,2.28,2.79l-1.31,0.99c-0.45-0.74-1.45-1.98-2.22-2.9L39.99,74.846z"/>
<path fill="#FFFFFF" d="M58.779,73.985c-0.939,2.383-2.951,3.974-7.312,4.883c-0.158-0.479-0.619-1.182-0.959-1.579
	c3.479-0.671,5.271-1.71,6.209-3.304h-5.838v-1.736h6.499c0.34-1.393,0.369-3.07,0.431-5.07h1.899c-0.062,1.92-0.131,3.6-0.41,5.07
	h5.632v1.75h-6.15V73.985L58.779,73.985z M54.229,72.206c-0.639-0.513-1.959-1.23-2.949-1.683l1.021-1.26
	c0.988,0.4,2.33,1.04,3.027,1.54L54.229,72.206z M61.299,68.446c0.34-0.51,0.73-1.18,1.07-1.89H51.52v-1.78h11.489v-0.01h0.341
	l0.299-0.108l1.44,0.578c-0.642,1.41-1.471,2.96-2.229,3.973L61.299,68.446z M56.238,70.115c-0.67-0.529-2.09-1.312-3.139-1.812
	l1.02-1.26c1.039,0.397,2.49,1.14,3.209,1.647L56.238,70.115z M59.129,74.646c2.141,0.78,4.471,1.894,5.811,2.74l-1.229,1.471
	c-1.262-0.881-3.451-2.021-5.541-2.83L59.129,74.646z"/>
<path fill="#FFFFFF" d="M49.89,92.115h-5.27v2.75h-2.04v-2.75h-7.07v-1.859h7.07v-1.76H39.2c-0.85,0-1.68,0.1-1.83,0.236
	c-0.1-0.396-0.45-1.39-0.69-1.946c0.42-0.134,0.73-0.53,1.2-1.224c0.19-0.26,0.53-0.83,0.89-1.566h-2.93v-1.844h3.8
	c0.35-0.77,0.66-1.577,0.91-2.379l2.23,0.562c-0.25,0.63-0.53,1.22-0.81,1.83h7.6v1.84h-8.55c-0.54,0.96-1.1,1.89-1.66,2.688h3.22
	v-2.078h2.04v2.078h3.91v1.812h-3.91v1.76h5.27V92.115z"/>
<path fill="#FFFFFF" d="M65.039,92.496v1.869h-14.29v-1.869h6.069v-3.094H52.27v-1.84h4.549v-2.769H51.43v-1.859h6.379
	c-0.67-0.66-1.629-1.391-2.391-1.951l1.561-1.09c1.02,0.66,2.391,1.684,3.061,2.42l-0.85,0.621h5.059v1.859h-5.35v2.77h4.58v1.842
	h-4.58v3.091H65.039L65.039,92.496z"/>
<path fill="#FFFFFF" d="M34.08,98.046c-1.47,1.569-3.49,3.27-5.49,4.45v6.18c0,1.09-0.25,1.601-1.04,1.89
	c-0.8,0.291-1.93,0.342-3.46,0.32c-0.1-0.56-0.46-1.41-0.77-1.92c1.13,0.05,2.44,0.03,2.79,0.03s0.48-0.104,0.48-0.37v-7.09
	c1.25-0.66,2.62-1.683,3.67-2.62h-9.21v-1.87h11.08l0.42-0.109L34.08,98.046z"/>
<path fill="#FFFFFF" d="M50.11,108.166h-2.38v2.688h-1.8v-2.688h-3.02v-1.63h3.02v-1.44h-1.5c-0.21,0.46-0.43,0.9-0.65,1.25
	c-0.3-0.21-0.94-0.54-1.32-0.72v3.3c0,0.689-0.1,1.17-0.49,1.439c-0.4,0.287-0.89,0.318-1.6,0.318
	c-0.05-0.381-0.19-0.938-0.37-1.381v0.58h-1.25v-2.699H37.7c-0.18,1.359-0.53,2.719-1.2,3.75c-0.29-0.24-0.99-0.688-1.34-0.857
	c1.07-1.65,1.15-4.021,1.15-5.812v-2.41c-0.33-0.317-0.91-0.801-1.25-1.021c1.09-1.17,1.93-3.021,2.36-4.91l1.69,0.371
	c-0.1,0.37-0.21,0.75-0.33,1.12h1.74l0.26-0.08l1.12,0.7c-0.22,0.606-0.54,1.35-0.88,1.979h1.44v1.021
	c1.37-0.61,1.87-1.57,2.09-2.75h-1.8v-1.554h7.01c0,0-0.02,0.4-0.03,0.61c-0.08,2.55-0.22,3.67-0.56,4.07
	c-0.27,0.34-0.56,0.46-0.97,0.527c-0.35,0.053-0.96,0.062-1.61,0.053c-0.03-0.5-0.19-1.12-0.43-1.54c0.51,0.05,0.93,0.06,1.13,0.06
	c0.2,0,0.34-0.03,0.45-0.18c0.14-0.184,0.22-0.723,0.29-2.05h-1.77c-0.25,1.67-0.86,2.987-2.46,3.907l1.41,0.289
	c-0.05,0.32-0.13,0.67-0.22,1.014h0.96v-1.28h1.8v1.28h2.04v1.6h-2.06v1.44h2.38V108.166z M38.23,98.846
	c-0.18,0.42-0.37,0.78-0.56,1.17h1.69c0.14-0.35,0.3-0.75,0.45-1.17H38.23z M38.74,105.776v-1.63h-0.88v0.104
	c0,0.479-0.02,0.986-0.05,1.54h0.93V105.776z M37.87,102.786h0.88v-1.384h-0.88V102.786z M40.9,102.786v-1.384h-0.91v1.384H40.9z
	 M39.99,104.146v1.631h0.91v-1.631H39.99z M39.99,109.076c0.34,0.02,0.62,0.02,0.72,0.02c0.14,0,0.19-0.05,0.19-0.21v-1.71h-0.91
	V109.076z M42.45,105.536c0.57-0.853,0.97-2.062,1.2-3.271c-0.11,0.05-0.22,0.11-0.33,0.16c-0.16-0.37-0.51-0.899-0.86-1.2v4.312
	L42.45,105.536L42.45,105.536z"/>
<path fill="#FFFFFF" d="M55.139,108.485c-0.219-0.56-0.51-1.22-0.891-1.896c-0.75,1.49-1.629,2.75-2.68,3.76
	c-0.289-0.43-0.91-1.12-1.39-1.46c1.147-0.99,2.108-2.51,2.87-4.35c-0.771-1.2-1.603-2.421-2.39-3.474l1.39-0.986
	c0.562,0.736,1.147,1.539,1.738,2.367c0.342-1.117,0.608-2.311,0.801-3.521h-3.938v-1.811h4.42l0.34-0.079l1.211,0.38
	c-0.27,2.63-0.75,4.979-1.479,7.027c0.688,1.039,1.229,2.062,1.58,2.882L55.139,108.485z M63.408,109.206
	c0.371,0,0.461-0.46,0.512-2.513c0.43,0.303,1.039,0.562,1.469,0.672c-0.16,2.479-0.41,3.229-2.01,3.229h-1.01
	c-1.25,0-1.771-0.38-1.771-1.729v-1.972c-0.771,1.512-1.988,2.91-3.969,3.95c-0.211-0.38-0.83-1.09-1.182-1.36
	c4.039-2.106,4.49-5.276,4.49-7.709v-2.511h1.789v2.55c0,0.99-0.102,2.15-0.41,3.312h1.053v3.54c0,0.42,0.109,0.54,0.398,0.54
	H63.408L63.408,109.206z M58.859,105.126h-1.801v-8.48h7.65v8.48H62.84v-6.82h-3.971v6.82H58.859z"/>
<path fill="#FFFFFF" d="M79.439,100.596c-0.352,2.45-0.893,4.47-1.82,6.13c0.801,1.062,1.789,1.893,3.021,2.45
	c-0.4,0.38-0.99,1.12-1.262,1.63c-1.158-0.607-2.121-1.41-2.898-2.42c-0.852,1.01-1.91,1.83-3.223,2.5
	c-0.17-0.449-0.721-1.31-1.066-1.71l0.078-0.03c-2.311,0.37-4.689,0.723-6.459,0.98l-0.271-1.92c0.811-0.103,1.82-0.21,2.91-0.353
	v-1.897h-2.41v-1.71h2.41v-1.473h1.9v1.473h2.389v1.71H70.35v1.647c0.857-0.107,1.76-0.238,2.6-0.371l0.08,1.521
	c0.969-0.54,1.74-1.229,2.359-2.05c-0.539-1.021-0.971-2.183-1.312-3.433c-0.25,0.399-0.512,0.771-0.779,1.119
	c-0.301-0.369-0.988-1.119-1.42-1.459c0.16-0.188,0.318-0.397,0.461-0.607l-0.854,0.43c-0.061-0.18-0.141-0.37-0.238-0.59
	c-3.857,0.34-4.529,0.43-4.979,0.607c-0.101-0.371-0.381-1.229-0.59-1.711c0.26-0.08,0.5-0.316,0.75-0.688
	c0.18-0.262,0.618-0.99,1-1.86h-1.719v-1.729h7.26v1.729h-3.51c-0.369,0.79-0.85,1.591-1.311,2.271l2.311-0.14
	c-0.211-0.396-0.43-0.777-0.641-1.119l1.438-0.67c0.5,0.83,1.146,1.899,1.553,2.709c0.857-1.566,1.471-3.566,1.801-5.67l1.896,0.32
	c-0.182,0.899-0.379,1.78-0.617,2.63h4.471v1.761h-0.92V100.596L79.439,100.596z M75.219,100.836c0.291,1.43,0.689,2.75,1.25,3.938
	c0.5-1.181,0.83-2.58,1.02-4.181h-2.17L75.219,100.836z"/>
<path fill="#FFFFFF" d="M49.89,124.115h-5.27v2.75h-2.04v-2.75h-7.07v-1.859h7.07v-1.76H39.2c-0.85,0-1.68,0.1-1.83,0.236
	c-0.1-0.396-0.45-1.39-0.69-1.946c0.42-0.134,0.73-0.53,1.2-1.224c0.19-0.26,0.53-0.83,0.89-1.566h-2.93v-1.844h3.8
	c0.35-0.77,0.66-1.577,0.91-2.379l2.23,0.562c-0.25,0.63-0.53,1.22-0.81,1.83h7.6v1.84h-8.55c-0.54,0.96-1.1,1.89-1.66,2.688h3.22
	v-2.078h2.04v2.078h3.91v1.812h-3.91v1.76h5.27V124.115z"/>
<path fill="#FFFFFF" d="M65.02,124.596v1.761H50.641v-1.761h6.238v-1.28h-4.631v-1.729h4.611v-1.01h-1.18v-3.07h-1.471
	c-0.25,1.31-0.93,2.63-2.51,3.51c-0.24-0.35-0.911-1.067-1.25-1.329c1.179-0.607,1.708-1.381,1.949-2.181h-1.609v-1.68h1.8v-1.684
	h-1.262v-1.66h7.25v1.66h-1.128v1.684h1.5v1.68h-1.5v2.8h1.369v1.28h4.607v1.729h-4.607v1.28H65.02z M55.68,115.826v-1.683h-1.34
	v1.684L55.68,115.826L55.68,115.826z M61.369,118.235h-1.74v-5.406h1.74V118.235z M64.328,118.926c0,0.88-0.158,1.33-0.77,1.601
	c-0.57,0.263-1.393,0.312-2.512,0.312c-0.08-0.5-0.33-1.221-0.562-1.682c0.722,0.029,1.479,0.029,1.722,0.021
	c0.221-0.021,0.301-0.061,0.301-0.271v-6.801h1.802v6.819H64.328z"/>
<path fill="#FFFFFF" d="M43.986,12.258l1.117-1.544c0.691,0.672,1.545,1.23,2.68,1.23c1.265,0,2.154-0.804,2.154-2.234
	c0-1.415-0.822-2.203-2.054-2.203c-0.723,0-1.118,0.18-1.823,0.642l-1.101-0.724l0.328-5.899h6.507v2.021h-4.419l-0.229,2.58
	c0.478-0.23,0.904-0.344,1.462-0.344c2.039,0,3.746,1.215,3.746,3.86c0,2.711-2.003,4.271-4.254,4.271
	C46.17,13.918,44.889,13.163,43.986,12.258z"/>
</svg>
