<svg xmlns="http://www.w3.org/2000/svg" xmlns:xlink="http://www.w3.org/1999/xlink" version="1.1" id="Layer_1" x="0" y="0" width="100" height="112" viewBox="0 0 100 112" enable-background="new 0 0 100 112" xml:space="preserve">
  <path fill="#FFFFFF" d="M5.41 13.19C5.19 12.63 4.9 11.97 4.52 11.28c-0.75 1.49-1.63 2.75-2.68 3.76 -0.29-0.43-0.91-1.12-1.390A00A73A25"/>
  <path fill="#FFFFFF" d="M29.71 5.3c-0.35 2.45-0.89 4.47-1.82 6.13 0.8 1.06 1.79 1.89 3.02 2.45 -0.4 0.39-0.99 1.12-1.26 1.630E3767EA1A"/>
  <path fill="#FFFFFF" d="M30.89 12.75l1.1-1.49c0.7 0.69 1.56 1.22 2.63 1.22 1.2 0 2.01-0.59 2.01-1.65 0-1.17-0.69-1.89-3.26-10348BF4A4F"/>
  <path fill="#FFFFFF" d="M54.61 2.3c-0.57 1.54-1.28 3.35-1.93 4.75 1.36 1.43 1.63 2.69 1.63 3.71 0 1.2-0.25 1.98-0.89 2.4 -0.0812354AC6"/>
  <path fill="#FFFFFF" d="M63.17 4.64v1.79h5.14v5.39c0 0.94-0.19 1.47-0.86 1.76 -0.65 0.31-1.58 0.32-2.81 0.32 -0.08-0.56-0.370595D3FA8A"/>
  <path fill="#FFFFFF" d="M70.08 12.67l1.36-1.63c0.85 0.78 1.96 1.31 3 1.31 1.23 0 1.88-0.53 1.88-1.36 0-0.88-0.72-1.15-1.77-1065325DA90"/>
  <path fill="#FFFFFF" d="M79.97 8.85V2.33h2.36v6.72c0 2.47 0.85 3.3 2.23 3.3 1.4 0 2.3-0.83 2.3-3.3V2.33h2.27v6.52c0 3.94-1.68 5.55-4.56 5.55C81.69 14.4 79.97 12.79 79.97 8.85z"/>
  <path fill="#FFFFFF" d="M89.51 2.33h2.47l1.56 5.76c0.37 1.31 0.61 2.5 0.99 3.83h0.08c0.37-1.33 0.64-2.51 1-3.83l1.53-5.76h2.39L95.93 14.18h-2.81L89.51 2.33z"/>
  <path fill="#FFFFFF" d="M20.03 29.19c-0.22-0.56-0.51-1.22-0.89-1.9 -0.75 1.49-1.63 2.75-2.68 3.76 -0.29-0.43-0.91-1.12-1.39-0D058F2A79"/>
  <path fill="#FFFFFF" d="M44.33 21.3c-0.35 2.45-0.89 4.47-1.82 6.13 0.8 1.06 1.79 1.89 3.02 2.45 -0.4 0.39-0.99 1.12-1.26 1.60D57702AFE"/>
  <path fill="#FFFFFF" d="M45.52 28.75l1.1-1.49c0.7 0.69 1.56 1.22 2.63 1.22 1.2 0 2.01-0.59 2.01-1.65 0-1.17-0.69-1.89-3.26-1057027AA47"/>
  <path fill="#FFFFFF" d="M67.14 22.29c0.59 0.86 1.4 1.71 2.22 2.21 -0.38 0.31-0.96 0.94-1.21 1.38 -0.27-0.19-0.54-0.43-0.8-0.09E94F2AA4"/>
  <path fill="#FFFFFF" d="M84.05 28.82h-5.27v2.75H76.74v-2.75h-7.07v-1.86h7.07V25.2h-3.38c-0.85 0-1.68 0.1-1.83 0.24 -0.1-0.4-0029D21A19"/>
  <path fill="#FFFFFF" d="M12.45 45.19c-0.22-0.56-0.51-1.22-0.89-1.9 -0.75 1.49-1.63 2.75-2.68 3.76 -0.29-0.43-0.91-1.12-1.39-00E1EE5AAA"/>
  <path fill="#FFFFFF" d="M36.75 37.3c-0.35 2.45-0.89 4.47-1.82 6.13 0.8 1.06 1.79 1.89 3.02 2.45 -0.4 0.39-0.99 1.12-1.26 1.60B87F88A1D"/>
  <path fill="#FFFFFF" d="M37.93 44.75l1.1-1.49c0.7 0.69 1.56 1.22 2.63 1.22 1.2 0 2.01-0.59 2.01-1.65 0-1.17-0.69-1.89-3.26-1002DDE7A4A"/>
  <path fill="#FFFFFF" d="M61.27 44.93v1.89H47.03V44.93h3.69c0.27-1.3 0.56-2.8 0.83-4.37h-2.71v-1.87h3c0.14-0.91 0.27-1.84 0.30633EBCA69"/>
  <path fill="#FFFFFF" d="M62.6 36.13h1.95v11.41h-1.95V36.13zM64.54 32.51c0.8 0.91 1.88 2.16 2.38 2.99l-1.58 1.12c-0.43-0.85-10FD6C1AA09"/>
  <path fill="#FFFFFF" d="M82.76 40.29v7.24h-1.72v-5.55h-1.45c-0.13 2.08-0.49 4.18-1.37 5.68 -0.3-0.35-0.94-0.93-1.32-1.18 0.90324D16A5E"/>
  <path fill="#FFFFFF" d="M38.91 56.34c0 2.37-0.46 5.31-3.14 7.14 -0.21-0.32-0.69-0.82-1.02-1.09 2.51-1.47 2.7-4.11 2.7-6.05v-05E4A49AB1"/>
  <path fill="#FFFFFF" d="M58.31 58.69c-0.94 2.38-2.95 3.97-7.31 4.88 -0.16-0.48-0.62-1.18-0.96-1.58 3.48-0.67 5.27-1.71 6.21-0EAE352AF1"/>
  <path fill="#FFFFFF" d="M49.42 76.82h-5.27v2.75h-2.04v-2.75h-7.07v-1.86h7.07v-1.76h-3.38c-0.85 0-1.68 0.1-1.83 0.24 -0.1-0.401B33DCA52"/>
  <path fill="#FFFFFF" d="M64.57 77.2v1.87H50.28v-1.87h6.07v-3.09h-4.55v-1.84h4.55v-2.77h-5.39v-1.86h6.38c-0.67-0.66-1.63-1.390FCAB34A36"/>
  <path fill="#FFFFFF" d="M33.61 82.75c-1.47 1.57-3.49 3.27-5.49 4.45v6.18c0 1.09-0.25 1.6-1.04 1.89 -0.8 0.29-1.93 0.34-3.46 0338105A4B"/>
  <path fill="#FFFFFF" d="M49.64 92.87H47.26v2.69h-1.8v-2.69h-3.02v-1.63h3.02v-1.44h-1.5c-0.21 0.46-0.43 0.9-0.65 1.25 -0.3-0.0B75BD1A47"/>
  <path fill="#FFFFFF" d="M54.67 93.19c-0.22-0.56-0.51-1.22-0.89-1.9 -0.75 1.49-1.63 2.75-2.68 3.76 -0.29-0.43-0.91-1.12-1.39-080E3E7A18"/>
  <path fill="#FFFFFF" d="M78.97 85.3c-0.35 2.45-0.89 4.47-1.82 6.13 0.8 1.06 1.79 1.89 3.02 2.45 -0.4 0.38-0.99 1.12-1.26 1.604893E2A13"/>
  <path fill="#FFFFFF" d="M49.42 108.82h-5.27v2.75h-2.04v-2.75h-7.07v-1.86h7.07v-1.76h-3.38c-0.85 0-1.68 0.1-1.83 0.24 -0.1-0.0E8821AAB2"/>
  <path fill="#FFFFFF" d="M64.55 109.3v1.76h-14.38v-1.76h6.24v-1.28h-4.63v-1.73h4.61v-1.01h-1.18v-3.07h-1.47c-0.25 1.31-0.93 2068EB8CAE2"/>
</svg>
