<?xml version="1.0" encoding="utf-8"?>
<!-- Generator: Adobe Illustrator 16.0.0, SVG Export Plug-In . SVG Version: 6.00 Build 0)  -->
<!DOCTYPE svg PUBLIC "-//W3C//DTD SVG 1.1//EN" "http://www.w3.org/Graphics/SVG/1.1/DTD/svg11.dtd">
<svg version="1.1" id="Layer_1" xmlns="http://www.w3.org/2000/svg" xmlns:xlink="http://www.w3.org/1999/xlink" x="0px" y="0px"
	 width="80px" height="160px" viewBox="0 0 80 160" enable-background="new 0 0 80 160" xml:space="preserve">
<g>
	<path fill="#FFFFFF" d="M60.232,66.309l5.518-5.518l-9.271-9.174c2.873-3.812,4.578-8.527,4.578-13.665
		c0-12.522-10.143-22.66-22.648-22.66c-12.512,0-22.658,10.138-22.658,22.66c0,12.502,10.146,22.651,22.658,22.651
		c4.562,0,8.801-1.363,12.359-3.674L60.232,66.309z M38.408,52.223c-7.889,0-14.277-6.385-14.277-14.27
		c0-7.884,6.389-14.267,14.277-14.267c7.879,0,14.266,6.383,14.266,14.267C52.674,45.838,46.287,52.223,38.408,52.223z"/>
</g>
<g>
	<path d="M60.53,146.309l5.518-5.518l-9.271-9.174c2.873-3.812,4.578-8.527,4.578-13.664c0-12.523-10.143-22.66-22.648-22.66
		c-12.512,0-22.658,10.137-22.658,22.66c0,12.5,10.146,22.648,22.658,22.648c4.562,0,8.801-1.361,12.359-3.672L60.53,146.309z
		 M38.706,132.223c-7.889,0-14.277-6.385-14.277-14.27s6.389-14.268,14.277-14.268c7.879,0,14.266,6.383,14.266,14.268
		S46.585,132.223,38.706,132.223z"/>
</g>
</svg>
