<svg xmlns="http://www.w3.org/2000/svg" xmlns:xlink="http://www.w3.org/1999/xlink" version="1.1" x="0px" y="0px" width="150px" height="150px" viewBox="0 0 150 150" enable-background="new 0 0 150 150" xml:space="preserve"><style>.style0{fill:	#FFFFFF;}</style><circle cx="75" cy="75" r="75" class="style0"/><g><g><path d="M110.665 48.492c-2.941 0-5.334-2.393-5.334-5.333c0-2.94 2.393-5.333 5.334-5.333s5.332 2.4 5.3 5.3 C115.997 46.1 113.6 48.5 110.7 48.492z M110.665 39.603c-1.961 0-3.557 1.595-3.557 3.6 c0 2 1.6 3.6 3.6 3.556c1.959 0 3.555-1.595 3.555-3.556C114.22 41.2 112.6 39.6 110.7 39.603z"/></g><g><path d="M44.233 83.276c4.149-1.014 5.51-1.972 5.51-5.658V71.22c0-2.017-1.292-3.162-3.4-2.646 c-2.45 0.598-3.401 2.848-3.401 4.309v4.033l-6.938 1.695v-4.104c0-5.842 4.762-11.665 10.476-13.061 c3.741-0.914 6.3 0.4 7.5 1.633c1.837 1.8 2.7 3.5 2.7 9.854c0 6.815-0.341 8.012-4.286 11.4 c4.286 1.7 4.3 3.3 4.3 10.289c0 6.538-0.409 8.098-1.837 10.603c-1.701 2.989-4.354 5.584-8.571 6.6 c-4.422 1.08-10.271-0.272-10.271-8.062v-4.034l6.938-1.695v3.688c0 2.2 1.3 3.5 3.4 3 c2.108-0.516 3.4-2.361 3.4-4.795V92.85c0-3.825-1.021-4.409-5.51-3.313V83.276z"/><path d="M70.216 76.861l0.136 0.105c0.477-0.464 1.429-0.975 2.926-1.341c2.448-0.598 4.7 0.2 5.8 1.8 c1.225 1.6 1.5 3.3 1.5 11.179c0 6.469-0.272 7.926-1.565 10.468c-1.769 3.492-4.966 6.012-8.774 6.9 c-3.741 0.914-6.87-0.13-8.707-2.672c-1.36-1.894-1.633-3.218-1.633-9.687c0-6.12 0.34-7.594 1.292-10.469l9.115-27.126 l7.756-1.894L70.216 76.861z M73.686 85.333c0-2.156-1.633-3.147-3.401-2.716c-1.77 0.433-3.401 2.222-3.401 4.378v9.181 c0 2.2 1.6 3.1 3.4 2.716c1.769-0.432 3.401-2.221 3.401-4.377V85.333z"/><path d="M83.886 62.95c0-6.605 4.829-11.82 10.34-13.166c5.51-1.346 10.3 1.5 10.3 8.116v29.072 c0 6.607-4.829 11.819-10.339 13.165c-5.511 1.346-10.34-1.508-10.34-8.115V62.95z M90.824 90.3 c0 2 1.4 3.2 3.4 2.716c1.972-0.481 3.4-2.36 3.4-4.377V59.595c0-2.017-1.429-3.198-3.4-2.717 c-1.974 0.482-3.401 2.361-3.401 4.378V90.328z"/></g></g></svg>