<?xml version="1.0" encoding="utf-8"?>
<!-- Generator: Adobe Illustrator 16.0.0, SVG Export Plug-In . SVG Version: 6.00 Build 0)  -->
<!DOCTYPE svg PUBLIC "-//W3C//DTD SVG 1.1//EN" "http://www.w3.org/Graphics/SVG/1.1/DTD/svg11.dtd">
<svg version="1.1" id="Layer_1" xmlns="http://www.w3.org/2000/svg" xmlns:xlink="http://www.w3.org/1999/xlink" x="0px" y="0px"
	 width="80px" height="80px" viewBox="0 0 80 80" enable-background="new 0 0 80 80" xml:space="preserve">
<g>
	<path fill="#FFFFFF" d="M60.232,66.309l5.518-5.518l-9.271-9.174c2.873-3.812,4.578-8.527,4.578-13.664
		c0-12.522-10.143-22.66-22.649-22.66c-12.511,0-22.657,10.138-22.657,22.66c0,12.5,10.146,22.648,22.657,22.648
		c4.563,0,8.802-1.361,12.36-3.672L60.232,66.309z M38.407,52.223c-7.888,0-14.276-6.385-14.276-14.27s6.389-14.267,14.276-14.267
		c7.88,0,14.267,6.382,14.267,14.267S46.287,52.223,38.407,52.223z"/>
</g>
</svg>
