<svg xmlns="http://www.w3.org/2000/svg" xmlns:xlink="http://www.w3.org/1999/xlink" version="1.1" id="Layer_1" x="0" y="0" width="40" height="280" viewBox="0 0 40 280" enable-background="new 0 0 40 280" xml:space="preserve">
  <path fill="none" d="M24.55 60.01c-0.24-0.07-0.41-0.12-0.28-0.44 0.27-0.69 0.3-1.29 0-1.71-0.56-0.8-2.08-0.75-3.83-0.02 0 0-0.55 0.24-0.41-0.2 0.27-0.86 0.23-1.59-0.19-2.01-0.95-0.95-3.48 0.04-5.64 2.2-1.62 1.62-2.56 3.34-2.56 4.83 0 2.85 3.65 4.57 7.21 4.57 4.68 0 7.79-2.72 7.79-4.88C26.64 61.06 25.54 60.32 24.55 60.01zM18.86 66.22c-2.85 0.28-5.3-1-5.49-2.87-0.19-1.87 1.97-3.61 4.82-3.89 2.85-0.28 5.31 1.01 5.49 2.87C23.86 64.19 21.7 65.93 18.86 66.22z"/>
  <path fill="none" d="M19.14 60.89c-1.35-0.35-2.89 0.32-3.47 1.52-0.6 1.22-0.02 2.57 1.35 3.01 1.42 0.46 3.09-0.24 3.67-1.56C21.26 62.57 20.54 61.25 19.14 60.89zM18.11 64c-0.28 0.44-0.86 0.63-1.31 0.43-0.44-0.2-0.57-0.71-0.29-1.14 0.27-0.43 0.84-0.62 1.28-0.43C18.24 63.05 18.38 63.55 18.11 64zM19.01 62.83c-0.1 0.17-0.32 0.25-0.49 0.18s-0.22-0.26-0.13-0.43c0.1-0.16 0.31-0.25 0.48-0.18C19.05 62.47 19.11 62.66 19.01 62.83z"/>
  <path fill="none" d="M23.32 53.41c-0.36 0.08-0.58 0.43-0.51 0.78 0.08 0.36 0.43 0.58 0.78 0.51 1.09-0.23 2.28 0.11 3.08 1 0.8 0.89 1.02 2.1 0.68 3.17-0.11 0.35 0.08 0.72 0.42 0.83 0.35 0.11 0.72-0.08 0.83-0.42v0c0.48-1.5 0.18-3.2-0.95-4.45C26.53 53.56 24.86 53.08 23.32 53.41z"/>
  <path fill="none" d="M25.67 58.91c0.3 0.09 0.62-0.07 0.72-0.37 0.23-0.73 0.09-1.56-0.46-2.17-0.55-0.61-1.36-0.84-2.11-0.68-0.31 0.06-0.5 0.37-0.44 0.67 0.07 0.31 0.37 0.5 0.67 0.44 0.37-0.08 0.76 0.03 1.03 0.33 0.27 0.3 0.34 0.71 0.23 1.06C25.21 58.49 25.37 58.81 25.67 58.91z"/>
  <path fill="#CCCCCC" d="M17.79 62.86c-0.44-0.19-1.01 0.01-1.28 0.43-0.28 0.43-0.14 0.94 0.29 1.14 0.44 0.2 1.03 0.01 1.31-0.43C18.38 63.55 18.24 63.05 17.79 62.86z"/>
  <path fill="#CCCCCC" d="M18.19 59.45c-2.85 0.28-5 2.03-4.82 3.9 0.18 1.87 2.64 3.16 5.49 2.87 2.85-0.28 5.01-2.02 4.82-3.89C23.49 60.45 21.04 59.17 18.19 59.45zM20.69 63.86c-0.58 1.31-2.25 2.02-3.67 1.56-1.37-0.44-1.95-1.79-1.35-3.01 0.59-1.19 2.12-1.87 3.48-1.52C20.54 61.25 21.26 62.57 20.69 63.86z"/>
  <path fill="#CCCCCC" d="M18.88 62.4c-0.17-0.07-0.38 0.02-0.48 0.18-0.1 0.17-0.04 0.36 0.13 0.43s0.39-0.01 0.49-0.18C19.11 62.66 19.05 62.47 18.88 62.4z"/>
  <path fill="#CCCCCC" d="M20 45.12c-8.28 0-15 6.72-15 15 0 8.28 6.72 15 15 15 8.29 0 15-6.72 15-15C35 51.84 28.29 45.12 20 45.12zM18.85 67.24c-3.57 0-7.21-1.73-7.21-4.57 0-1.48 0.94-3.2 2.57-4.83 2.16-2.16 4.69-3.15 5.64-2.2 0.42 0.42 0.46 1.15 0.19 2.01-0.14 0.44 0.41 0.2 0.41 0.2 1.75-0.73 3.28-0.78 3.84 0.02 0.3 0.43 0.27 1.02 0 1.71-0.13 0.32 0.04 0.37 0.28 0.44 0.99 0.31 2.08 1.05 2.08 2.35C26.64 64.52 23.52 67.24 18.85 67.24zM25.08 57.13c-0.27-0.3-0.67-0.41-1.03-0.33-0.3 0.07-0.6-0.13-0.67-0.44-0.07-0.31 0.13-0.61 0.44-0.67 0.75-0.16 1.56 0.07 2.11 0.68 0.55 0.61 0.7 1.44 0.46 2.17-0.1 0.3-0.42 0.46-0.71 0.37-0.3-0.1-0.46-0.42-0.36-0.71C25.42 57.84 25.35 57.43 25.08 57.13zM28.61 59.26v0c-0.11 0.35-0.48 0.54-0.83 0.42-0.35-0.11-0.53-0.48-0.42-0.83 0.34-1.06 0.13-2.28-0.68-3.17-0.8-0.89-1.99-1.23-3.08-1-0.35 0.08-0.7-0.15-0.78-0.51-0.08-0.35 0.15-0.71 0.51-0.78 1.54-0.33 3.2 0.15 4.33 1.4C28.79 56.06 29.09 57.77 28.61 59.26z"/>
  <path fill="none" d="M29.1 22.02c0-0.02 0-0.03 0-0.04 0-0.01 0-0.02 0-0.04 0-0.01 0-0.02 0-0.04 0-0.01 0-0.02 0-0.04 0-0.01 0-0.02 0-0.04 0-0.01 0-0.02 0-0.04 0-0.01 0-0.02 0-0.04 0-0.01 0-0.02 0-0.04 0-0.01 0-0.02 0-0.04 0-0.01 0-0.02-0.01-0.04 0-0.01 0-0.02-0.01-0.04 0-0.01 0-0.02-0.01-0.04s0-0.02-0.01-0.04c0-0.01 0-0.02-0.01-0.04 0-0.01 0-0.02-0.01-0.04 0-0.01-0.01-0.02-0.01-0.04 0-0.01 0-0.03-0.01-0.04 0-0.01-0.01-0.02-0.01-0.04 0-0.01-0.01-0.03-0.01-0.04S29 21.25 29 21.24c0-0.01-0.01-0.02-0.01-0.04 0-0.01-0.01-0.03-0.01-0.04 0-0.01-0.01-0.03-0.01-0.04 0-0.01 0-0.02-0.01-0.04 0-0.01-0.01-0.02-0.01-0.04s-0.01-0.02-0.01-0.04c0-0.01-0.01-0.02-0.01-0.04 0-0.02-0.01-0.03-0.01-0.04 0-0.01-0.01-0.03-0.01-0.04-0.01-0.01-0.01-0.02-0.01-0.04-0.01-0.01-0.01-0.02-0.02-0.04-0.01-0.01-0.01-0.02-0.01-0.04-0.01-0.01-0.01-0.02-0.01-0.04-0.01-0.01-0.01-0.02-0.02-0.04 0-0.01-0.01-0.02-0.01-0.04-0.01-0.01-0.01-0.02-0.02-0.04 0-0.01-0.01-0.02-0.02-0.04-0.01-0.01-0.01-0.02-0.02-0.04-0.01-0.01-0.01-0.02-0.02-0.04-0.01-0.01-0.01-0.03-0.02-0.04-0.01-0.01-0.01-0.02-0.02-0.04-0.01-0.02-0.01-0.02-0.02-0.04-0.01-0.01-0.01-0.02-0.02-0.04-0.01-0.01-0.01-0.02-0.02-0.04-0.01-0.01-0.01-0.02-0.02-0.04-0.01-0.01-0.02-0.03-0.02-0.04-0.01-0.01-0.02-0.03-0.02-0.04-0.01-0.01-0.01-0.03-0.02-0.04-0.01-0.01-0.01-0.03-0.02-0.04-0.01-0.01-0.01-0.03-0.02-0.04-0.01-0.01-0.02-0.03-0.02-0.04s-0.02-0.03-0.02-0.04c-0.01-0.01-0.02-0.02-0.02-0.04-0.01-0.01-0.02-0.02-0.02-0.04s-0.02-0.03-0.03-0.04c-0.01-0.01-0.02-0.02-0.02-0.04-0.01-0.01-0.02-0.02-0.03-0.04-0.01-0.02-0.02-0.03-0.03-0.04-0.01-0.01-0.02-0.02-0.03-0.04-0.01-0.02-0.02-0.03-0.03-0.04-0.01-0.01-0.02-0.03-0.03-0.04-0.01-0.01-0.02-0.02-0.03-0.04-0.01-0.01-0.02-0.02-0.03-0.04-0.01-0.01-0.02-0.02-0.03-0.04-0.01-0.01-0.02-0.02-0.03-0.04-0.01-0.01-0.02-0.03-0.03-0.04-0.01-0.01-0.02-0.02-0.03-0.04-0.01-0.01-0.02-0.02-0.04-0.04-0.01-0.01-0.02-0.02-0.03-0.04-0.01-0.02-0.02-0.02-0.04-0.04-0.01-0.01-0.02-0.02-0.04-0.04-0.01-0.01-0.03-0.02-0.04-0.04-0.01-0.01-0.02-0.02-0.04-0.04-0.01-0.01-0.03-0.02-0.04-0.04-0.01-0.01-0.03-0.02-0.04-0.04-0.01-0.01-0.03-0.02-0.04-0.04-0.01-0.01-0.03-0.02-0.04-0.04-0.01-0.01-0.03-0.02-0.04-0.04-0.02-0.01-0.03-0.02-0.04-0.04-0.02-0.01-0.03-0.02-0.04-0.04-0.01-0.01-0.03-0.02-0.04-0.04-0.01-0.01-0.03-0.03-0.04-0.04-0.02-0.01-0.03-0.02-0.05-0.04s-0.03-0.03-0.05-0.04c-0.02-0.01-0.03-0.02-0.05-0.04-0.02-0.01-0.03-0.03-0.05-0.04-0.02-0.01-0.03-0.02-0.05-0.04-0.02-0.01-0.04-0.02-0.05-0.04-0.02-0.01-0.04-0.03-0.05-0.04-0.02-0.01-0.04-0.03-0.05-0.04-0.02-0.01-0.04-0.02-0.06-0.04-0.02-0.01-0.04-0.03-0.06-0.04-0.02-0.02-0.04-0.03-0.06-0.04-0.02-0.01-0.04-0.03-0.06-0.04s-0.04-0.02-0.06-0.04c-0.02-0.01-0.04-0.03-0.07-0.04-0.02-0.01-0.04-0.03-0.07-0.04-0.02-0.01-0.05-0.03-0.07-0.04-0.02-0.01-0.05-0.02-0.07-0.04-0.02-0.01-0.05-0.02-0.07-0.04-0.02-0.01-0.05-0.03-0.08-0.04-0.03-0.01-0.06-0.02-0.08-0.04-0.03-0.01-0.05-0.02-0.08-0.04-0.03-0.01-0.06-0.03-0.09-0.04-0.03-0.01-0.06-0.02-0.09-0.04-0.03-0.01-0.06-0.02-0.09-0.04-0.03-0.01-0.07-0.02-0.1-0.04-0.04-0.02-0.07-0.02-0.1-0.04-0.04-0.01-0.08-0.02-0.11-0.04-0.04-0.01-0.08-0.02-0.12-0.04-0.04-0.01-0.09-0.02-0.13-0.04-0.05-0.01-0.09-0.02-0.14-0.04-0.05-0.02-0.1-0.02-0.16-0.04-0.06-0.01-0.12-0.03-0.18-0.04-0.07-0.01-0.14-0.02-0.21-0.04-0.09-0.02-0.18-0.03-0.27-0.04-0.23-0.02-0.46-0.04-0.69-0.04h-0.03c-0.25 0-0.49 0.02-0.73 0.04-0.1 0.01-0.19 0.02-0.28 0.04-0.07 0.01-0.15 0.03-0.22 0.04-0.06 0.01-0.12 0.03-0.18 0.04-0.06 0.02-0.11 0.02-0.16 0.04-0.05 0.01-0.1 0.03-0.14 0.04-0.04 0.01-0.09 0.03-0.13 0.04-0.04 0.01-0.08 0.03-0.12 0.04-0.04 0.01-0.08 0.03-0.12 0.04-0.03 0.02-0.07 0.03-0.1 0.04-0.03 0.01-0.07 0.02-0.1 0.04-0.03 0.02-0.06 0.03-0.1 0.04-0.03 0.01-0.06 0.03-0.09 0.04-0.03 0.01-0.05 0.03-0.08 0.04-0.03 0.01-0.06 0.03-0.08 0.04-0.03 0.02-0.06 0.03-0.08 0.04-0.03 0.01-0.05 0.03-0.08 0.04-0.02 0.01-0.05 0.03-0.07 0.04-0.02 0.02-0.05 0.03-0.07 0.04-0.02 0.01-0.05 0.03-0.07 0.04-0.02 0.01-0.04 0.03-0.07 0.04-0.02 0.01-0.04 0.03-0.06 0.04-0.02 0.01-0.04 0.02-0.06 0.04s-0.04 0.03-0.06 0.04c-0.02 0.01-0.04 0.02-0.06 0.04-0.02 0.01-0.04 0.03-0.05 0.04-0.02 0.01-0.04 0.03-0.06 0.04-0.02 0.01-0.04 0.03-0.06 0.04-0.02 0.01-0.04 0.03-0.05 0.04-0.02 0.01-0.04 0.03-0.05 0.04-0.02 0.02-0.03 0.03-0.05 0.04-0.02 0.01-0.03 0.03-0.05 0.04s-0.03 0.02-0.05 0.04c-0.01 0.01-0.03 0.03-0.05 0.04-0.01 0.01-0.03 0.03-0.05 0.04-0.02 0.01-0.03 0.03-0.04 0.04-0.02 0.01-0.03 0.03-0.04 0.04-0.02 0.01-0.03 0.03-0.04 0.04-0.02 0.02-0.03 0.03-0.04 0.04s-0.03 0.03-0.04 0.03c-0.01 0.01-0.02 0.03-0.04 0.04-0.01 0.01-0.02 0.03-0.04 0.04-0.01 0.01-0.02 0.03-0.04 0.04-0.01 0.02-0.02 0.03-0.04 0.04-0.01 0.01-0.02 0.03-0.04 0.04-0.01 0.01-0.02 0.03-0.04 0.04-0.01 0.01-0.02 0.03-0.03 0.04-0.01 0.01-0.02 0.03-0.04 0.04s-0.02 0.03-0.03 0.04c-0.01 0.01-0.02 0.03-0.03 0.04-0.01 0.01-0.02 0.03-0.03 0.04-0.01 0.01-0.02 0.03-0.03 0.04-0.01 0.01-0.02 0.03-0.03 0.04-0.01 0.01-0.02 0.03-0.03 0.04-0.01 0.01-0.02 0.03-0.03 0.04-0.01 0.01-0.02 0.02-0.03 0.04s-0.02 0.03-0.03 0.04c-0.01 0.01-0.02 0.03-0.03 0.04-0.01 0.01-0.02 0.03-0.03 0.04-0.01 0.01-0.02 0.03-0.03 0.04-0.01 0.01-0.02 0.03-0.02 0.04s-0.02 0.03-0.02 0.04c-0.01 0.01-0.02 0.03-0.02 0.04-0.01 0.01-0.02 0.02-0.02 0.04-0.01 0.01-0.02 0.03-0.02 0.04-0.01 0.01-0.01 0.03-0.02 0.04-0.01 0.01-0.01 0.03-0.02 0.04-0.01 0.01-0.02 0.03-0.02 0.04-0.01 0.01-0.01 0.03-0.02 0.04-0.01 0.01-0.01 0.03-0.02 0.04-0.01 0.01-0.01 0.03-0.02 0.04-0.01 0.01-0.01 0.03-0.02 0.04s-0.01 0.03-0.02 0.04c-0.01 0.01-0.01 0.02-0.02 0.04-0.01 0.01-0.01 0.02-0.02 0.04-0.01 0.01-0.01 0.03-0.02 0.04-0.01 0.01-0.01 0.03-0.02 0.04 0 0.01-0.01 0.03-0.02 0.04 0 0.01-0.01 0.03-0.02 0.04-0.01 0.02-0.01 0.03-0.02 0.04 0 0.01-0.01 0.03-0.02 0.04s-0.01 0.03-0.02 0.04c0 0.01-0.01 0.03-0.01 0.04-0.01 0.01-0.01 0.03-0.02 0.04 0 0.01-0.01 0.03-0.01 0.04 0 0.01-0.01 0.03-0.01 0.04-0.01 0.01-0.01 0.03-0.01 0.04 0 0.01-0.01 0.03-0.01 0.04 0 0.01-0.01 0.03-0.01 0.04-0.01 0.01-0.01 0.03-0.01 0.04 0 0.02-0.01 0.03-0.01 0.04 0 0.01-0.01 0.03-0.01 0.04 0 0.01-0.01 0.03-0.01 0.04 0 0.01-0.01 0.03-0.01 0.04 0 0.01-0.01 0.03-0.01 0.04 0 0.01-0.01 0.03-0.01 0.04 0 0.01-0.01 0.03-0.01 0.04 0 0.01-0.01 0.02-0.01 0.04s-0.01 0.03-0.01 0.04c0 0.01 0 0.03-0.01 0.04 0 0.01 0 0.03-0.01 0.04 0 0.01 0 0.03-0.01 0.04s0 0.03-0.01 0.04c0 0.01 0 0.03-0.01 0.04s0 0.03-0.01 0.04c0 0.02 0 0.03-0.01 0.04 0 0.01 0 0.03 0 0.04 0 0.01 0 0.03-0.01 0.04 0 0.02 0 0.03 0 0.04 0 0.01 0 0.03 0 0.04 0 0.01 0 0.03 0 0.04 0 0.01 0 0.03 0 0.04 0 0.01 0 0.03 0 0.04 0 0.02 0 0.03 0 0.04 0 0.01 0 0.03 0 0.04 0 0.01 0 0.03 0 0.04 0 0.01 0 0.03 0 0.04 0 0.01 0 0.03 0 0.04 0 0.01 0 0.03 0 0.04s0 0.03 0 0.04c0 0.02 0 0.03 0 0.04v0.04c0 0.01 0 0.03 0 0.04 0 0.01 0 0.03 0 0.04l0 0.04c0 0.01 0 0.03 0 0.04 0 0.01 0 0.03 0 0.04 0 0.01 0 0.03 0 0.04 0 0.02 0 0.03 0 0.04 0 0.01 0 0.03 0 0.04 0 0.01 0 0.02 0 0.04 0 0.01 0 0.03 0.01 0.04 0 0.01 0 0.03 0.01 0.04s0 0.03 0 0.04c0 0.01 0 0.03 0.01 0.04s0 0.03 0.01 0.04c0 0.01 0.01 0.03 0.01 0.03 0 0.01 0 0.03 0.01 0.04 0 0.01 0.01 0.02 0.01 0.04 0 0.01 0.01 0.03 0.01 0.04s0.01 0.03 0.01 0.04c0 0.01 0 0.03 0.01 0.04 0.01 0.01 0.01 0.02 0.01 0.04 0 0.01 0.01 0.03 0.01 0.04 0 0.01 0.01 0.02 0.01 0.04 0 0.01 0.01 0.02 0.01 0.04 0 0.01 0.01 0.03 0.01 0.04 0 0.01 0.01 0.03 0.01 0.04 0 0.01 0.01 0.03 0.01 0.04 0 0.01 0.01 0.03 0.01 0.04 0.01 0.01 0.01 0.03 0.01 0.04 0 0.01 0.01 0.03 0.01 0.04 0.01 0.01 0.01 0.03 0.02 0.04 0 0.01 0.01 0.03 0.01 0.04 0.01 0.01 0.01 0.03 0.01 0.04 0.01 0.01 0.01 0.03 0.01 0.04 0.01 0.01 0.01 0.03 0.02 0.04s0.01 0.03 0.01 0.04c0 0.01 0.01 0.03 0.02 0.04s0.01 0.03 0.02 0.04c0.01 0.01 0.01 0.02 0.02 0.04 0.01 0.01 0.01 0.02 0.02 0.04 0.01 0.01 0.01 0.03 0.02 0.04 0.01 0.01 0.01 0.03 0.02 0.04 0.01 0.01 0.01 0.03 0.02 0.04 0.01 0.01 0.01 0.03 0.02 0.04 0.01 0.01 0.01 0.03 0.02 0.04 0.01 0.01 0.02 0.03 0.02 0.04 0.01 0.01 0.01 0.03 0.02 0.04 0.01 0.01 0.02 0.03 0.02 0.04 0.01 0.01 0.01 0.03 0.02 0.04s0.02 0.03 0.02 0.04c0.01 0.01 0.02 0.03 0.02 0.04 0.01 0.01 0.02 0.02 0.02 0.04 0.01 0.01 0.02 0.03 0.02 0.04 0.01 0.01 0.02 0.03 0.03 0.04 0.01 0.01 0.02 0.03 0.02 0.04 0.01 0.01 0.02 0.02 0.03 0.04 0.01 0.01 0.02 0.03 0.03 0.04 0.01 0.01 0.02 0.03 0.03 0.04 0.01 0.01 0.02 0.02 0.03 0.04 0.01 0.01 0.02 0.03 0.03 0.04 0.01 0.01 0.02 0.03 0.03 0.04 0.01 0.01 0.02 0.03 0.03 0.04 0.01 0.01 0.02 0.03 0.03 0.04 0.01 0.01 0.02 0.03 0.03 0.04 0.01 0.01 0.02 0.03 0.03 0.04 0.01 0.01 0.02 0.03 0.03 0.04 0.01 0.01 0.02 0.03 0.03 0.04 0.01 0.01 0.02 0.02 0.03 0.04 0.01 0.01 0.02 0.02 0.03 0.04 0.01 0.01 0.02 0.02 0.03 0.04 0.01 0.01 0.02 0.03 0.03 0.04 0.01 0.01 0.02 0.03 0.04 0.04 0.01 0.01 0.02 0.03 0.04 0.04 0.01 0.01 0.03 0.02 0.04 0.04 0.01 0.02 0.03 0.03 0.04 0.04 0.01 0.01 0.03 0.03 0.04 0.04s0.02 0.03 0.04 0.04c0.02 0.01 0.03 0.02 0.04 0.04s0.03 0.03 0.04 0.04 0.03 0.03 0.04 0.04c0.02 0.01 0.03 0.03 0.04 0.04 0.02 0.01 0.03 0.03 0.05 0.04 0.02 0.01 0.03 0.03 0.05 0.04 0.02 0.01 0.03 0.03 0.05 0.04 0.02 0.01 0.03 0.03 0.05 0.04 0.02 0.02 0.04 0.03 0.05 0.04 0.02 0.01 0.03 0.03 0.05 0.04 0.02 0.01 0.03 0.02 0.05 0.04 0.02 0.01 0.03 0.03 0.05 0.04 0.02 0.01 0.04 0.03 0.06 0.04 0.02 0.01 0.04 0.03 0.06 0.04 0.02 0.01 0.04 0.02 0.06 0.04 0.02 0.01 0.04 0.03 0.06 0.04 0.02 0.01 0.04 0.03 0.06 0.04s0.04 0.03 0.06 0.04 0.04 0.03 0.06 0.04c0.02 0.01 0.05 0.03 0.07 0.04s0.04 0.03 0.07 0.04c0.02 0.01 0.05 0.02 0.07 0.04 0.03 0.01 0.05 0.02 0.07 0.04 0.02 0.01 0.05 0.03 0.07 0.04 0.03 0.01 0.05 0.03 0.08 0.04s0.05 0.03 0.08 0.04c0.03 0.01 0.05 0.03 0.08 0.04 0.03 0.01 0.06 0.03 0.09 0.04 0.03 0.01 0.06 0.03 0.09 0.04 0.03 0.01 0.06 0.03 0.1 0.04 0.03 0.01 0.07 0.03 0.1 0.04 0.03 0.01 0.07 0.03 0.11 0.04 0.04 0.01 0.07 0.02 0.11 0.04 0.04 0.01 0.08 0.03 0.12 0.04 0.04 0.01 0.09 0.03 0.13 0.04 0.05 0.02 0.1 0.03 0.14 0.04 0.05 0.01 0.11 0.02 0.16 0.04 0.06 0.02 0.12 0.03 0.18 0.04 0.07 0.02 0.14 0.03 0.22 0.04 0.09 0.01 0.19 0.03 0.28 0.04 0.16 0.02 0.32 0.03 0.48 0.04 0.1 0 0.19 0.01 0.28 0.01 0.07 0 0.14 0 0.22-0.01 0.14-0.01 0.27-0.02 0.4-0.04 0.08-0.01 0.17-0.03 0.25-0.04 0.07-0.01 0.14-0.03 0.21-0.04 0.06-0.01 0.12-0.02 0.19-0.04 0.06-0.01 0.11-0.03 0.17-0.04 0.06-0.01 0.11-0.03 0.16-0.04 0.05-0.01 0.11-0.02 0.16-0.04 0.05-0.01 0.1-0.03 0.16-0.04l0.02-0.01 0.01 0.01 0.07 0.04 0.07 0.04 0.07 0.04 0.07 0.04 0.07 0.04 0.07 0.04 0.07 0.05 0.07 0.04 0.07 0.04 0.07 0.04 0.07 0.04 0.07 0.04 0.07 0.04 0.07 0.04 0.07 0.04 0.07 0.04 0.07 0.04 0.07 0.04 0.07 0.04 0.07 0.04 0.07 0.04 0.07 0.04 0.07 0.05 0.07 0.04 0.05 0.03-0.01-0.03-0.01-0.04-0.01-0.04-0.01-0.04-0.01-0.04-0.01-0.04-0.01-0.04-0.01-0.04-0.01-0.04-0.01-0.04-0.01-0.04-0.01-0.04-0.01-0.04-0.01-0.04-0.01-0.04-0.01-0.04-0.01-0.04-0.01-0.04-0.01-0.04L27.1 26.7l-0.01-0.04-0.01-0.04-0.01-0.04-0.01-0.04-0.01-0.04-0.01-0.04-0.01-0.04-0.01-0.04-0.01-0.04-0.01-0.04-0.01-0.04-0.01-0.04-0.01-0.04-0.01-0.04-0.01-0.04-0.01-0.04-0.01-0.04L26.89 26l-0.01-0.04-0.01-0.04-0.01-0.04-0.01-0.02 0.02-0.01c0.02-0.01 0.04-0.02 0.05-0.04 0.02-0.01 0.03-0.02 0.05-0.04 0.02-0.01 0.03-0.02 0.05-0.04 0.02-0.01 0.03-0.03 0.05-0.04 0.02-0.02 0.03-0.03 0.05-0.04 0.02-0.01 0.03-0.02 0.05-0.04 0.02-0.01 0.03-0.03 0.05-0.04 0.01-0.01 0.03-0.03 0.05-0.04 0.02-0.02 0.03-0.03 0.04-0.04 0.02-0.01 0.03-0.03 0.05-0.04 0.01-0.01 0.03-0.03 0.05-0.04 0.01-0.01 0.03-0.02 0.04-0.04 0.01-0.01 0.03-0.02 0.04-0.04 0.01-0.01 0.03-0.03 0.04-0.04 0.01-0.01 0.03-0.02 0.04-0.04 0.01-0.01 0.03-0.02 0.04-0.04 0.02-0.01 0.03-0.02 0.04-0.04 0.01-0.01 0.03-0.02 0.04-0.04 0.02-0.01 0.03-0.02 0.04-0.04s0.02-0.02 0.04-0.04c0.01-0.01 0.02-0.02 0.04-0.04 0.01-0.01 0.02-0.02 0.04-0.04 0.01-0.01 0.02-0.02 0.04-0.04 0.01-0.01 0.03-0.03 0.04-0.04 0.01-0.01 0.02-0.03 0.04-0.04s0.02-0.02 0.03-0.04c0.01-0.01 0.02-0.03 0.04-0.04 0.01-0.01 0.02-0.02 0.03-0.04 0.01-0.01 0.02-0.03 0.03-0.04 0.01-0.01 0.02-0.02 0.03-0.04 0.01-0.01 0.02-0.02 0.03-0.04 0.01-0.01 0.02-0.03 0.03-0.04 0.01-0.01 0.02-0.03 0.03-0.04 0.01-0.01 0.02-0.03 0.03-0.04 0.01-0.01 0.02-0.02 0.03-0.04 0.01-0.01 0.02-0.03 0.03-0.04 0.01-0.01 0.02-0.02 0.03-0.04 0.01-0.02 0.02-0.03 0.03-0.04 0.01-0.01 0.02-0.03 0.03-0.04 0.01-0.01 0.02-0.02 0.03-0.04 0.01-0.01 0.02-0.02 0.03-0.04 0.01-0.01 0.02-0.02 0.03-0.04s0.02-0.02 0.03-0.04c0.01-0.01 0.02-0.02 0.02-0.04 0.01-0.01 0.02-0.02 0.02-0.04 0.01-0.01 0.02-0.02 0.02-0.04s0.02-0.02 0.02-0.04c0.01-0.01 0.02-0.02 0.02-0.04 0.01-0.01 0.02-0.02 0.02-0.04 0.01-0.01 0.02-0.02 0.02-0.04 0.01-0.01 0.02-0.03 0.02-0.04 0.01-0.01 0.02-0.02 0.02-0.04 0.01-0.01 0.01-0.02 0.02-0.04s0.01-0.02 0.02-0.04 0.01-0.03 0.02-0.04c0.01-0.02 0.01-0.03 0.02-0.04s0.01-0.02 0.02-0.04c0.01-0.01 0.01-0.02 0.02-0.04 0.01-0.01 0.01-0.03 0.02-0.04 0.01-0.01 0.01-0.03 0.02-0.04 0.01-0.01 0.01-0.03 0.02-0.04 0.01-0.01 0.01-0.02 0.02-0.04 0-0.01 0.01-0.03 0.02-0.04 0.01-0.01 0.01-0.02 0.02-0.04 0-0.01 0.01-0.02 0.01-0.04 0-0.01 0.01-0.02 0.01-0.04 0.01-0.02 0.01-0.03 0.02-0.04 0-0.01 0.01-0.02 0.01-0.04 0.01-0.01 0.01-0.02 0.01-0.04 0-0.01 0.01-0.02 0.01-0.04 0-0.01 0.01-0.02 0.01-0.04 0-0.01 0.01-0.02 0.01-0.04 0.01-0.01 0.01-0.02 0.01-0.04 0-0.01 0-0.02 0.01-0.04 0-0.01 0.01-0.02 0.01-0.04 0-0.01 0.01-0.02 0.01-0.04 0-0.01 0.01-0.03 0.01-0.04 0-0.01 0.01-0.02 0.01-0.04 0-0.01 0-0.02 0.01-0.04 0-0.01 0-0.03 0.01-0.04 0-0.01 0-0.02 0.01-0.04 0-0.01 0-0.02 0.01-0.04 0-0.01 0-0.03 0.01-0.04 0-0.01 0-0.03 0-0.04 0-0.02 0-0.03 0.01-0.04 0-0.01 0-0.02 0-0.04 0-0.01 0-0.02 0-0.04s0-0.02 0-0.04c0-0.01 0-0.03 0-0.04 0-0.01 0-0.02 0-0.04 0-0.01 0-0.03 0-0.04 0-0.01 0-0.02 0-0.04 0-0.01 0-0.02 0-0.04 0-0.01 0-0.02 0-0.03v-0.01-0.04-0.02V22.1c0-0.01 0-0.03 0-0.04C29.11 22.05 29.11 22.04 29.1 22.02zM21.85 21.33c-0.32 0-0.64-0.32-0.64-0.64s0.32-0.65 0.65-0.65c0.49 0 0.81 0.32 0.81 0.65S22.34 21.33 21.85 21.33zM25.4 21.33c-0.32 0-0.64-0.32-0.64-0.64s0.32-0.65 0.64-0.65c0.48 0 0.81 0.32 0.81 0.65S25.88 21.33 25.4 21.33z"/>
  <path fill="none" d="M18.18 20.18c0.01-0.02 0.01-0.03 0.02-0.05 0.01-0.02 0.01-0.03 0.02-0.04 0.01-0.02 0.01-0.03 0.02-0.05 0.01-0.01 0.01-0.03 0.02-0.04 0.01-0.01 0.02-0.03 0.03-0.04 0.01-0.02 0.02-0.03 0.02-0.05s0.02-0.03 0.03-0.05c0.01-0.01 0.02-0.03 0.03-0.04 0.01-0.02 0.02-0.03 0.03-0.05 0.01-0.02 0.02-0.03 0.03-0.04 0.01-0.02 0.02-0.03 0.03-0.05 0.01-0.02 0.02-0.03 0.03-0.05 0.01-0.01 0.02-0.03 0.03-0.05 0.01-0.01 0.02-0.03 0.03-0.04 0.01-0.02 0.02-0.03 0.03-0.05 0.01-0.01 0.02-0.03 0.03-0.04 0.01-0.01 0.02-0.03 0.03-0.05 0.01-0.01 0.02-0.03 0.03-0.04 0.01-0.02 0.02-0.03 0.04-0.04 0.01-0.02 0.02-0.03 0.03-0.05 0.01-0.02 0.03-0.03 0.04-0.05 0.01-0.01 0.02-0.03 0.03-0.04 0.01-0.02 0.02-0.03 0.04-0.05 0.01-0.01 0.02-0.03 0.04-0.04 0.01-0.02 0.03-0.03 0.04-0.05 0.01-0.01 0.03-0.03 0.04-0.04s0.03-0.03 0.04-0.05c0.01-0.01 0.03-0.03 0.04-0.04 0.01-0.02 0.03-0.03 0.04-0.04 0.01-0.02 0.03-0.03 0.04-0.05 0.02-0.02 0.03-0.03 0.05-0.04 0.02-0.02 0.03-0.03 0.05-0.05 0.02-0.01 0.03-0.03 0.05-0.05 0.02-0.01 0.03-0.03 0.05-0.04 0.02-0.02 0.03-0.03 0.05-0.05 0.02-0.01 0.03-0.03 0.05-0.04 0.02-0.02 0.03-0.03 0.05-0.04 0.02-0.02 0.04-0.03 0.05-0.04 0.02-0.02 0.04-0.03 0.05-0.05s0.04-0.03 0.06-0.05c0.02-0.01 0.04-0.03 0.06-0.04 0.02-0.02 0.04-0.03 0.06-0.05 0.02-0.02 0.04-0.03 0.06-0.05 0.02-0.01 0.04-0.03 0.06-0.04 0.02-0.02 0.05-0.03 0.06-0.04 0.02-0.02 0.05-0.03 0.07-0.05 0.02-0.02 0.05-0.03 0.07-0.05 0.02-0.01 0.05-0.03 0.07-0.04 0.02-0.02 0.05-0.03 0.07-0.05 0.03-0.01 0.05-0.03 0.08-0.04 0.03-0.02 0.05-0.03 0.08-0.05 0.03-0.01 0.06-0.03 0.08-0.04 0.03-0.02 0.06-0.03 0.09-0.04 0.03-0.02 0.06-0.03 0.09-0.05 0.03-0.02 0.06-0.03 0.09-0.04 0.03-0.02 0.07-0.03 0.1-0.05 0.03-0.02 0.07-0.03 0.11-0.04 0.04-0.02 0.07-0.03 0.11-0.05 0.04-0.02 0.08-0.03 0.12-0.04 0.04-0.02 0.08-0.03 0.13-0.04 0.04-0.02 0.09-0.03 0.14-0.05 0.05-0.02 0.1-0.03 0.15-0.05 0.06-0.02 0.11-0.03 0.17-0.05 0.06-0.02 0.13-0.03 0.19-0.04 0.07-0.01 0.15-0.03 0.22-0.04 0.1-0.02 0.19-0.03 0.29-0.04 0.16-0.02 0.33-0.04 0.5-0.04 0.1-0.01 0.2-0.01 0.31-0.01 0.09 0 0.18 0 0.27 0.01 0.12 0.01 0.23 0.02 0.35 0.03 0-0.01 0-0.02-0.01-0.03 0-0.02-0.01-0.03-0.01-0.05 0-0.02-0.01-0.03-0.01-0.04 0-0.02-0.01-0.03-0.01-0.05 0-0.02-0.01-0.03-0.01-0.04 0-0.02-0.01-0.03-0.01-0.05 0-0.02-0.01-0.03-0.01-0.04s-0.01-0.03-0.01-0.05c0-0.02-0.01-0.03-0.02-0.05 0-0.01-0.01-0.03-0.01-0.04-0.01-0.02-0.01-0.03-0.02-0.05-0.01-0.02-0.01-0.03-0.02-0.04-0.01-0.02-0.01-0.03-0.02-0.05-0.01-0.02-0.01-0.03-0.02-0.05-0.01-0.01-0.01-0.03-0.02-0.04-0.01-0.02-0.01-0.03-0.02-0.05-0.01-0.02-0.01-0.03-0.02-0.05-0.01-0.01-0.01-0.03-0.02-0.04-0.01-0.02-0.01-0.03-0.02-0.04-0.01-0.02-0.01-0.03-0.02-0.05-0.01-0.02-0.01-0.03-0.02-0.04-0.01-0.02-0.02-0.03-0.02-0.05-0.01-0.02-0.01-0.03-0.02-0.04-0.01-0.02-0.02-0.03-0.02-0.05-0.01-0.01-0.02-0.03-0.02-0.04-0.01-0.01-0.02-0.03-0.02-0.04-0.01-0.02-0.02-0.03-0.02-0.05s-0.02-0.03-0.02-0.05c-0.01-0.02-0.02-0.03-0.03-0.04-0.01-0.02-0.02-0.03-0.02-0.05-0.01-0.02-0.02-0.03-0.03-0.04-0.01-0.02-0.02-0.03-0.03-0.05-0.01-0.02-0.02-0.03-0.03-0.04-0.01-0.02-0.02-0.03-0.03-0.05-0.01-0.02-0.02-0.03-0.03-0.04-0.01-0.02-0.02-0.03-0.03-0.05-0.01-0.02-0.02-0.03-0.03-0.04-0.01-0.02-0.02-0.03-0.03-0.05-0.01-0.02-0.02-0.03-0.03-0.04-0.01-0.01-0.02-0.03-0.03-0.04-0.01-0.02-0.02-0.03-0.03-0.05-0.01-0.01-0.02-0.03-0.04-0.05-0.01-0.01-0.02-0.03-0.04-0.04-0.01-0.01-0.02-0.03-0.04-0.05-0.01-0.01-0.02-0.03-0.04-0.04s-0.02-0.03-0.04-0.04c-0.01-0.02-0.02-0.03-0.04-0.04-0.01-0.02-0.02-0.03-0.04-0.05-0.01-0.02-0.03-0.03-0.04-0.04s-0.03-0.03-0.04-0.05c-0.01-0.01-0.03-0.03-0.04-0.04-0.01-0.02-0.02-0.03-0.04-0.05-0.02-0.02-0.03-0.03-0.04-0.05s-0.03-0.03-0.04-0.04c-0.01-0.02-0.03-0.03-0.05-0.05-0.01-0.01-0.03-0.03-0.04-0.05-0.02-0.01-0.03-0.03-0.05-0.04s-0.03-0.03-0.05-0.05c-0.02-0.02-0.03-0.03-0.05-0.04-0.02-0.02-0.03-0.03-0.05-0.05-0.02-0.02-0.04-0.03-0.05-0.04-0.02-0.02-0.04-0.03-0.05-0.05-0.02-0.01-0.04-0.03-0.05-0.04-0.02-0.02-0.04-0.03-0.05-0.05-0.02-0.02-0.04-0.03-0.06-0.04s-0.04-0.03-0.06-0.05c-0.02-0.02-0.04-0.03-0.06-0.04-0.02-0.02-0.04-0.03-0.06-0.05-0.02-0.02-0.04-0.03-0.06-0.04-0.02-0.02-0.04-0.03-0.06-0.05-0.02-0.01-0.04-0.03-0.06-0.04-0.02-0.01-0.04-0.03-0.07-0.04-0.02-0.02-0.04-0.03-0.07-0.04s-0.05-0.03-0.07-0.04c-0.02-0.02-0.05-0.03-0.07-0.04-0.02-0.02-0.05-0.03-0.07-0.05-0.03-0.02-0.05-0.03-0.08-0.04-0.02-0.02-0.05-0.03-0.08-0.05-0.03-0.02-0.05-0.03-0.08-0.04-0.03-0.02-0.06-0.03-0.08-0.04-0.03-0.02-0.06-0.03-0.09-0.04-0.03-0.02-0.06-0.03-0.09-0.05-0.03-0.01-0.06-0.03-0.09-0.04-0.03-0.01-0.06-0.03-0.1-0.05-0.03-0.01-0.07-0.03-0.1-0.04-0.04-0.01-0.07-0.03-0.1-0.04-0.04-0.02-0.07-0.03-0.11-0.04-0.04-0.02-0.08-0.03-0.12-0.05-0.04-0.02-0.08-0.03-0.12-0.04-0.04-0.02-0.08-0.03-0.13-0.05-0.05-0.01-0.09-0.03-0.14-0.04-0.05-0.01-0.1-0.03-0.15-0.04-0.05-0.02-0.1-0.03-0.16-0.05-0.06-0.02-0.12-0.03-0.17-0.05-0.06-0.02-0.13-0.03-0.19-0.04-0.07-0.02-0.14-0.04-0.22-0.05-0.08-0.01-0.17-0.03-0.26-0.04-0.11-0.02-0.22-0.03-0.33-0.04-0.28-0.03-0.56-0.05-0.85-0.05h-0.06c-0.28 0-0.57 0.02-0.84 0.05-0.11 0.01-0.22 0.03-0.33 0.08-0.09 0.01-0.17 0.03-0.26 0.05-0.07 0.02-0.14 0.03-0.21 0.05-0.06 0.01-0.13 0.03-0.19 0.05-0.06 0.01-0.11 0.03-0.17 0.05-0.05 0.02-0.1 0.03-0.15 0.05-0.05 0.01-0.1 0.03-0.14 0.05-0.05 0.01-0.09 0.03-0.14 0.05-0.04 0.01-0.08 0.03-0.12 0.05-0.04 0.02-0.08 0.03-0.12 0.05-0.04 0.02-0.08 0.03-0.11 0.05-0.04 0.02-0.07 0.03-0.11 0.05-0.04 0.01-0.07 0.03-0.1 0.05-0.03 0.01-0.06 0.03-0.1 0.05-0.03 0.01-0.06 0.03-0.09 0.05-0.03 0.01-0.06 0.03-0.09 0.05-0.03 0.02-0.06 0.03-0.09 0.05-0.03 0.02-0.06 0.03-0.08 0.05s-0.05 0.03-0.08 0.05c-0.02 0.02-0.05 0.03-0.08 0.05-0.03 0.01-0.05 0.03-0.08 0.05-0.02 0.02-0.05 0.03-0.07 0.05-0.02 0.02-0.05 0.03-0.07 0.04-0.02 0.02-0.05 0.03-0.07 0.05s-0.04 0.03-0.07 0.05c-0.02 0.02-0.04 0.03-0.07 0.05-0.02 0.01-0.04 0.03-0.06 0.05-0.02 0.01-0.04 0.03-0.07 0.05-0.02 0.01-0.04 0.03-0.06 0.05-0.02 0.02-0.04 0.03-0.06 0.05-0.02 0.02-0.04 0.03-0.06 0.05-0.02 0.02-0.04 0.03-0.06 0.05s-0.04 0.03-0.05 0.05c-0.02 0.02-0.04 0.03-0.05 0.05-0.02 0.02-0.04 0.03-0.05 0.05-0.02 0.01-0.04 0.03-0.05 0.05s-0.03 0.03-0.05 0.05c-0.02 0.02-0.03 0.03-0.05 0.05-0.02 0.02-0.03 0.03-0.05 0.05-0.02 0.02-0.03 0.03-0.05 0.05-0.01 0.01-0.03 0.03-0.05 0.05-0.01 0.01-0.03 0.03-0.05 0.05-0.02 0.01-0.03 0.03-0.04 0.05-0.01 0.02-0.03 0.03-0.04 0.05-0.01 0.02-0.03 0.03-0.04 0.05-0.02 0.02-0.03 0.03-0.04 0.05-0.01 0.02-0.03 0.03-0.04 0.05-0.01 0.01-0.03 0.03-0.04 0.05-0.01 0.02-0.03 0.03-0.04 0.05-0.01 0.02-0.02 0.03-0.04 0.05-0.01 0.02-0.02 0.03-0.04 0.05-0.01 0.02-0.02 0.03-0.04 0.05s-0.02 0.03-0.04 0.05-0.02 0.03-0.04 0.05c-0.01 0.01-0.02 0.03-0.03 0.05-0.01 0.01-0.02 0.03-0.04 0.05-0.01 0.01-0.02 0.03-0.03 0.05-0.01 0.02-0.02 0.03-0.03 0.05-0.01 0.01-0.02 0.03-0.03 0.04-0.01 0.02-0.02 0.03-0.03 0.05-0.01 0.02-0.02 0.03-0.03 0.05-0.01 0.02-0.02 0.03-0.03 0.05-0.01 0.02-0.02 0.03-0.03 0.05-0.01 0.02-0.02 0.03-0.03 0.05-0.01 0.02-0.02 0.03-0.03 0.05-0.01 0.02-0.02 0.03-0.02 0.05-0.01 0.02-0.02 0.03-0.03 0.05-0.01 0.02-0.02 0.03-0.02 0.05-0.01 0.01-0.02 0.03-0.02 0.04-0.01 0.02-0.02 0.03-0.02 0.05-0.01 0.02-0.01 0.03-0.02 0.05s-0.02 0.03-0.02 0.05c-0.01 0.01-0.02 0.03-0.02 0.05-0.01 0.01-0.02 0.03-0.02 0.05-0.01 0.02-0.01 0.03-0.02 0.05s-0.01 0.03-0.02 0.05c-0.01 0.01-0.01 0.03-0.02 0.05s-0.01 0.03-0.02 0.05-0.01 0.03-0.02 0.05-0.01 0.03-0.02 0.05c-0.01 0.01-0.01 0.03-0.02 0.05-0.01 0.02-0.01 0.03-0.02 0.05 0 0.01-0.01 0.03-0.02 0.05-0.01 0.01-0.01 0.03-0.02 0.05-0.01 0.02-0.01 0.03-0.02 0.05 0 0.02-0.01 0.03-0.01 0.05-0.01 0.02-0.01 0.03-0.02 0.05-0.01 0.02-0.01 0.03-0.02 0.05 0 0.01-0.01 0.03-0.01 0.04s-0.01 0.03-0.01 0.05c0 0.02-0.01 0.03-0.01 0.05 0 0.02-0.01 0.03-0.01 0.05 0 0.02-0.01 0.03-0.01 0.05 0 0.02-0.01 0.03-0.01 0.05 0 0.01-0.01 0.03-0.01 0.05 0 0.02-0.01 0.03-0.01 0.05 0 0.01-0.01 0.03-0.01 0.04 0 0.02-0.01 0.03-0.01 0.05 0 0.01-0.01 0.03-0.01 0.05 0 0.01-0.01 0.03-0.01 0.05s0 0.03-0.01 0.05 0 0.03-0.01 0.05c0 0.02 0 0.03-0.01 0.05 0 0.02 0 0.03-0.01 0.05s0 0.03-0.01 0.05-0.01 0.03-0.01 0.05c0 0.01 0 0.03 0 0.05s0 0.03-0.01 0.05c0 0.01 0 0.03 0 0.05 0 0.02 0 0.03 0 0.05 0 0.01 0 0.03-0.01 0.04 0 0.02 0 0.03 0 0.05 0 0.01 0 0.03 0 0.05 0 0.02 0 0.03 0 0.05 0 0.01 0 0.03 0 0.05 0 0.02 0 0.03 0 0.05 0 0.01 0 0.03 0 0.04s0 0.03 0 0.05c0 0.01 0 0.02 0 0.02 0 0.01 0 0.02 0 0.02 0 0.02 0 0.03 0 0.05s0 0.03 0 0.05c0 0.02 0 0.03 0 0.05s0 0.03 0 0.05c0 0.01 0 0.03 0 0.05 0 0.01 0 0.03 0 0.04 0 0.02 0 0.03 0 0.05 0 0.02 0 0.03 0 0.05 0 0.02 0 0.03 0.01 0.05 0 0.01 0 0.03 0 0.05 0 0.02 0 0.03 0.01 0.05 0 0.01 0 0.03 0 0.05 0 0.01 0 0.03 0.01 0.05s0.01 0.03 0.01 0.05c0 0.02 0 0.03 0.01 0.05 0 0.01 0 0.03 0.01 0.05 0 0.02 0.01 0.03 0.01 0.05 0 0.01 0.01 0.03 0.01 0.04 0 0.02 0 0.03 0.01 0.05 0 0.01 0.01 0.03 0.01 0.05 0 0.02 0.01 0.03 0.01 0.05 0 0.01 0.01 0.03 0.01 0.05 0 0.02 0.01 0.03 0.01 0.05 0.01 0.01 0.01 0.03 0.01 0.04 0 0.02 0.01 0.03 0.01 0.05 0 0.02 0.01 0.03 0.01 0.05 0 0.02 0.01 0.03 0.01 0.05 0.01 0.01 0.01 0.03 0.01 0.05 0.01 0.01 0.01 0.03 0.02 0.05s0.01 0.03 0.02 0.05c0.01 0.02 0.01 0.03 0.02 0.05 0.01 0.01 0.01 0.03 0.02 0.05 0.01 0.01 0.01 0.03 0.02 0.05 0.01 0.02 0.01 0.03 0.02 0.05s0.01 0.03 0.02 0.04c0.01 0.02 0.01 0.03 0.02 0.05 0.01 0.02 0.01 0.03 0.02 0.05 0.01 0.01 0.01 0.03 0.02 0.05s0.01 0.03 0.02 0.05 0.01 0.03 0.02 0.05c0.01 0.01 0.01 0.03 0.02 0.05 0.01 0.01 0.01 0.03 0.02 0.05 0.01 0.02 0.02 0.03 0.02 0.04 0.01 0.02 0.01 0.03 0.02 0.05 0.01 0.01 0.02 0.03 0.02 0.05 0.01 0.01 0.02 0.03 0.02 0.04 0.01 0.01 0.02 0.03 0.02 0.05 0.01 0.01 0.02 0.03 0.03 0.05 0.01 0.02 0.02 0.03 0.03 0.05 0.01 0.02 0.02 0.03 0.03 0.05 0.01 0.01 0.02 0.03 0.03 0.05 0.01 0.02 0.02 0.03 0.03 0.05 0.01 0.01 0.02 0.03 0.03 0.05 0.01 0.02 0.02 0.03 0.03 0.05 0.01 0.02 0.02 0.03 0.03 0.05 0.01 0.02 0.02 0.03 0.03 0.05 0.01 0.02 0.02 0.03 0.03 0.05 0.01 0.01 0.02 0.03 0.03 0.05 0.01 0.01 0.02 0.03 0.03 0.05 0.01 0.01 0.02 0.03 0.04 0.04 0.01 0.02 0.02 0.03 0.03 0.05 0.01 0.02 0.02 0.03 0.04 0.05 0.01 0.02 0.02 0.03 0.04 0.05 0.01 0.02 0.02 0.03 0.03 0.05 0.01 0.02 0.03 0.03 0.04 0.05s0.02 0.03 0.04 0.05c0.01 0.01 0.02 0.03 0.04 0.05 0.02 0.02 0.03 0.03 0.04 0.05 0.01 0.01 0.03 0.03 0.04 0.04s0.03 0.03 0.04 0.05c0.01 0.01 0.03 0.03 0.04 0.05 0.02 0.01 0.03 0.03 0.04 0.05 0.01 0.01 0.03 0.03 0.04 0.05 0.02 0.01 0.03 0.03 0.05 0.05 0.02 0.02 0.03 0.03 0.05 0.05 0.01 0.01 0.03 0.03 0.05 0.05 0.02 0.01 0.03 0.03 0.05 0.04 0.02 0.02 0.03 0.03 0.05 0.05 0.02 0.02 0.03 0.03 0.05 0.05 0.02 0.01 0.03 0.03 0.05 0.05 0.02 0.01 0.03 0.03 0.05 0.05 0.02 0.01 0.04 0.03 0.05 0.05 0.02 0.02 0.04 0.03 0.06 0.05 0.02 0.02 0.04 0.03 0.05 0.05 0.02 0.01 0.04 0.03 0.06 0.05 0.02 0.02 0.04 0.03 0.06 0.05 0.02 0.01 0.04 0.03 0.06 0.05 0.02 0.01 0.04 0.03 0.06 0.05 0.02 0.01 0.04 0.03 0.06 0.05s0.04 0.03 0.06 0.05c0.02 0.01 0.04 0.03 0.06 0.05 0.02 0.01 0.04 0.03 0.06 0.04 0.02 0.02 0.04 0.03 0.06 0.05 0.02 0.02 0.04 0.03 0.06 0.05 0.01 0.01 0.02 0.01 0.03 0.02l-0.01 0.03-0.02 0.05-0.01 0.04-0.02 0.05-0.02 0.05-0.02 0.05-0.02 0.04-0.02 0.05-0.02 0.05-0.01 0.05-0.02 0.05-0.01 0.05-0.02 0.05-0.01 0.05-0.01 0.05-0.02 0.05-0.01 0.05-0.02 0.05-0.02 0.05-0.01 0.05L13.16 23.4l-0.02 0.05-0.02 0.05-0.02 0.05-0.01 0.05-0.02 0.05-0.01 0.05-0.02 0.05-0.02 0.05-0.02 0.05-0.02 0.05L12.99 23.9l-0.02 0.05-0.01 0.05-0.02 0.05-0.01 0.05-0.02 0.05L12.9 24.18l-0.02 0.05-0.02 0.05-0.01 0.05-0.02 0.05-0.01 0.03 0.07-0.03 0.09-0.04 0.09-0.04 0.09-0.05 0.09-0.04 0.09-0.05 0.09-0.04 0.09-0.04 0.09-0.05 0.09-0.04 0.09-0.05 0.09-0.04 0.09-0.05 0.09-0.04 0.09-0.04 0.09-0.04 0.09-0.04 0.09-0.05 0.09-0.04 0.09-0.05 0.09-0.04 0.09-0.05 0.09-0.07 0.09-0.05 0.08-0.04c0.07 0.01 0.14 0.03 0.21 0.04 0.08 0.02 0.15 0.03 0.23 0.05 0.07 0.01 0.15 0.03 0.23 0.05 0.08 0.02 0.16 0.03 0.24 0.05 0.09 0.02 0.18 0.03 0.26 0.05 0.11 0.02 0.21 0.03 0.31 0.05 0.17 0.02 0.35 0.04 0.53 0.05 0.09 0 0.17 0.01 0.26 0.01 0.09 0 0.18 0 0.28-0.01 0.11 0 0.22-0.01 0.33-0.02l-0.01-0.03c-0.01-0.01-0.01-0.03-0.01-0.04 0-0.02-0.01-0.03-0.01-0.05 0-0.01-0.01-0.03-0.01-0.04 0-0.02-0.01-0.03-0.01-0.04 0-0.02-0.01-0.03-0.01-0.05 0-0.02-0.01-0.03-0.01-0.04 0-0.02-0.01-0.03-0.01-0.05 0-0.01-0.01-0.03-0.01-0.04 0-0.02-0.01-0.03-0.01-0.05 0-0.02-0.01-0.03-0.01-0.04 0-0.02-0.01-0.03-0.01-0.05 0-0.02 0-0.03-0.01-0.05 0-0.01-0.01-0.03-0.01-0.05 0-0.01-0.01-0.03-0.01-0.04 0-0.02 0-0.03-0.01-0.04 0-0.02 0-0.03-0.01-0.05 0-0.01 0-0.03-0.01-0.04 0-0.02 0-0.03 0-0.05 0-0.01 0-0.03 0-0.04 0-0.02 0-0.03 0-0.04 0-0.02 0-0.03 0-0.05 0-0.01 0-0.03-0.01-0.04 0-0.02 0-0.03 0-0.05 0-0.02 0-0.03 0-0.05 0-0.02 0-0.03 0-0.05 0-0.01 0-0.03 0-0.04 0-0.02 0-0.03 0-0.04 0-0.02 0-0.03 0-0.05s0-0.03 0-0.04v-0.01c0-0.01 0-0.03 0-0.05 0-0.01 0-0.03 0-0.04 0-0.01 0-0.03 0-0.04s0-0.03 0-0.05c0-0.01 0-0.03 0-0.04 0-0.02 0-0.03 0-0.04 0-0.02 0-0.03 0-0.05 0-0.01 0-0.03 0.01-0.04 0-0.01 0-0.03 0-0.04 0-0.01 0-0.03 0-0.04 0-0.02 0-0.03 0-0.05 0-0.02 0-0.03 0.01-0.05 0-0.01 0.01-0.03 0.01-0.05 0-0.01 0-0.03 0.01-0.04s0-0.03 0.01-0.05c0-0.01 0-0.03 0.01-0.04 0-0.01 0-0.03 0.01-0.05 0-0.01 0.01-0.03 0.01-0.04 0-0.01 0.01-0.03 0.01-0.04 0-0.02 0.01-0.03 0.01-0.04s0.01-0.03 0.01-0.04c0-0.02 0.01-0.03 0.01-0.05 0-0.01 0.01-0.03 0.01-0.04s0.01-0.03 0.01-0.04c0-0.02 0.01-0.03 0.01-0.04s0.01-0.03 0.01-0.04c0-0.02 0.01-0.03 0.01-0.05 0-0.02 0.01-0.03 0.01-0.04 0-0.02 0.01-0.03 0.01-0.05 0.01-0.01 0.01-0.03 0.01-0.04 0.01-0.01 0.01-0.03 0.01-0.05 0-0.01 0.01-0.03 0.02-0.04 0-0.02 0.01-0.03 0.01-0.05 0.01-0.02 0.01-0.03 0.02-0.05 0.01-0.02 0.01-0.03 0.02-0.04 0-0.02 0.01-0.03 0.01-0.05 0.01-0.01 0.01-0.03 0.02-0.04 0.01-0.02 0.01-0.03 0.02-0.05 0.01-0.01 0.01-0.03 0.02-0.05 0.01-0.01 0.01-0.03 0.02-0.04s0.01-0.03 0.02-0.05c0.01-0.01 0.01-0.03 0.02-0.04 0-0.02 0.01-0.03 0.02-0.05C18.17 20.2 18.18 20.19 18.18 20.18zM19.76 15.36c0.49 0 0.81 0.32 0.81 0.8 0 0.49-0.32 0.81-0.81 0.81-0.48 0-0.97-0.32-0.97-0.81C18.79 15.68 19.27 15.36 19.76 15.36zM15.25 16.97c-0.48 0-0.97-0.32-0.97-0.81 0-0.48 0.49-0.8 0.97-0.8 0.48 0 0.81 0.32 0.81 0.8C16.05 16.65 15.73 16.97 15.25 16.97z"/>
  <path fill="#CCCCCC" d="M21.85 20.04c-0.32 0-0.64 0.32-0.64 0.65s0.32 0.64 0.65 0.64c0.49 0 0.81-0.32 0.81-0.64S22.34 20.04 21.85 20.04z"/>
  <path fill="#CCCCCC" d="M15.25 15.36c-0.48 0-0.97 0.32-0.97 0.8 0 0.49 0.49 0.81 0.97 0.81 0.48 0 0.81-0.32 0.81-0.81C16.05 15.68 15.73 15.36 15.25 15.36z"/>
  <path fill="#CCCCCC" d="M19.76 16.97c0.49 0 0.81-0.32 0.81-0.81 0-0.48-0.32-0.8-0.81-0.8-0.48 0-0.97 0.32-0.97 0.8C18.79 16.65 19.27 16.97 19.76 16.97z"/>
  <path fill="#CCCCCC" d="M20 5.04c-8.28 0-15 6.72-15 15 0 8.28 6.72 15 15 15s15-6.72 15-15C35 11.75 28.28 5.04 20 5.04zM18.12 20.31c-0.01 0.02-0.01 0.03-0.02 0.05s-0.01 0.03-0.02 0.05c0 0.02-0.01 0.03-0.02 0.05-0.01 0.02-0.01 0.03-0.02 0.05-0.01 0.01-0.01 0.03-0.02 0.04 0 0.02-0.01 0.03-0.01 0.05C18.01 20.6 18.01 20.61 18 20.63c-0.01 0.01-0.01 0.03-0.02 0.05 0 0.01-0.01 0.03-0.01 0.05-0.01 0.01-0.01 0.03-0.02 0.04 0 0.02-0.01 0.03-0.01 0.05 0 0.02-0.01 0.03-0.01 0.04 0 0.02-0.01 0.03-0.01 0.05 0 0.01-0.01 0.03-0.01 0.05 0 0.01-0.01 0.03-0.01 0.05 0 0.01-0.01 0.03-0.01 0.05s-0.01 0.03-0.01 0.05c0 0.02-0.01 0.03-0.01 0.05s-0.01 0.03-0.01 0.05c0 0.02 0 0.03-0.01 0.05 0 0.01-0.01 0.03-0.01 0.05s0 0.03-0.01 0.05c0 0.02-0.01 0.03-0.01 0.05 0 0.02-0.01 0.03-0.01 0.05 0 0.02-0.01 0.03-0.01 0.05 0 0.02 0 0.03-0.01 0.05 0 0.02 0 0.03-0.01 0.05s0 0.03-0.01 0.04c0 0.02 0 0.03-0.01 0.05 0 0.02 0 0.03-0.01 0.05 0 0.02 0 0.03 0 0.05 0 0.02 0 0.03 0 0.05 0 0.01 0 0.03 0 0.05 0 0.02 0 0.03-0.01 0.05 0 0.02 0 0.03 0 0.05 0 0.02 0 0.03 0 0.05 0 0.02 0 0.03 0 0.05 0 0.02 0 0.03 0 0.05s0 0.03 0 0.05c0 0.02 0 0.03 0 0.05 0 0.02 0 0.03 0 0.05v0.01c0 0.01 0 0.03 0 0.04s0 0.03 0 0.05c0 0.01 0 0.03 0 0.05 0 0.01 0 0.03 0 0.04 0 0.02 0 0.03 0 0.05 0 0.02 0 0.03 0 0.05 0 0.01 0 0.03 0 0.05 0 0.02 0 0.03 0.01 0.04 0 0.02 0 0.03 0 0.05 0 0.02 0 0.03 0.01 0.05 0 0.02 0 0.03 0 0.05 0 0.02 0 0.03 0 0.05 0 0.02 0.01 0.03 0.01 0.05 0 0.02 0 0.03 0.01 0.05 0 0.01 0 0.03 0.01 0.05 0 0.01 0.01 0.03 0.01 0.04 0 0.02 0.01 0.03 0.01 0.05 0 0.02 0.01 0.03 0.01 0.05 0 0.02 0.01 0.03 0.01 0.05 0 0.02 0.01 0.03 0.01 0.05 0 0.01 0.01 0.03 0.01 0.05 0 0.01 0.01 0.03 0.01 0.04 0 0.02 0.01 0.03 0.01 0.05 0 0.02 0.01 0.03 0.01 0.05 0.01 0.02 0.01 0.03 0.01 0.05 0.01 0.01 0.01 0.03 0.01 0.05 0.01 0.02 0.01 0.03 0.01 0.05 0 0.02 0.01 0.03 0.01 0.05 0.01 0.02 0.01 0.03 0.01 0.05l0.01 0.03c-0.11 0.01-0.22 0.02-0.33 0.02-0.09 0-0.18 0.01-0.28 0.01-0.09 0-0.18 0-0.26-0.01-0.18-0.01-0.36-0.02-0.53-0.05-0.1-0.01-0.21-0.03-0.31-0.04-0.08-0.01-0.17-0.03-0.26-0.05-0.08-0.01-0.15-0.03-0.23-0.04-0.07-0.02-0.15-0.03-0.22-0.04-0.08-0.02-0.15-0.03-0.22-0.05-0.07-0.02-0.14-0.03-0.21-0.04l-0.08 0.04-0.09 0.05-0.09 0.07-0.09 0.05L14.63 23.49l-0.09 0.05-0.09 0.05-0.09 0.05-0.09 0.05-0.09 0.05-0.09 0.05-0.09 0.05-0.09 0.05L13.81 23.9l-0.09 0.05-0.09 0.05-0.09 0.05-0.09 0.05-0.09 0.05-0.09 0.05-0.09 0.05-0.09 0.05-0.09 0.05-0.09 0.05-0.07 0.03 0.01-0.03 0.02-0.04 0.01-0.04 0.02-0.05 0.02-0.04 0.01-0.05 0.02-0.04 0.01-0.04 0.02-0.05 0.01-0.04L12.99 23.9l0.01-0.04 0.02-0.05 0.02-0.04 0.02-0.04 0.02-0.04 0.01-0.04 0.02-0.05 0.01-0.04 0.02-0.05 0.02-0.04 0.02-0.04 0.02-0.05 0.01-0.04 0.02-0.05 0.02-0.04 0.01-0.05 0.02-0.04 0.02-0.04 0.02-0.05 0.02-0.04 0.01-0.04 0.02-0.04 0.01-0.05 0.02-0.04 0.02-0.05 0.02-0.04 0.02-0.05 0.02-0.04 0.02-0.05 0.01-0.04 0.02-0.05 0.01-0.02c-0.01-0.01-0.02-0.02-0.03-0.02-0.02-0.01-0.04-0.03-0.06-0.04-0.02-0.02-0.04-0.03-0.06-0.05-0.02-0.01-0.04-0.03-0.06-0.04-0.02-0.02-0.04-0.03-0.06-0.04-0.02-0.02-0.04-0.03-0.06-0.05s-0.04-0.03-0.06-0.04c-0.02-0.02-0.04-0.03-0.06-0.05-0.02-0.02-0.04-0.03-0.06-0.04-0.02-0.02-0.04-0.03-0.05-0.05-0.02-0.01-0.04-0.03-0.06-0.04-0.02-0.01-0.04-0.03-0.05-0.05-0.02-0.01-0.04-0.03-0.05-0.04-0.02-0.02-0.03-0.03-0.05-0.04-0.02-0.02-0.03-0.03-0.05-0.04-0.02-0.02-0.03-0.03-0.05-0.04-0.02-0.02-0.03-0.03-0.05-0.05-0.02-0.01-0.03-0.03-0.05-0.05-0.01-0.01-0.03-0.03-0.05-0.04-0.02-0.02-0.03-0.03-0.04-0.04-0.02-0.02-0.03-0.03-0.05-0.05-0.01-0.01-0.03-0.03-0.04-0.04-0.01-0.02-0.03-0.03-0.04-0.04-0.02-0.02-0.03-0.03-0.04-0.05-0.01-0.02-0.03-0.03-0.04-0.04-0.01-0.02-0.03-0.03-0.04-0.05s-0.03-0.03-0.04-0.04c-0.01-0.02-0.03-0.03-0.04-0.05-0.01-0.02-0.02-0.03-0.04-0.05-0.01-0.02-0.03-0.03-0.04-0.05s-0.02-0.03-0.04-0.04c-0.01-0.01-0.02-0.03-0.03-0.04-0.01-0.02-0.02-0.03-0.04-0.04-0.01-0.02-0.02-0.03-0.04-0.05-0.01-0.02-0.02-0.03-0.03-0.05-0.01-0.01-0.02-0.03-0.04-0.04-0.01-0.02-0.02-0.03-0.03-0.04-0.01-0.02-0.02-0.03-0.03-0.05-0.01-0.02-0.02-0.03-0.03-0.04-0.01-0.02-0.02-0.03-0.03-0.05-0.01-0.02-0.02-0.03-0.03-0.05-0.01-0.01-0.02-0.03-0.03-0.04-0.01-0.02-0.02-0.03-0.03-0.04-0.01-0.02-0.02-0.03-0.03-0.04-0.01-0.02-0.02-0.03-0.02-0.04-0.01-0.02-0.02-0.03-0.02-0.05-0.01-0.01-0.02-0.03-0.03-0.04-0.01-0.02-0.02-0.03-0.02-0.04-0.01-0.02-0.01-0.03-0.02-0.04-0.01-0.02-0.02-0.03-0.02-0.04-0.01-0.02-0.02-0.04-0.02-0.05-0.01-0.02-0.01-0.03-0.02-0.05-0.01-0.01-0.02-0.03-0.02-0.04-0.01-0.02-0.01-0.03-0.02-0.04-0.01-0.01-0.01-0.03-0.02-0.04-0.01-0.02-0.01-0.03-0.02-0.05s-0.01-0.03-0.02-0.05-0.01-0.03-0.02-0.04c-0.01-0.02-0.01-0.03-0.02-0.05-0.01-0.01-0.01-0.03-0.02-0.05-0.01-0.01-0.01-0.03-0.02-0.04s-0.01-0.03-0.02-0.05c0-0.02-0.01-0.03-0.02-0.04 0-0.02-0.01-0.03-0.02-0.04 0-0.02-0.01-0.03-0.01-0.05 0-0.01-0.01-0.03-0.01-0.04s-0.01-0.03-0.01-0.04c0-0.02-0.01-0.03-0.01-0.05 0-0.02-0.01-0.03-0.01-0.05-0.01-0.02-0.01-0.03-0.01-0.04 0-0.01-0.01-0.03-0.01-0.05 0-0.01-0.01-0.03-0.01-0.04 0-0.02-0.01-0.03-0.01-0.05 0-0.01-0.01-0.03-0.01-0.04 0-0.02 0-0.03-0.01-0.04 0-0.02-0.01-0.03-0.01-0.04 0-0.02-0.01-0.03-0.01-0.05 0-0.01-0.01-0.03-0.01-0.04 0-0.02 0-0.03-0.01-0.05 0-0.02 0-0.03-0.01-0.04 0-0.02-0.01-0.03-0.01-0.05 0-0.02 0-0.03-0.01-0.04s0-0.03-0.01-0.04c0-0.02 0-0.03 0-0.05 0-0.02 0-0.03-0.01-0.05 0-0.02 0-0.03 0-0.04 0-0.01 0-0.03-0.01-0.05 0-0.01 0-0.03 0-0.04 0-0.01 0-0.03 0-0.05 0-0.02 0-0.03 0-0.04 0-0.02 0-0.03 0-0.05 0-0.02 0-0.03 0-0.04s0-0.03 0-0.05c0-0.01 0-0.03 0-0.04s0-0.03 0-0.05c0-0.01 0-0.02 0-0.02 0-0.01 0-0.02 0-0.02 0-0.02 0-0.03 0-0.05s0-0.03 0-0.04c0-0.02 0-0.03 0-0.05 0-0.01 0-0.03 0-0.04 0-0.01 0-0.03 0-0.05 0-0.01 0-0.03 0-0.04 0-0.02 0-0.03 0-0.05 0-0.01 0-0.03 0.01-0.04 0-0.02 0-0.03 0-0.05 0-0.02 0-0.03 0-0.04 0-0.01 0-0.03 0.01-0.05s0-0.03 0-0.04c0-0.02 0.01-0.03 0.01-0.05s0-0.03 0.01-0.04 0-0.03 0.01-0.05c0-0.02 0-0.03 0.01-0.04 0-0.01 0.01-0.03 0.01-0.05s0.01-0.03 0.01-0.04 0.01-0.03 0.01-0.04c0-0.02 0.01-0.03 0.01-0.04 0-0.02 0.01-0.03 0.01-0.05 0-0.01 0.01-0.03 0.01-0.04 0-0.02 0.01-0.03 0.01-0.05 0-0.02 0.01-0.03 0.01-0.04 0-0.02 0.01-0.03 0.01-0.05 0.01-0.02 0.01-0.03 0.01-0.04 0.01-0.02 0.01-0.03 0.01-0.05 0-0.01 0.01-0.03 0.01-0.04 0-0.02 0.01-0.03 0.01-0.05s0.01-0.03 0.01-0.04c0.01-0.02 0.01-0.03 0.02-0.05 0-0.02 0.01-0.03 0.02-0.05 0-0.01 0.01-0.03 0.01-0.05 0.01-0.01 0.01-0.03 0.02-0.04 0-0.02 0.01-0.03 0.02-0.04 0.01-0.02 0.01-0.03 0.02-0.04 0.01-0.02 0.01-0.03 0.02-0.05 0.01-0.02 0.01-0.03 0.02-0.04 0.01-0.02 0.01-0.03 0.02-0.05s0.01-0.03 0.02-0.04 0.01-0.03 0.02-0.05 0.01-0.03 0.02-0.04c0.01-0.01 0.01-0.03 0.02-0.05s0.02-0.03 0.02-0.04c0.01-0.01 0.01-0.03 0.02-0.04 0.01-0.02 0.01-0.03 0.02-0.04 0.01-0.02 0.02-0.03 0.02-0.05s0.02-0.03 0.02-0.05c0.01-0.02 0.02-0.03 0.03-0.05 0.01-0.01 0.02-0.03 0.02-0.04 0.01-0.02 0.02-0.03 0.03-0.05 0.01-0.01 0.02-0.03 0.03-0.04 0.01-0.02 0.02-0.03 0.03-0.05 0.01-0.02 0.02-0.03 0.03-0.04 0.01-0.02 0.02-0.03 0.03-0.05 0.01-0.02 0.02-0.03 0.03-0.04 0.01-0.01 0.02-0.03 0.03-0.05 0.01-0.01 0.02-0.03 0.03-0.04 0.01-0.01 0.02-0.03 0.03-0.05 0.01-0.02 0.02-0.03 0.03-0.04 0.01-0.02 0.02-0.03 0.03-0.05 0.01-0.02 0.02-0.03 0.03-0.04 0.01-0.02 0.02-0.03 0.04-0.05 0.01-0.02 0.02-0.03 0.03-0.04 0.01-0.02 0.02-0.03 0.04-0.05s0.02-0.03 0.04-0.04 0.02-0.03 0.04-0.05c0.01-0.02 0.02-0.03 0.04-0.04 0.01-0.02 0.02-0.03 0.04-0.05 0.01-0.01 0.03-0.03 0.04-0.04 0.01-0.02 0.03-0.03 0.04-0.04 0.01-0.02 0.03-0.03 0.04-0.05 0.01-0.02 0.03-0.03 0.04-0.05 0.01-0.01 0.03-0.03 0.04-0.04 0.02-0.02 0.03-0.03 0.04-0.04 0.02-0.02 0.03-0.03 0.05-0.04 0.02-0.02 0.03-0.03 0.05-0.05 0.02-0.01 0.03-0.03 0.05-0.04 0.02-0.02 0.03-0.03 0.05-0.05 0.01-0.02 0.03-0.03 0.05-0.04 0.02-0.02 0.03-0.03 0.05-0.05 0.02-0.01 0.04-0.03 0.05-0.04s0.04-0.03 0.05-0.04c0.02-0.02 0.04-0.03 0.05-0.05 0.02-0.01 0.04-0.03 0.06-0.05 0.02-0.01 0.04-0.03 0.06-0.04s0.04-0.03 0.06-0.05c0.02-0.02 0.04-0.03 0.06-0.04 0.02-0.02 0.04-0.03 0.06-0.04 0.02-0.02 0.04-0.03 0.06-0.04 0.02-0.02 0.04-0.03 0.07-0.05 0.02-0.01 0.04-0.03 0.06-0.04 0.02-0.02 0.05-0.03 0.07-0.05 0.02-0.01 0.05-0.03 0.07-0.04s0.05-0.03 0.07-0.05c0.02-0.01 0.05-0.03 0.07-0.04 0.02-0.02 0.05-0.03 0.07-0.05 0.03-0.01 0.05-0.03 0.08-0.04 0.03-0.02 0.05-0.03 0.08-0.05 0.03-0.01 0.06-0.03 0.08-0.04s0.06-0.03 0.09-0.05c0.03-0.01 0.06-0.03 0.09-0.04 0.03-0.01 0.06-0.03 0.09-0.04 0.03-0.02 0.06-0.03 0.1-0.04 0.03-0.02 0.07-0.03 0.1-0.05 0.04-0.02 0.07-0.03 0.1-0.04 0.04-0.02 0.07-0.03 0.11-0.05 0.04-0.02 0.08-0.03 0.12-0.04 0.04-0.02 0.08-0.03 0.12-0.05 0.04-0.01 0.08-0.03 0.13-0.04 0.05-0.02 0.09-0.03 0.14-0.04 0.05-0.02 0.1-0.03 0.14-0.04 0.05-0.02 0.1-0.03 0.16-0.05 0.06-0.01 0.11-0.03 0.17-0.04 0.06-0.02 0.13-0.03 0.19-0.04 0.07-0.02 0.14-0.03 0.22-0.05 0.09-0.02 0.17-0.03 0.26-0.04 0.11-0.05 0.22-0.06 0.33-0.08 0.28-0.03 0.56-0.05 0.84-0.05h0.06c0.29 0 0.57 0.02 0.85 0.05 0.11 0.01 0.22 0.03 0.33 0.05 0.09 0.02 0.18 0.03 0.26 0.05 0.08 0.01 0.15 0.03 0.22 0.05 0.06 0.01 0.13 0.03 0.19 0.04 0.06 0.02 0.11 0.03 0.17 0.05 0.05 0.02 0.11 0.03 0.16 0.05 0.05 0.01 0.1 0.03 0.15 0.05 0.04 0.02 0.09 0.03 0.14 0.05 0.04 0.02 0.09 0.03 0.13 0.05 0.04 0.02 0.08 0.03 0.12 0.05 0.04 0.02 0.08 0.03 0.12 0.05 0.04 0.01 0.07 0.03 0.11 0.05 0.04 0.02 0.07 0.03 0.11 0.05 0.03 0.02 0.07 0.03 0.1 0.05 0.03 0.02 0.06 0.03 0.1 0.05 0.03 0.02 0.06 0.03 0.09 0.05 0.03 0.02 0.06 0.03 0.09 0.05 0.03 0.01 0.06 0.03 0.09 0.05 0.03 0.01 0.06 0.03 0.09 0.05 0.03 0.02 0.05 0.03 0.08 0.05 0.03 0.02 0.05 0.03 0.08 0.05 0.03 0.02 0.05 0.03 0.08 0.05 0.02 0.02 0.05 0.03 0.07 0.05 0.03 0.01 0.05 0.03 0.07 0.05 0.03 0.01 0.05 0.03 0.07 0.05s0.05 0.03 0.07 0.05c0.03 0.02 0.05 0.03 0.07 0.05 0.02 0.02 0.04 0.03 0.06 0.05 0.02 0.02 0.04 0.03 0.06 0.05 0.02 0.01 0.04 0.03 0.06 0.05 0.02 0.01 0.04 0.03 0.06 0.05 0.02 0.01 0.04 0.03 0.06 0.04 0.02 0.02 0.04 0.03 0.06 0.05s0.04 0.03 0.06 0.05c0.02 0.02 0.04 0.03 0.06 0.05 0.02 0.01 0.04 0.03 0.06 0.05 0.02 0.02 0.03 0.03 0.05 0.05 0.02 0.01 0.03 0.03 0.05 0.05 0.02 0.02 0.03 0.03 0.05 0.05 0.02 0.01 0.03 0.03 0.05 0.05 0.02 0.02 0.03 0.03 0.05 0.05s0.03 0.03 0.05 0.04c0.02 0.02 0.03 0.03 0.04 0.05 0.02 0.01 0.03 0.03 0.05 0.05 0.01 0.01 0.03 0.03 0.04 0.05s0.03 0.03 0.04 0.05c0.02 0.01 0.03 0.03 0.04 0.05 0.02 0.01 0.03 0.03 0.04 0.04 0.01 0.02 0.03 0.03 0.04 0.05s0.03 0.03 0.04 0.05c0.01 0.02 0.02 0.03 0.04 0.05 0.02 0.01 0.03 0.03 0.04 0.05 0.01 0.01 0.03 0.03 0.04 0.05s0.03 0.03 0.04 0.04c0.01 0.02 0.03 0.03 0.04 0.05 0.01 0.02 0.03 0.03 0.04 0.05 0.01 0.02 0.02 0.03 0.04 0.05 0.01 0.02 0.02 0.03 0.03 0.05 0.01 0.01 0.02 0.03 0.03 0.05 0.01 0.01 0.02 0.03 0.03 0.05 0.01 0.02 0.02 0.03 0.03 0.05 0.01 0.01 0.02 0.03 0.03 0.05 0.01 0.02 0.02 0.03 0.03 0.05 0.01 0.01 0.02 0.03 0.03 0.04 0.01 0.02 0.02 0.03 0.03 0.05 0.01 0.01 0.02 0.03 0.03 0.05 0.01 0.02 0.02 0.03 0.03 0.05 0.01 0.01 0.02 0.03 0.03 0.05 0.01 0.02 0.02 0.03 0.02 0.05 0.01 0.01 0.02 0.03 0.03 0.04 0.01 0.02 0.02 0.03 0.02 0.05s0.02 0.03 0.02 0.05c0.01 0.01 0.02 0.03 0.02 0.05 0.01 0.02 0.01 0.03 0.02 0.05 0.01 0.02 0.01 0.03 0.02 0.05 0.01 0.01 0.01 0.03 0.02 0.05 0.01 0.02 0.02 0.03 0.02 0.05 0.01 0.01 0.01 0.03 0.02 0.05 0.01 0.02 0.01 0.03 0.02 0.05 0.01 0.01 0.01 0.03 0.02 0.05 0.01 0.02 0.01 0.03 0.02 0.05 0.01 0.02 0.01 0.03 0.02 0.05 0.01 0.02 0.01 0.03 0.02 0.05 0.01 0.01 0.01 0.03 0.02 0.04 0.01 0.02 0.01 0.03 0.02 0.05 0.01 0.02 0.01 0.03 0.02 0.05 0.01 0.02 0.01 0.03 0.02 0.05 0 0.01 0.01 0.03 0.02 0.05 0 0.01 0.01 0.03 0.01 0.04 0.01 0.02 0.01 0.03 0.02 0.05 0.01 0.02 0.01 0.03 0.01 0.05s0.01 0.03 0.01 0.05c0.01 0.02 0.01 0.03 0.02 0.05 0 0.01 0.01 0.03 0.01 0.05 0 0.02 0.01 0.03 0.01 0.05 0 0.01 0.01 0.03 0.01 0.05 0 0.02 0.01 0.03 0.01 0.05 0 0.01 0 0.02 0.01 0.03-0.11-0.01-0.23-0.02-0.35-0.03-0.09-0.01-0.18-0.01-0.27-0.01-0.1 0-0.2 0-0.3 0.01-0.17 0.01-0.34 0.02-0.5 0.05-0.1 0.01-0.19 0.03-0.29 0.05-0.08 0.01-0.15 0.03-0.22 0.05-0.06 0.01-0.13 0.03-0.19 0.05-0.06 0.02-0.11 0.03-0.16 0.05-0.05 0.01-0.1 0.03-0.15 0.05-0.04 0.01-0.09 0.03-0.13 0.05-0.04 0.01-0.08 0.03-0.13 0.05-0.04 0.01-0.08 0.03-0.12 0.05-0.04 0.02-0.07 0.03-0.11 0.05-0.04 0.01-0.07 0.03-0.11 0.05-0.03 0.02-0.06 0.03-0.1 0.05-0.03 0.01-0.06 0.03-0.09 0.05-0.03 0.01-0.06 0.03-0.09 0.05-0.03 0.01-0.06 0.03-0.09 0.05-0.03 0.01-0.05 0.03-0.08 0.04-0.03 0.02-0.05 0.03-0.08 0.05-0.02 0.02-0.05 0.03-0.08 0.05-0.02 0.02-0.05 0.03-0.07 0.05-0.03 0.02-0.05 0.03-0.07 0.05-0.02 0.02-0.05 0.03-0.07 0.05-0.02 0.02-0.04 0.03-0.07 0.05-0.02 0.01-0.04 0.03-0.06 0.05-0.02 0.02-0.04 0.03-0.06 0.05-0.02 0.02-0.04 0.03-0.06 0.05-0.02 0.01-0.04 0.03-0.06 0.05-0.02 0.01-0.04 0.03-0.06 0.04-0.02 0.02-0.04 0.03-0.06 0.05s-0.04 0.03-0.05 0.05c-0.02 0.02-0.04 0.03-0.05 0.05-0.02 0.02-0.03 0.03-0.05 0.05-0.02 0.02-0.04 0.03-0.05 0.05-0.02 0.02-0.03 0.03-0.05 0.05-0.01 0.01-0.03 0.03-0.05 0.05-0.02 0.02-0.03 0.03-0.05 0.05-0.01 0.02-0.03 0.03-0.05 0.05-0.01 0.01-0.03 0.03-0.04 0.05-0.01 0.02-0.03 0.03-0.04 0.05-0.02 0.01-0.03 0.03-0.04 0.05-0.01 0.02-0.03 0.03-0.04 0.05-0.01 0.02-0.03 0.03-0.04 0.05s-0.03 0.03-0.04 0.05c-0.01 0.01-0.03 0.03-0.04 0.05-0.01 0.01-0.02 0.03-0.04 0.04-0.01 0.02-0.02 0.03-0.04 0.05-0.01 0.02-0.02 0.03-0.03 0.04-0.01 0.02-0.02 0.03-0.04 0.05-0.01 0.02-0.02 0.03-0.03 0.05-0.01 0.01-0.02 0.03-0.04 0.05-0.01 0.01-0.02 0.03-0.03 0.05-0.01 0.02-0.02 0.03-0.03 0.05-0.01 0.02-0.02 0.03-0.03 0.05-0.01 0.02-0.02 0.03-0.03 0.05-0.01 0.02-0.02 0.03-0.03 0.04-0.01 0.02-0.02 0.03-0.03 0.05-0.01 0.02-0.02 0.03-0.03 0.05-0.01 0.02-0.02 0.03-0.03 0.05-0.01 0.01-0.02 0.03-0.02 0.05-0.01 0.02-0.02 0.03-0.02 0.05-0.01 0.01-0.02 0.03-0.03 0.04-0.01 0.02-0.02 0.03-0.02 0.05s-0.02 0.03-0.02 0.05c-0.01 0.01-0.02 0.03-0.02 0.05-0.01 0.02-0.01 0.03-0.02 0.05-0.01 0.02-0.02 0.03-0.02 0.05-0.01 0.01-0.01 0.03-0.02 0.05-0.01 0.02-0.01 0.03-0.02 0.05-0.01 0.01-0.01 0.03-0.02 0.04-0.01 0.02-0.02 0.03-0.02 0.05C18.14 20.28 18.13 20.3 18.12 20.31zM29.11 22.11v0.03 0.04 0.01c0 0.01 0 0.02 0 0.03 0 0.02 0 0.03 0 0.04 0 0.01 0 0.03 0 0.04C29.1 22.31 29.1 22.32 29.1 22.33c0 0.01 0 0.03 0 0.04 0 0.01 0 0.03 0 0.04 0 0.01 0 0.03 0 0.04s0 0.03 0 0.04c0 0.01 0 0.03 0 0.04 0 0.01 0 0.03-0.01 0.04 0 0.01 0 0.02 0 0.04 0 0.01-0.01 0.03-0.01 0.04 0 0.01 0 0.03-0.01 0.04 0 0.02-0.01 0.03-0.01 0.04 0 0.01-0.01 0.03-0.01 0.04 0 0.01-0.01 0.03-0.01 0.04 0 0.01-0.01 0.03-0.01 0.04 0 0.01-0.01 0.03-0.01 0.04 0 0.01-0.01 0.02-0.01 0.04 0 0.02-0.01 0.03-0.01 0.04 0 0.01-0.01 0.03-0.01 0.04 0 0.01-0.01 0.03-0.01 0.04 0 0.02-0.01 0.03-0.01 0.04 0 0.01-0.01 0.03-0.01 0.04 0 0.01-0.01 0.03-0.01 0.04 0 0.01-0.01 0.03-0.01 0.04-0.01 0.02-0.01 0.03-0.01 0.04 0 0.01-0.01 0.03-0.02 0.04 0 0.01-0.01 0.03-0.01 0.04-0.01 0.01-0.01 0.03-0.01 0.04-0.01 0.01-0.01 0.03-0.02 0.04-0.01 0.01-0.01 0.03-0.01 0.04-0.01 0.01-0.01 0.03-0.02 0.04-0.01 0.01-0.01 0.03-0.02 0.04-0.01 0.01-0.01 0.03-0.02 0.04-0.01 0.01-0.01 0.03-0.02 0.04-0.01 0.01-0.01 0.02-0.02 0.04-0.01 0.01-0.01 0.03-0.02 0.04s-0.01 0.03-0.02 0.04c-0.01 0.01-0.01 0.02-0.02 0.04s-0.01 0.03-0.02 0.04-0.01 0.03-0.02 0.04c-0.01 0.02-0.02 0.03-0.02 0.04-0.01 0.01-0.01 0.03-0.02 0.04-0.01 0.01-0.01 0.03-0.02 0.04-0.01 0.01-0.01 0.03-0.02 0.04-0.01 0.01-0.01 0.03-0.02 0.04-0.01 0.01-0.02 0.03-0.02 0.04s-0.02 0.03-0.02 0.04c-0.01 0.01-0.02 0.03-0.02 0.04-0.01 0.01-0.02 0.03-0.02 0.04-0.01 0.02-0.02 0.03-0.03 0.04s-0.02 0.03-0.03 0.04c-0.01 0.02-0.02 0.03-0.03 0.04-0.01 0.02-0.02 0.03-0.03 0.04-0.01 0.02-0.02 0.03-0.03 0.04-0.01 0.01-0.02 0.02-0.03 0.04-0.01 0.01-0.02 0.03-0.03 0.04-0.01 0.01-0.02 0.03-0.03 0.04-0.01 0.01-0.02 0.03-0.03 0.04-0.01 0.02-0.02 0.03-0.03 0.04-0.01 0.01-0.02 0.03-0.03 0.04-0.01 0.01-0.02 0.03-0.03 0.04-0.01 0.01-0.02 0.03-0.03 0.04-0.01 0.01-0.02 0.03-0.03 0.04-0.01 0.01-0.02 0.03-0.03 0.04-0.01 0.01-0.02 0.03-0.03 0.04-0.01 0.01-0.02 0.03-0.04 0.04-0.01 0.01-0.02 0.03-0.03 0.04s-0.02 0.03-0.04 0.04c-0.01 0.01-0.02 0.03-0.04 0.04-0.01 0.01-0.02 0.03-0.04 0.04-0.01 0.02-0.02 0.03-0.04 0.04-0.01 0.01-0.03 0.03-0.04 0.04-0.01 0.01-0.02 0.03-0.04 0.04s-0.03 0.03-0.04 0.04c-0.01 0.01-0.02 0.03-0.04 0.04-0.01 0.01-0.03 0.03-0.04 0.04-0.01 0.01-0.02 0.03-0.04 0.04-0.02 0.01-0.03 0.03-0.04 0.04-0.02 0.01-0.03 0.03-0.04 0.04-0.01 0.01-0.03 0.03-0.04 0.04-0.02 0.01-0.03 0.03-0.04 0.04-0.02 0.01-0.03 0.03-0.04 0.04-0.02 0.01-0.03 0.03-0.05 0.04-0.01 0.01-0.03 0.02-0.04 0.04-0.01 0.01-0.03 0.02-0.04 0.04-0.02 0.01-0.03 0.03-0.05 0.04-0.02 0.01-0.03 0.03-0.05 0.04-0.02 0.01-0.03 0.03-0.05 0.04-0.02 0.01-0.03 0.02-0.05 0.04-0.01 0.01-0.03 0.03-0.05 0.04-0.02 0.01-0.03 0.03-0.05 0.04-0.02 0.01-0.03 0.03-0.05 0.04l-0.02 0.01 0.01 0.03 0.01 0.04 0.01 0.04L26.89 26l0.01 0.04 0.01 0.04 0.01 0.04 0.01 0.04 0.01 0.04 0.01 0.04 0.01 0.04 0.01 0.04 0.01 0.04 0.01 0.04 0.01 0.04 0.01 0.04 0.01 0.04 0.01 0.04 0.01 0.04 0.01 0.04 0.01 0.04 0.01 0.04 0.01 0.04 0.01 0.04 0.01 0.04 0.01 0.04 0.01 0.04 0.01 0.04 0.01 0.04 0.01 0.04 0.01 0.04 0.01 0.04 0.01 0.04 0.01 0.04 0.01 0.04 0.01 0.04 0.01 0.04 0.01 0.04 0.01 0.04 0.01 0.04 0.01 0.04 0.01 0.03-0.05-0.03-0.07-0.04-0.07-0.04-0.07-0.04-0.07-0.04-0.07-0.04-0.07-0.04-0.07-0.04-0.07-0.04-0.07-0.04-0.07-0.04-0.07-0.04-0.07-0.04-0.07-0.04-0.07-0.04-0.07-0.04-0.07-0.04-0.07-0.04-0.07-0.04-0.07-0.04-0.07-0.04-0.07-0.04-0.07-0.04-0.07-0.04-0.07-0.04-0.01-0.01-0.02 0.01c-0.05 0.01-0.1 0.03-0.16 0.04-0.05 0.01-0.1 0.03-0.16 0.04-0.05 0.01-0.11 0.03-0.16 0.04-0.06 0.01-0.11 0.02-0.17 0.04-0.06 0.01-0.12 0.03-0.19 0.04-0.07 0.01-0.14 0.03-0.21 0.04-0.08 0.01-0.16 0.03-0.25 0.04-0.13 0.02-0.27 0.03-0.4 0.04-0.07 0-0.14 0.01-0.22 0.01-0.1 0-0.19 0-0.28-0.01-0.16-0.01-0.32-0.02-0.48-0.04-0.09-0.01-0.19-0.03-0.28-0.04-0.07-0.01-0.14-0.02-0.22-0.04-0.06-0.01-0.12-0.02-0.18-0.04-0.05-0.01-0.11-0.02-0.16-0.04-0.05-0.01-0.1-0.02-0.14-0.04-0.04-0.01-0.09-0.02-0.13-0.04-0.04-0.01-0.08-0.03-0.12-0.04-0.04-0.01-0.07-0.03-0.11-0.04-0.04-0.02-0.07-0.03-0.11-0.04-0.03-0.01-0.07-0.02-0.1-0.04-0.03-0.01-0.07-0.02-0.1-0.04-0.03-0.01-0.06-0.02-0.09-0.04-0.03-0.01-0.06-0.03-0.09-0.04-0.03-0.01-0.06-0.02-0.08-0.04-0.03-0.01-0.06-0.03-0.08-0.04s-0.05-0.03-0.08-0.04c-0.02-0.01-0.05-0.03-0.07-0.04-0.02-0.01-0.05-0.02-0.07-0.04-0.02-0.02-0.04-0.03-0.07-0.04-0.02-0.01-0.04-0.02-0.07-0.04s-0.04-0.02-0.07-0.04c-0.02-0.01-0.04-0.02-0.06-0.04s-0.04-0.02-0.06-0.04-0.04-0.03-0.06-0.04c-0.02-0.01-0.04-0.03-0.06-0.04-0.02-0.01-0.04-0.02-0.06-0.04-0.02-0.02-0.04-0.03-0.05-0.04-0.02-0.01-0.04-0.02-0.05-0.04-0.02-0.01-0.03-0.03-0.05-0.04-0.02-0.02-0.03-0.03-0.05-0.04-0.02-0.02-0.03-0.03-0.05-0.04-0.02-0.01-0.03-0.02-0.05-0.04-0.01-0.01-0.03-0.02-0.05-0.04-0.01-0.01-0.03-0.02-0.04-0.04-0.01-0.01-0.03-0.02-0.04-0.04-0.01-0.01-0.03-0.02-0.04-0.04-0.01-0.01-0.03-0.03-0.04-0.04-0.01-0.01-0.03-0.02-0.04-0.04s-0.03-0.02-0.04-0.04-0.02-0.02-0.04-0.04c-0.01-0.02-0.02-0.03-0.04-0.04s-0.02-0.02-0.04-0.04c-0.01-0.01-0.02-0.02-0.04-0.04-0.01-0.01-0.02-0.02-0.04-0.04-0.01-0.02-0.02-0.03-0.04-0.04-0.01-0.01-0.02-0.03-0.04-0.04-0.01-0.01-0.02-0.03-0.03-0.04-0.01-0.02-0.02-0.03-0.03-0.04-0.01-0.02-0.02-0.03-0.03-0.04-0.01-0.02-0.02-0.03-0.03-0.04-0.01-0.01-0.02-0.03-0.03-0.04-0.01-0.01-0.02-0.02-0.03-0.04-0.01-0.01-0.02-0.02-0.03-0.04-0.01-0.01-0.02-0.02-0.03-0.04-0.01-0.01-0.02-0.03-0.03-0.04-0.01-0.01-0.02-0.02-0.03-0.04-0.01-0.01-0.02-0.02-0.03-0.04-0.01-0.01-0.02-0.03-0.03-0.04-0.01-0.01-0.02-0.02-0.03-0.04-0.01-0.02-0.02-0.03-0.02-0.04-0.01-0.01-0.02-0.03-0.02-0.04-0.01-0.01-0.02-0.02-0.02-0.04-0.01-0.01-0.02-0.03-0.02-0.04-0.01-0.01-0.02-0.03-0.02-0.04-0.01-0.01-0.01-0.03-0.02-0.04-0.01-0.02-0.01-0.02-0.02-0.04-0.01-0.01-0.02-0.02-0.02-0.04-0.01-0.01-0.01-0.02-0.02-0.04s-0.01-0.03-0.02-0.04c-0.01-0.01-0.01-0.02-0.02-0.04-0.01-0.01-0.01-0.03-0.02-0.04-0.01-0.01-0.01-0.02-0.02-0.04-0.01-0.01-0.01-0.03-0.02-0.04-0.01-0.01-0.01-0.02-0.02-0.04-0.01-0.01-0.01-0.03-0.02-0.04-0.01-0.01-0.01-0.02-0.02-0.04 0-0.02-0.01-0.03-0.02-0.04 0-0.01-0.01-0.03-0.02-0.04-0.01-0.02-0.01-0.03-0.02-0.04 0-0.01-0.01-0.03-0.02-0.04s-0.01-0.03-0.02-0.04c0-0.01-0.01-0.02-0.01-0.04s-0.01-0.03-0.02-0.04c0-0.01-0.01-0.02-0.01-0.04 0-0.01-0.01-0.02-0.01-0.04-0.01-0.01-0.01-0.02-0.01-0.04 0-0.01-0.01-0.03-0.01-0.04 0-0.01-0.01-0.02-0.01-0.04 0-0.01-0.01-0.02-0.01-0.04 0-0.01-0.01-0.02-0.01-0.04 0-0.01-0.01-0.02-0.01-0.04 0-0.01-0.01-0.02-0.01-0.04 0-0.01-0.01-0.02-0.01-0.04 0-0.01-0.01-0.02-0.01-0.04 0-0.02-0.01-0.03-0.01-0.04 0-0.01 0-0.02-0.01-0.04 0-0.02 0-0.03-0.01-0.04 0-0.01 0-0.03-0.01-0.04 0-0.01 0-0.03-0.01-0.04s-0.01-0.02-0.01-0.04c0-0.02 0-0.03-0.01-0.04 0-0.01 0-0.03 0-0.04 0 0-0.01-0.02-0.01-0.03 0-0.01 0-0.02-0.01-0.04s0-0.02-0.01-0.04c0-0.01 0-0.02 0-0.04s0-0.02-0.01-0.04c0-0.01 0-0.02 0-0.04 0-0.01 0-0.02 0-0.04 0-0.01 0-0.03 0-0.04 0-0.01 0-0.02 0-0.04 0-0.01 0-0.02 0-0.04 0-0.01 0-0.02 0-0.04 0-0.01 0-0.03 0-0.04l0-0.04c0-0.01 0-0.03 0-0.04 0-0.01 0-0.03 0-0.04V22.17c0-0.01 0-0.02 0-0.04 0-0.01 0-0.02 0-0.04s0-0.03 0-0.04c0-0.01 0-0.02 0-0.04 0-0.01 0-0.03 0-0.04 0-0.01 0-0.02 0-0.04 0-0.01 0-0.03 0-0.04 0-0.01 0-0.03 0-0.04 0-0.01 0-0.02 0-0.04 0-0.01 0-0.03 0-0.04 0-0.01 0-0.02 0-0.04 0-0.01 0-0.03 0-0.04 0-0.01 0-0.02 0.01-0.04 0-0.01 0-0.02 0.01-0.04 0-0.01 0-0.02 0-0.04 0-0.01 0-0.02 0.01-0.04 0-0.01 0-0.02 0.01-0.04s0.01-0.02 0.01-0.04c0-0.01 0.01-0.02 0.01-0.04s0-0.02 0.01-0.04c0-0.01 0.01-0.03 0.01-0.04 0-0.01 0.01-0.02 0.01-0.04 0-0.01 0.01-0.02 0.01-0.04s0.01-0.03 0.01-0.04c0-0.01 0.01-0.03 0.01-0.04 0-0.01 0.01-0.03 0.01-0.04 0-0.01 0.01-0.03 0.01-0.04 0-0.01 0.01-0.03 0.01-0.04 0-0.01 0.01-0.02 0.01-0.04 0-0.01 0.01-0.03 0.01-0.04 0-0.01 0.01-0.03 0.01-0.04 0-0.01 0.01-0.02 0.02-0.04 0-0.01 0.01-0.03 0.01-0.04 0.01-0.01 0.01-0.03 0.02-0.04 0-0.01 0.01-0.02 0.01-0.04 0.01-0.02 0.01-0.03 0.01-0.04 0.01-0.01 0.01-0.02 0.01-0.04 0.01-0.01 0.01-0.02 0.02-0.04 0.01-0.01 0.01-0.02 0.01-0.04 0-0.01 0.01-0.02 0.02-0.04s0.01-0.02 0.02-0.04c0.01-0.01 0.01-0.02 0.02-0.04 0.01-0.01 0.01-0.02 0.02-0.04 0.01-0.01 0.01-0.03 0.02-0.04 0.01-0.01 0.01-0.03 0.02-0.04 0.01-0.01 0.01-0.02 0.02-0.04 0.01-0.01 0.01-0.02 0.02-0.04 0.01-0.02 0.01-0.02 0.02-0.04 0.01-0.01 0.01-0.02 0.02-0.04s0.01-0.03 0.02-0.04c0.01-0.01 0.02-0.03 0.02-0.04 0.01-0.01 0.01-0.03 0.02-0.04 0.01-0.01 0.02-0.03 0.02-0.04 0.01-0.01 0.02-0.02 0.02-0.04 0.01-0.01 0.01-0.03 0.02-0.04 0.01-0.01 0.02-0.03 0.02-0.04 0.01-0.01 0.02-0.03 0.02-0.04 0.01-0.02 0.01-0.03 0.02-0.04 0.01-0.02 0.02-0.03 0.03-0.04 0.01-0.01 0.02-0.03 0.03-0.04s0.02-0.02 0.03-0.04c0.01-0.01 0.02-0.03 0.03-0.04 0.01-0.01 0.02-0.03 0.03-0.04 0.01-0.01 0.02-0.03 0.03-0.04 0.01-0.01 0.02-0.03 0.03-0.04s0.02-0.02 0.03-0.04c0.01-0.01 0.02-0.03 0.03-0.04 0.01-0.01 0.02-0.03 0.03-0.04 0.01-0.01 0.02-0.02 0.03-0.04 0.01-0.01 0.02-0.02 0.03-0.04 0.01-0.01 0.02-0.03 0.03-0.04 0.01-0.01 0.02-0.02 0.03-0.04 0.01-0.01 0.02-0.02 0.03-0.04s0.02-0.02 0.04-0.04c0.01-0.01 0.02-0.02 0.03-0.04 0.01-0.01 0.02-0.02 0.04-0.04 0.01-0.01 0.02-0.02 0.04-0.04 0.01-0.02 0.02-0.02 0.04-0.04 0.01-0.01 0.03-0.02 0.04-0.04 0.01-0.01 0.02-0.02 0.04-0.04 0.01-0.01 0.03-0.02 0.04-0.04 0.02-0.01 0.03-0.02 0.04-0.03s0.03-0.02 0.04-0.04c0.01-0.01 0.03-0.02 0.04-0.04 0.01-0.01 0.03-0.02 0.05-0.04 0.01-0.01 0.03-0.03 0.04-0.04 0.02-0.01 0.03-0.02 0.05-0.04 0.02-0.01 0.03-0.03 0.05-0.04 0.02-0.01 0.03-0.02 0.05-0.04s0.03-0.03 0.05-0.04c0.02-0.01 0.03-0.02 0.05-0.04 0.02-0.01 0.03-0.02 0.05-0.04 0.02-0.01 0.04-0.03 0.05-0.04 0.02-0.01 0.04-0.03 0.06-0.04 0.02-0.01 0.04-0.02 0.06-0.04 0.02-0.01 0.04-0.03 0.06-0.04 0.02-0.02 0.04-0.03 0.06-0.04 0.02-0.01 0.04-0.03 0.06-0.04s0.04-0.02 0.06-0.04c0.02-0.01 0.04-0.03 0.07-0.04 0.02-0.01 0.04-0.03 0.07-0.04 0.02-0.01 0.05-0.03 0.07-0.04 0.03-0.01 0.05-0.02 0.07-0.04 0.02-0.01 0.05-0.02 0.07-0.04 0.03-0.01 0.05-0.03 0.08-0.04 0.03-0.01 0.06-0.02 0.08-0.04 0.03-0.01 0.06-0.02 0.08-0.04 0.03-0.01 0.06-0.03 0.08-0.04 0.03-0.01 0.06-0.02 0.09-0.04 0.03-0.01 0.06-0.02 0.1-0.04 0.03-0.01 0.07-0.02 0.1-0.04 0.04-0.02 0.07-0.02 0.11-0.04 0.04-0.01 0.08-0.02 0.12-0.04 0.04-0.01 0.08-0.02 0.12-0.04 0.05-0.01 0.09-0.02 0.14-0.04 0.05-0.01 0.1-0.02 0.14-0.04 0.06-0.02 0.11-0.02 0.16-0.04 0.06-0.01 0.12-0.03 0.18-0.04 0.07-0.01 0.15-0.02 0.22-0.04 0.09-0.02 0.19-0.03 0.28-0.04 0.24-0.02 0.48-0.04 0.73-0.04h0.03c0.23 0 0.47 0.02 0.69 0.04 0.09 0.01 0.18 0.02 0.27 0.04 0.07 0.01 0.14 0.03 0.22 0.04 0.06 0.01 0.12 0.03 0.18 0.04 0.05 0.02 0.11 0.02 0.16 0.04 0.05 0.01 0.09 0.03 0.14 0.04 0.05 0.01 0.09 0.03 0.13 0.04 0.04 0.01 0.08 0.03 0.12 0.04 0.04 0.01 0.07 0.03 0.11 0.04 0.04 0.02 0.07 0.03 0.11 0.04 0.03 0.01 0.07 0.02 0.1 0.04 0.03 0.02 0.06 0.03 0.09 0.04 0.03 0.01 0.06 0.03 0.09 0.04 0.03 0.01 0.06 0.03 0.09 0.04 0.03 0.01 0.06 0.03 0.08 0.04 0.03 0.02 0.05 0.03 0.08 0.04 0.03 0.01 0.05 0.03 0.08 0.04 0.03 0.01 0.05 0.03 0.07 0.04 0.02 0.02 0.05 0.03 0.07 0.04 0.02 0.01 0.05 0.03 0.07 0.04 0.02 0.01 0.04 0.03 0.07 0.04 0.02 0.01 0.05 0.03 0.07 0.04 0.02 0.01 0.04 0.02 0.06 0.04s0.04 0.03 0.06 0.04c0.02 0.01 0.04 0.02 0.06 0.04 0.02 0.01 0.04 0.03 0.06 0.04 0.02 0.01 0.04 0.03 0.06 0.04 0.02 0.01 0.04 0.03 0.06 0.04 0.02 0.01 0.04 0.03 0.06 0.04 0.02 0.01 0.04 0.03 0.06 0.04 0.02 0.02 0.04 0.03 0.05 0.04 0.02 0.01 0.03 0.03 0.05 0.04 0.02 0.01 0.03 0.02 0.05 0.04 0.02 0.01 0.03 0.03 0.05 0.04s0.03 0.03 0.05 0.04c0.02 0.01 0.03 0.03 0.05 0.04 0.02 0.01 0.03 0.03 0.04 0.04 0.02 0.01 0.03 0.03 0.05 0.04 0.01 0.02 0.03 0.03 0.05 0.04 0.01 0.01 0.03 0.03 0.04 0.04 0.01 0.01 0.03 0.03 0.04 0.04 0.01 0.02 0.03 0.03 0.04 0.04 0.01 0.01 0.03 0.02 0.04 0.04 0.01 0.02 0.03 0.03 0.04 0.04 0.01 0.01 0.02 0.03 0.04 0.04 0.01 0.02 0.03 0.03 0.04 0.04 0.01 0.01 0.02 0.03 0.04 0.04 0.01 0.02 0.02 0.03 0.04 0.04 0.01 0.01 0.02 0.03 0.03 0.04 0.01 0.02 0.02 0.03 0.04 0.04 0.01 0.01 0.02 0.03 0.03 0.04 0.01 0.01 0.02 0.03 0.03 0.04 0.01 0.01 0.02 0.03 0.03 0.04 0.01 0.01 0.02 0.03 0.03 0.04 0.01 0.01 0.02 0.03 0.03 0.04 0.01 0.02 0.02 0.03 0.03 0.04 0.01 0.01 0.02 0.03 0.03 0.04 0.01 0.01 0.02 0.03 0.03 0.04 0.01 0.01 0.02 0.02 0.03 0.04 0.01 0.01 0.02 0.03 0.03 0.04 0.01 0.01 0.02 0.02 0.03 0.04 0.01 0.01 0.02 0.03 0.03 0.04 0.01 0.01 0.02 0.03 0.03 0.04s0.02 0.03 0.02 0.04c0.01 0.02 0.02 0.03 0.03 0.04 0.01 0.01 0.02 0.03 0.02 0.04s0.02 0.03 0.02 0.04c0.01 0.01 0.02 0.03 0.02 0.04 0.01 0.01 0.02 0.03 0.02 0.04 0.01 0.01 0.02 0.03 0.02 0.04 0.01 0.01 0.02 0.02 0.02 0.04 0 0.01 0.01 0.03 0.02 0.04 0.01 0.01 0.02 0.03 0.02 0.04 0.01 0.01 0.01 0.03 0.02 0.04 0.01 0.01 0.01 0.03 0.02 0.04 0.01 0.02 0.01 0.03 0.02 0.04 0.01 0.01 0.01 0.03 0.02 0.04 0.01 0.01 0.01 0.03 0.02 0.04 0.01 0.01 0.01 0.03 0.02 0.04 0.01 0.02 0.01 0.03 0.02 0.04 0 0.01 0.01 0.03 0.02 0.04 0.01 0.01 0.01 0.03 0.02 0.04 0 0.01 0.01 0.03 0.01 0.04 0.01 0.01 0.01 0.03 0.02 0.04 0 0.01 0.01 0.03 0.01 0.04 0 0.01 0.01 0.03 0.01 0.04 0.01 0.01 0.01 0.03 0.02 0.04 0.01 0.02 0.01 0.03 0.01 0.04 0 0.01 0.01 0.03 0.01 0.04 0 0.01 0.01 0.03 0.01 0.04 0 0.01 0.01 0.03 0.01 0.04 0 0.01 0.01 0.03 0.01 0.04s0.01 0.03 0.01 0.04c0.01 0.02 0.01 0.03 0.01 0.04 0 0.01 0.01 0.03 0.01 0.04 0 0.01 0.01 0.03 0.01 0.04 0 0.01 0.01 0.03 0.01 0.04 0 0.02 0.01 0.03 0.01 0.04s0.01 0.03 0.01 0.04c0 0.01 0 0.03 0.01 0.04 0 0.01 0 0.03 0.01 0.04 0 0.01 0.01 0.03 0.01 0.04 0 0.01 0 0.03 0.01 0.04 0 0.01 0 0.03 0.01 0.04 0 0.01 0 0.03 0.01 0.04s0 0.03 0.01 0.04c0 0.02 0 0.03 0.01 0.04 0 0.01 0 0.03 0.01 0.04 0 0.02 0 0.03 0 0.04 0 0.02 0 0.03 0.01 0.04 0 0.01 0 0.03 0 0.04 0 0.02 0 0.03 0 0.04 0 0.01 0 0.03 0 0.04 0 0.01 0 0.03 0 0.04 0 0.01 0 0.03 0 0.04 0 0.01 0 0.03 0 0.04 0 0.01 0 0.03 0 0.04 0 0.01 0 0.03 0 0.04 0 0.01 0 0.03 0 0.04V22.11z"/>
  <path fill="#CCCCCC" d="M25.4 20.04c-0.32 0-0.64 0.32-0.64 0.65s0.32 0.64 0.64 0.64c0.48 0 0.81-0.32 0.81-0.64S25.88 20.04 25.4 20.04z"/>
  <path fill="#CDCCCC" d="M21.17 131.6c-4.79 0-8.69 3.9-8.69 8.69 0 4.8 3.9 8.7 8.69 8.7 4.8 0 8.69-3.9 8.69-8.69C29.86 135.5 25.96 131.6 21.17 131.6zM17.96 145.87v-11.15l9.66 5.58L17.96 145.87z"/>
  <polygon fill="#CDCCCC" points="19.46 137.31 19.46 143.28 24.62 140.29 "/>
  <path fill="#CDCCCC" d="M21.17 125.3c-8.28 0-15 6.72-15 15 0 8.28 6.72 15 15 15 8.29 0 15-6.72 15-15C36.17 132.01 29.45 125.3 21.17 125.3zM21.17 150.49c-5.62 0-10.19-4.57-10.19-10.19S15.55 130.1 21.17 130.1c5.62 0 10.2 4.57 10.2 10.2S26.79 150.49 21.17 150.49z"/>
  <path fill="#CCCCCC" d="M20 165.38c-8.28 0-15 6.72-15 15 0 8.28 6.72 15 15 15 8.29 0 15-6.72 15-15C35 172.09 28.29 165.38 20 165.38zM16.35 186.08h-2.75v-8.82h2.75V186.08zM14.97 176.05c-0.88 0-1.59-0.71-1.59-1.59 0-0.87 0.71-1.59 1.59-1.59 0.88 0 1.59 0.72 1.59 1.59C16.56 175.33 15.85 176.05 14.97 176.05zM26.62 186.08h-2.74v-4.29c0-1.02-0.02-2.34-1.43-2.34-1.43 0-1.65 1.12-1.65 2.27v4.37h-2.74v-8.82h2.63v1.21h0.04c0.37-0.69 1.26-1.43 2.6-1.43 2.78 0 3.29 1.83 3.29 4.21V186.08z"/>
  <path fill="#CCCCCC" d="M20 205.46c-8.28 0-15 6.72-15 15 0 8.28 6.72 15 15 15s15-6.72 15-15C35 212.18 28.28 205.46 20 205.46zM25.64 214.38H23.84c-0.89 0-1.61 0.72-1.61 1.61v1.22h3.41v3.65h-3.41v11.23H17.44V220.86h-3.08v-3.65h3.08v-2.18c0-2.37 1.92-4.3 4.3-4.3h3.91V214.38z"/>
  <path fill="#CCCCCC" d="M20 245.55c-8.28 0-15 6.72-15 15 0 8.28 6.72 15 15 15s15-6.72 15-15C35 252.26 28.28 245.55 20 245.55zM26.24 257.88c0.01 0.14 0.01 0.28 0.01 0.42 0 4.26-3.24 9.17-9.17 9.17-1.82 0-3.51-0.53-4.94-1.45 0.25 0.03 0.51 0.05 0.77 0.05 1.51 0 2.9-0.52 4-1.38-1.41-0.02-2.6-0.96-3.01-2.24 0.2 0.04 0.4 0.06 0.61 0.06 0.29 0 0.58-0.04 0.85-0.11-1.47-0.29-2.58-1.6-2.58-3.16 0-0.01 0-0.03 0-0.04 0.44 0.24 0.93 0.39 1.46 0.4-0.86-0.58-1.43-1.56-1.43-2.68 0-0.59 0.16-1.14 0.44-1.62 1.59 1.95 3.96 3.23 6.64 3.37-0.06-0.24-0.08-0.48-0.08-0.73 0-1.78 1.44-3.22 3.22-3.22 0.93 0 1.76 0.39 2.35 1.02 0.73-0.14 1.42-0.41 2.05-0.78-0.24 0.75-0.75 1.39-1.42 1.78 0.65-0.08 1.27-0.25 1.85-0.51C27.42 256.85 26.88 257.42 26.24 257.88z"/>
  <path fill="#CDCCCC" d="M27.09 103.71h1.56c0-0.01 0-0.01 0-0.02v-1.54h-1.55V103.71z"/>
  <path fill="#CDCCCC" d="M24.76 101.38h1.56v-1.5h-1.56C24.76 99.89 24.76 100.65 24.76 101.38z"/>
  <path fill="#CDCCCC" d="M24.77 102.75c0 0.87 0.35 0.95 1.09 0.95h0.47v-1.56h-1.55C24.77 102.5 24.77 102.75 24.77 102.75z"/>
  <path fill="#CDCCCC" d="M27.66 99.88h-0.57v1.5h1.56v-0.53C28.64 99.88 28.38 99.88 27.66 99.88z"/>
  <path fill="#CDCCCC" d="M20.67 85.21c-8.28 0-15 6.72-15 15 0 8.28 6.72 15 15 15s15-6.72 15-15C35.67 91.92 28.95 85.21 20.67 85.21zM19.9 99.76h-3.6c0.1 0.36 0.86 2.91 3.59 3.87v0.85c-1.51-0.31-3.24-1.57-4.09-3.47-0.75 1.69-2.27 3.13-3.92 3.47v-0.84c2.69-0.94 3.33-3.44 3.42-3.88h-3.42v-0.83h3.52v-2.16h-3.14v-0.83h7.28v0.83h-3.3v2.16h3.67V99.76zM23.43 101.52c0 2.69-1.69 2.95-2.3 2.97v-0.85c0 0 1.47-0.11 1.47-2.03v-0.45-0.06c-0.4 0.22-1.47 0.87-1.47 0.87v-0.87l1.47-0.87 0 0.14 0-0.16v-1.4c-0.4 0.22-1.47 0.87-1.47 0.87v-0.87l1.46-0.87-0.02-0.09c-0.12-0.68-0.63-1.06-1.44-1.08V95.93c1.43 0.02 2.23 0.76 2.3 2.14V101.52zM29.44 104.47h-4.06v0c-0.97 0-1.42-0.56-1.42-1.46v-3.93h4.09c0.99 0 1.39 0.52 1.39 1.39V104.47zM29.45 97.7h-0.85v0.77H27.79v-0.77h-2.16v0.77h-0.81v-0.77h-0.86v-0.83h0.86V95.93h0.81v0.93h2.16V95.93h0.81v0.93h0.85V97.7z"/>
</svg>
