<svg xmlns="http://www.w3.org/2000/svg" xmlns:xlink="http://www.w3.org/1999/xlink" version="1.1" id="Layer_1" x="0" y="0" width="80" height="400" viewBox="0 0 80 400" enable-background="new 0 0 80 400" xml:space="preserve">
  <polygon fill="#FFFFFF" points="62.63 19.58 59.8 16.75 40 36.55 20.2 16.75 17.37 19.58 37.17 39.38 17.37 59.17 20.2 62 40 42.2 59.8 62 62.63 59.17 42.83 39.38 "/>
  <rect x="16" y="96" fill="#FFFFFF" width="11.08" height="11.05"/>
  <rect x="34.46" y="96" fill="#FFFFFF" width="11.08" height="11.05"/>
  <rect x="52.93" y="96" fill="#FFFFFF" width="11.07" height="11.05"/>
  <rect x="16" y="114.47" fill="#FFFFFF" width="11.08" height="11.05"/>
  <rect x="34.46" y="114.47" fill="#FFFFFF" width="11.08" height="11.05"/>
  <rect x="52.93" y="114.47" fill="#FFFFFF" width="11.07" height="11.05"/>
  <rect x="16" y="132.95" fill="#FFFFFF" width="11.08" height="11.05"/>
  <rect x="34.46" y="132.95" fill="#FFFFFF" width="11.08" height="11.05"/>
  <rect x="52.93" y="132.95" fill="#FFFFFF" width="11.07" height="11.05"/>
  <path fill="#FFFFFF" d="M27.23 358.15c-1.37 0-2.11-0.66-2.19-1.95l-0.07-1.09h-4.09l0.06 1.23c0.16 3.54 2.58 5.74 6.31 5.74 300F2BC9A2B"/>
  <path fill="#FFFFFF" d="M40.87 349.56l3.72-7.5H40.16l-4.62 9.32c-0.85 1.7-1.23 3.07-1.23 4.45 0 3.72 2.43 6.21 6.04 6.21 3.508AE146ACB"/>
  <path fill="#FFFFFF" d="M53.12 362.04c3.45 0 5.96-2.52 5.96-5.98v-8.16c0-3.47-2.51-5.99-5.96-5.99 -3.46 0-5.96 2.52-5.96 5.99v8.16C47.15 359.52 49.66 362.04 53.12 362.04zM51.27 348c0-0.65 0.18-2.17 1.85-2.17s1.85 1.52 1.85 2.17v7.96c0 0.65-0.18 2.17-1.85 2.17s-1.85-1.52-1.85-2.17V348z"/>
  <path fill="#FFFFFF" d="M37.13 369.45c-13.92-0.62-24.78-5.74-24.78-11.95 0-3.08 2.67-6.02 7.06-8.28 -5.79 2.49-9.41 6.02-9.41 9.94 0 7.12 11.91 12.96 27.13 13.62v5.34l6.87-6.78 -6.87-6.78V369.45z"/>
  <path fill="#FFFFFF" d="M60.59 349.22c4.39 2.26 7.06 5.2 7.06 8.28 0 5.76-9.31 10.56-21.73 11.74v3.33C59.65 371.32 70 365.79 70 359.16 70 355.24 66.38 351.71 60.59 349.22z"/>
  <path fill="#FFFFFF" d="M65.65 348.41c1.62 0 2.93-1.31 2.93-2.93 0-1.62-1.31-2.93-2.93-2.93 -1.62 0-2.93 1.31-2.93 2.93C62.70A332BCA35"/>
  <path fill="#FFFFFF" d="M40.05 263.15c-9.48 0-17.2 7.45-17.2 16.62 0 9.16 7.72 16.61 17.2 16.61 9.49 0 17.2-7.45 17.2-16.61C09C8693A41"/>
  <path fill="#FFFFFF" d="M63.94 279.77c0-1.34-0.12-2.64-0.35-3.91l6.41-5.66 -6.21-10.39 -8.14 2.5c-2.22-1.85-4.79-3.32-7.61-4007AF72A60"/>
  <path fill="#FFFFFF" d="M49.92 182.15v-5.49H29.78v5.49h-6.41L10 186.88v36.46h60V182.15H49.92zM39.85 220.14c-9.1 0-16.48-7.380D428C2A8C"/>
  <circle fill="#FFFFFF" cx="39.85" cy="203.66" r="11.44"/>
  <polygon fill="#FFFFFF" points="21.62 178.41 11.55 178.41 11.55 183.98 21.62 180.32 "/>
</svg>
