<?xml version="1.0" encoding="utf-8"?>
<!-- Generator: Adobe Illustrator 16.0.0, SVG Export Plug-In . SVG Version: 6.00 Build 0)  -->
<!DOCTYPE svg PUBLIC "-//W3C//DTD SVG 1.1//EN" "http://www.w3.org/Graphics/SVG/1.1/DTD/svg11.dtd">
<svg version="1.1" id="Layer_1" xmlns="http://www.w3.org/2000/svg" xmlns:xlink="http://www.w3.org/1999/xlink" x="0px" y="0px"
	 width="100px" height="1200px" viewBox="0 0 100 1200" enable-background="new 0 0 100 1200" xml:space="preserve">
<g>
	<path d="M50.442,619.313c-16.568,0-30,13.434-30,30c0,16.57,13.432,30,30,30c16.565,0,29.999-13.429,29.999-30
		C80.441,632.747,67.008,619.313,50.442,619.313z M50.442,623.313c13.659,0,24.87,10.598,25.897,24H58.156
		c-0.891-3.445-3.992-6-7.714-6c-3.725,0-6.826,2.555-7.717,6H24.544C25.571,633.911,36.78,623.313,50.442,623.313z M24.544,651.313
		h18.182c0.727,2.801,2.922,4.988,5.717,5.719v18.183C35.702,674.238,25.521,664.055,24.544,651.313z M52.441,675.215v-18.183
		c2.793-0.73,4.988-2.918,5.715-5.719H76.34C75.363,664.055,65.18,674.238,52.441,675.215z"/>
</g>
<g>
	<g>
		<path fill="#010101" d="M67.095,264.217h-2.223v3.333c0,3.109,2.441,5.557,5.555,5.557s5.56-2.443,5.56-5.557v-3.333H67.095z"/>
		<path fill="#010101" d="M27.094,264.217h-2.225v3.333c0,3.109,2.445,5.557,5.557,5.557c3.114,0,5.557-2.443,5.557-5.557v-3.333
			H27.094z"/>
		<path fill="#010101" d="M80.428,239.771h-7.665l-1.891-8.889c-0.777-2.891-3-4.445-6-4.445H35.981
			c-3.109,0-4.889,1.557-5.778,4.445l-2,8.889h-7.775v2.223h7.223v0.109c-3.443,0.225-6.111,3.114-6.111,6.67v13.221H79.32v-13.221
			c0-3.445-2.67-6.336-6.003-6.67v-0.109h7.11V239.771z M30.426,239.771L30.426,239.771l1.891-8.223
			c0.666-2,1.666-2.889,3.557-2.889h28.889c2.109,0,3.332,0.889,3.891,2.775l1.889,8.778l0.334,1.777v0.109h-41.11l0.664-2.332
			L30.426,239.771z M32.651,257.549c-2.446,0-4.446-1.998-4.446-4.444c0-2.445,2-4.445,4.446-4.445c2.443,0,4.443,2,4.443,4.445
			C37.094,255.551,35.094,257.549,32.651,257.549z M68.206,257.549c-2.447,0-4.447-1.998-4.447-4.444c0-2.445,2-4.445,4.447-4.445
			c2.441,0,4.443,2,4.443,4.445C72.649,255.551,70.647,257.549,68.206,257.549z"/>
	</g>
</g>
<g>
	<path fill="#010101" d="M67.192,519.428H33.69c-2.178,0-3.941,1.764-3.941,3.942v52.114c0,2.177,1.763,3.944,3.941,3.944h33.502
		c2.176,0,3.942-1.767,3.942-3.944V523.37C71.135,521.191,69.368,519.428,67.192,519.428z M38.7,572.174
		c-1.467,0-2.657-1.189-2.657-2.658c0-1.465,1.19-2.658,2.657-2.658c1.469,0,2.66,1.193,2.66,2.658
		C41.36,570.985,40.169,572.174,38.7,572.174z M38.7,561.338c-1.467,0-2.657-1.192-2.657-2.66c0-1.467,1.19-2.66,2.657-2.66
		c1.469,0,2.66,1.193,2.66,2.66C41.36,560.146,40.169,561.338,38.7,561.338z M38.7,550.004c-1.467,0-2.657-1.19-2.657-2.658
		c0-1.469,1.19-2.657,2.657-2.657c1.469,0,2.66,1.188,2.66,2.657C41.36,548.814,40.169,550.004,38.7,550.004z M50.413,572.174
		c-1.467,0-2.655-1.189-2.655-2.658c0-1.465,1.188-2.658,2.655-2.658c1.468,0,2.659,1.193,2.659,2.658
		C53.071,570.985,51.881,572.174,50.413,572.174z M50.413,561.338c-1.467,0-2.655-1.192-2.655-2.66c0-1.467,1.188-2.66,2.655-2.66
		c1.468,0,2.659,1.193,2.659,2.66C53.071,560.146,51.881,561.338,50.413,561.338z M50.413,550.004c-1.467,0-2.655-1.19-2.655-2.658
		c0-1.469,1.188-2.657,2.655-2.657c1.468,0,2.659,1.188,2.659,2.657C53.071,548.814,51.881,550.004,50.413,550.004z M62.124,572.174
		c-1.465,0-2.658-1.189-2.658-2.658c0-1.465,1.193-2.658,2.658-2.658c1.469,0,2.657,1.193,2.657,2.658
		C64.781,570.985,63.593,572.174,62.124,572.174z M62.124,561.338c-1.465,0-2.658-1.192-2.658-2.66c0-1.467,1.193-2.66,2.658-2.66
		c1.469,0,2.657,1.193,2.657,2.66C64.781,560.146,63.593,561.338,62.124,561.338z M62.124,550.004c-1.465,0-2.658-1.19-2.658-2.658
		c0-1.469,1.193-2.657,2.658-2.657c1.469,0,2.657,1.188,2.657,2.657C64.781,548.814,63.593,550.004,62.124,550.004z M64.781,536.507
		c0,1.452-1.176,2.628-2.626,2.628H38.671c-1.452,0-2.628-1.176-2.628-2.628v-8.211c0-1.45,1.176-2.628,2.628-2.628h23.484
		c1.45,0,2.626,1.178,2.626,2.628V536.507z"/>
</g>
<g>
	<path fill="#010101" d="M55.188,62.478c0.492-0.266,0.734-0.684,0.734-1.152c0-0.803-0.727-1.445-2.188-1.445h-8.228
		c-0.121,0-0.219,0.096-0.219,0.217v4.008l0.109,0.111h1.24l0.107-0.111v-1.322h6.626c0.727,0,1.098,0.326,1.098,0.729v0.594
		l0.105,0.111h1.238l0.109-0.111v-0.594C55.922,63.091,55.68,62.72,55.188,62.478 M53.375,62.056h-6.63v-1.34l0.109-0.109h6.517
		c0.727,0,1.098,0.314,1.098,0.719C54.469,61.726,54.113,62.054,53.375,62.056"/>
	<path fill="#010101" d="M39.345,59.771h-2.186c-3.842,0-4.371,0.471-4.371,1.893v0.729c0,1.418,0.529,1.895,4.371,1.895h2.186
		c3.842,0,4.373-0.477,4.373-1.895v-0.729C43.718,60.242,43.187,59.771,39.345,59.771 M42.259,62.611
		c0,0.711-0.264,0.947-2.186,0.947h-3.643c-1.922,0-2.188-0.236-2.188-0.947v-1.166c0-0.709,0.266-0.947,2.188-0.947h3.643
		c1.922,0,2.186,0.238,2.186,0.947V62.611z"/>
	<path fill="#010101" d="M63.934,59.771h-2.188c-3.84,0-4.371,0.471-4.371,1.893v0.729c0,1.418,0.531,1.895,4.371,1.895h2.188
		c3.844,0,4.371-0.477,4.371-1.895v-0.729C68.305,60.242,67.777,59.771,63.934,59.771 M66.844,62.611
		c0,0.711-0.262,0.947-2.184,0.947H61.02c-1.918,0-2.184-0.236-2.184-0.947v-1.166c0-0.709,0.266-0.947,2.184-0.947h3.641
		c1.922,0,2.184,0.238,2.184,0.947V62.611z"/>
	<path fill="#010101" d="M27.05,59.771h-2.186c-3.842,0-4.374,0.471-4.374,1.893v0.729c0,1.418,0.531,1.895,4.374,1.895h2.186
		c0.562,0,1.051-0.012,1.48-0.031c0.293,0.203,0.508,0.354,0.527,0.369c0.086,0.061,0.176,0.057,0.234,0.057h1.502l0.037-0.09
		l-0.746-0.523c1.127-0.26,1.336-0.781,1.336-1.676v-0.729C31.421,60.242,30.892,59.771,27.05,59.771 M29.964,62.611
		c0,0.469-0.115,0.727-0.738,0.854l-0.65-0.455c-0.088-0.059-0.174-0.055-0.236-0.055h-1.502l-0.035,0.088
		c0.008,0.006,0.342,0.238,0.732,0.516H24.14c-1.926,0-2.188-0.236-2.188-0.947v-1.166c0-0.709,0.262-0.947,2.188-0.947h3.637
		c1.924,0,2.188,0.238,2.188,0.947V62.611z"/>
	<path fill="#010101" d="M78.555,61.65h-6.648c-0.555,0-0.793-0.227-0.793-0.529c0-0.301,0.242-0.525,0.789-0.525h8.297l0.059-0.051
		c-0.035-0.381-0.418-0.68-1.098-0.68h-7.621c-1.273,0-1.883,0.551-1.883,1.256s0.594,1.26,1.883,1.26h6.656
		c0.543,0,0.785,0.225,0.785,0.527c0,0.299-0.234,0.525-0.789,0.525h-4.199H69.91l-0.105,0.113v0.508l0.105,0.109h4.082h4.562
		c1.293,0,1.887-0.553,1.887-1.256C80.441,62.203,79.828,61.65,78.555,61.65"/>
	<path fill="#010101" d="M37.3,72.966h-0.893l-0.102,0.104v0.201c0,0.113-0.092,0.197-0.299,0.197h-0.582
		c-0.205,0-0.297-0.084-0.297-0.197v-1.064l-0.102-0.102h-0.684c0.195-0.369,0.316-0.799,0.316-1.303v-0.4l-0.104-0.1h-0.893
		l-0.102,0.1v0.307c0,1.303-1.033,2.395-2.75,2.713l-0.098,0.102v0.395l0.102,0.1c0.648,0,2.303-0.363,3.215-1.459v0.908
		c0,0.314,0.273,0.551,0.848,0.551h1.678c0.572,0,0.848-0.236,0.848-0.551V73.07L37.3,72.966z M31.308,72.22h0.895l0.1-0.1v-1.895
		c0-0.227,0.188-0.396,0.6-0.396h2.379c0.41,0,0.594,0.17,0.594,0.396v1.699v0.377l0.039,0.047c0.684-0.006,1.059-0.168,1.059-0.424
		v-1.744c0-0.531-0.457-0.949-1.42-0.949h-2.928c-0.961,0-1.42,0.418-1.42,0.949v1.939L31.308,72.22z M30.913,72.964l-1.195-1.012
		c0.553-0.658,0.895-1.404,1.018-2.061v-0.141l-0.104-0.104h-4.031l-0.105,0.104v0.393l0.105,0.104h2.957
		c-0.127,0.379-0.324,0.746-0.574,1.088l-0.787-0.666l-0.238-0.057h-0.994l-0.041,0.094c0.006,0.004,0.791,0.668,1.506,1.27
		c-0.559,0.543-1.238,0.959-1.906,1.145l-0.102,0.107v0.389l0.115,0.1c1.053-0.146,1.912-0.588,2.584-1.158
		c0.291,0.252,0.5,0.43,0.52,0.441l0.238,0.061h0.996L30.913,72.964z M49.854,70.275l0.105-0.1v-0.393l-0.105-0.104h-3.27
		c0.039-0.137,0.062-0.256,0.062-0.344l-0.104-0.104h-0.807l-0.109,0.096c-0.107,0.568-0.301,1.301-1.102,1.957L44.47,71.38v0.402
		l0.115,0.1c0.383-0.135,0.703-0.355,0.98-0.609c0.258,0.383,0.59,0.795,1.016,1.186c-0.598,0.484-1.25,0.781-1.814,0.914
		l-0.102,0.111v0.385l0.115,0.104c0.969-0.143,1.781-0.496,2.447-0.994c0.68,0.471,1.537,0.848,2.615,0.994l0.117-0.104v-0.385
		l-0.105-0.111c-0.711-0.15-1.398-0.506-1.992-0.955c0.594-0.609,1.037-1.352,1.332-2.143H49.854z M47.21,71.857
		c-0.436-0.434-0.781-0.91-1.004-1.361l0.129-0.221h1.797C47.909,70.9,47.589,71.423,47.21,71.857 M44.366,69.382h-5.293
		l-0.098,0.102v0.408l0.098,0.102h1.062l-0.965,0.926l-0.039,0.086v0.393l0.102,0.102h1.953v0.564h-1.805l-0.102,0.102v0.41
		l0.102,0.102h1.805v0.684h-2.031l-0.102,0.102v0.406l0.102,0.104h4.398c0.537,0,0.844-0.27,0.867-0.576l-0.043-0.035h-2.094v-0.684
		h1.805l0.102-0.102v-0.41l-0.102-0.102h-1.805V71.5h0.75h0.012c0.961,0,1.418-0.467,1.418-0.994v-0.109l-0.098-0.104h-0.895
		l-0.105,0.104v0.109c0,0.227-0.18,0.398-0.594,0.398h-2.404l0.945-0.91h3.053l0.098-0.102v-0.408L44.366,69.382z"/>
	<path fill="#010101" d="M74.41,72.572h-4.445v-0.6h3.781l0.102-0.102v-0.385l-0.102-0.1h-3.781v-0.615l-0.098-0.098h-1.176
		l-0.105,0.098v0.615h-2.668c0.598-0.238,1.191-0.643,1.613-1.039h6.449l0.105-0.105V69.83l-0.105-0.1h-5.848
		c0.16-0.189,0.266-0.338,0.293-0.395l-0.055-0.104h-1.297l-0.137,0.08c-0.031,0.059-0.141,0.213-0.312,0.418h-2.473l-0.102,0.1
		v0.412l0.102,0.105h1.855c-0.434,0.389-1.004,0.793-1.637,1.031l-0.086,0.107v0.385l0.105,0.102h4.195v0.6h-4.953l-0.105,0.105
		v0.412l0.105,0.102h4.953v0.832l0.105,0.102h1.176l0.098-0.102v-0.832h4.445l0.105-0.102v-0.412L74.41,72.572z"/>
	<path fill="#010101" d="M53.773,73.06c0.477-0.482,0.758-0.865,0.758-0.865c0.066-0.084,0.031-0.154-0.074-0.154h-0.961
		c-0.109,0-0.188,0.006-0.266,0.102c-0.082,0.096-0.246,0.332-0.703,0.766c-0.537,0.504-1.129,0.91-1.129,0.91
		c-0.092,0.059-0.074,0.107,0.027,0.107h1.184c0.102,0,0.184-0.02,0.266-0.08C52.875,73.845,53.27,73.574,53.773,73.06"/>
	<path fill="#010101" d="M55.883,70.273h1.973h0.707h2.816l0.105-0.102v-0.396l-0.105-0.105h-5.242
		c0.039-0.139,0.059-0.266,0.059-0.354l-0.102-0.104h-0.836l-0.109,0.096c-0.027,0.555-0.227,1.199-0.684,1.598L54.41,71v0.383
		l0.113,0.104C55.383,71.271,55.844,70.345,55.883,70.273"/>
	<polygon fill="#010101" points="60.516,70.591 56.234,70.591 56.133,70.693 56.133,71.068 56.234,71.173 60.516,71.173 
		60.617,71.068 60.617,70.693 	"/>
	<path fill="#010101" d="M53.523,70.019c0.312,0.256,0.84,0.617,0.84,0.617c0.074,0.047,0.059,0.088-0.031,0.088H53.27l-0.234-0.047
		c0,0-0.367-0.234-0.736-0.537c-0.371-0.301-0.684-0.625-0.684-0.625c-0.062-0.059-0.035-0.109,0.051-0.109h1.057
		c0.09,0,0.152,0.008,0.238,0.092C53.043,69.585,53.211,69.759,53.523,70.019"/>
	<path fill="#010101" d="M53.141,71.125c0.27,0.229,0.738,0.555,0.738,0.555c0.074,0.049,0.062,0.088-0.027,0.088h-1.062
		c-0.086,0-0.168-0.004-0.242-0.047c0,0-0.221-0.133-0.559-0.416c-0.348-0.277-0.674-0.598-0.674-0.598
		c-0.059-0.061-0.039-0.113,0.047-0.113h1.064l0.234,0.096C52.746,70.769,52.871,70.894,53.141,71.125"/>
	<path fill="#010101" d="M62.168,73.416h-0.406c-0.281,0-0.395-0.139-0.395-0.314V72.3c0-0.428-0.355-0.754-0.977-0.754h-5.004
		l-0.098,0.102v0.402l0.098,0.098h4.176c0.328,0,0.484,0.154,0.484,0.408v0.883c0,0.33,0.258,0.58,0.754,0.58h1.367l0.102-0.102
		v-0.398L62.168,73.416z"/>
	<path fill="#010101" d="M79.285,30.912c-0.086-1.273-0.238-2.594-1.148-3.525c-0.891-0.918-2.133-1.068-3.441-1.154
		c-4.906-0.312-17.621-0.355-24.771-0.355c-7.148,0-19.873,0.043-24.781,0.355c-1.301,0.086-2.543,0.236-3.441,1.154
		c-0.907,0.932-1.059,2.252-1.139,3.525c-0.213,3.303-0.135,9.652,0.146,12.814c0.119,1.33,0.332,2.848,1.348,3.91
		c1.059,1.119,2.57,1.262,3.783,1.381c3.213,0.311,7.146,0.523,12.025,0.652c3.678,0.096,7.621,0.143,12.059,0.143
		c4.431,0,8.372-0.047,12.044-0.143c4.883-0.129,8.82-0.342,12.035-0.652c1.277-0.119,2.73-0.25,3.789-1.369
		c1.004-1.064,1.219-2.582,1.336-3.922C79.41,40.564,79.492,34.214,79.285,30.912z M73.938,41.39
		c-0.043,0.586-0.133,1.201-0.617,1.678c-0.457,0.457-1.055,0.57-1.621,0.643c-0.711,0.088-1.438,0.141-2.133,0.189
		c-0.328,0.023-0.688,0.053-1.039,0.08c-0.172,0.016-0.254,0.023-0.324,0.098c-0.07,0.08-0.105,0.205-0.133,0.367
		c-0.035,0.193-0.07,0.395-0.105,0.584v0.018c-0.051,0.283-0.105,0.574-0.16,0.861c-0.055,0.289-0.156,0.594-0.48,0.824
		c-0.297,0.215-0.602,0.238-0.852,0.26c-2.59,0.219-6.102,0.291-8.316,0.291H57.77c-0.594,0-1.141-0.018-1.77-0.195
		c-0.621-0.178-1.164-0.479-1.621-0.748c-0.34-0.201-0.684-0.408-1.016-0.607l-0.027-0.016c-0.301-0.178-0.613-0.359-0.914-0.545
		c-0.523-0.305-0.924-0.51-1.428-0.643c-0.515-0.137-1.034-0.16-1.56-0.17c-2.217-0.045-4.463-0.068-6.639-0.086h-0.014
		c-1.307-0.016-2.646-0.023-3.967-0.039c-3.348-0.047-8.086-0.141-10.639-0.449c-0.58-0.072-1.195-0.18-1.662-0.666
		c-0.473-0.494-0.562-1.125-0.613-1.729c-0.178-2.221-0.238-7.295-0.113-9.527c0.043-0.766,0.145-1.645,0.805-2.295
		c0.617-0.615,1.438-0.742,2.227-0.816c3.727-0.352,13.529-0.426,21.104-0.426c7.569,0,17.378,0.074,21.097,0.426
		c0.793,0.074,1.609,0.201,2.23,0.816c0.66,0.65,0.762,1.527,0.801,2.295C74.184,34.095,74.121,39.169,73.938,41.39z"/>
	<path fill="#010101" d="M70.469,31.951c-0.035-0.531-0.086-1.037-0.445-1.379c-0.34-0.336-0.82-0.402-1.367-0.447
		c-3.555-0.289-13.266-0.33-18.731-0.33h-0.014c-5.463,0-15.17,0.041-18.721,0.33c-0.547,0.045-1.027,0.111-1.373,0.447
		c-0.354,0.342-0.408,0.848-0.441,1.379c-0.127,2.207-0.076,6.613,0.053,8.67c0.029,0.449,0.074,0.848,0.344,1.123
		c0.264,0.275,0.652,0.33,1.094,0.369c2.402,0.223,7.01,0.285,10.27,0.311c1.039,0.006,2.105,0.012,3.129,0.016h0.02
		c2.348,0.014,4.773,0.023,7.151,0.072c0.613,0.016,1.17,0.037,1.752,0.17c0.621,0.139,1.07,0.361,1.648,0.686
		c0.285,0.158,0.57,0.322,0.848,0.48c0.312,0.176,0.621,0.354,0.934,0.531c0.43,0.246,0.938,0.52,1.496,0.668
		c0.465,0.121,0.871,0.148,1.332,0.148c0.09,0,0.188,0,0.281,0c1.578-0.023,3.754-0.084,5.148-0.189
		c0.129-0.008,0.27-0.02,0.352-0.086c0.062-0.049,0.09-0.131,0.121-0.287c0.035-0.221,0.074-0.443,0.113-0.66
		c0.031-0.182,0.059-0.35,0.09-0.523c0.059-0.33,0.148-0.676,0.48-0.932c0.297-0.227,0.664-0.264,0.93-0.289
		c0.301-0.027,0.605-0.051,0.895-0.076c0.363-0.029,0.734-0.057,1.098-0.092c0.445-0.045,0.828-0.102,1.105-0.355
		c0.285-0.264,0.332-0.635,0.355-1.084C70.543,38.564,70.594,34.158,70.469,31.951z M68.121,36.246
		c-0.016,0.357-0.035,0.9-0.414,1.293s-0.887,0.418-1.254,0.439c-2.938,0.148-10.613,0.18-16.53,0.18
		c-5.922,0-13.594-0.031-16.529-0.18c-0.371-0.021-0.881-0.047-1.256-0.439c-0.381-0.393-0.402-0.936-0.412-1.293
		c-0.029-0.758-0.031-2.166,0-2.932c0.02-0.428,0.066-0.92,0.414-1.291c0.377-0.396,0.883-0.418,1.254-0.436
		c3.006-0.152,10.648-0.186,16.529-0.186h0.018c5.872,0,13.505,0.033,16.513,0.186c0.367,0.018,0.875,0.039,1.254,0.436
		c0.344,0.371,0.395,0.863,0.414,1.291C68.152,34.08,68.148,35.492,68.121,36.246z"/>
</g>
<g>
	<polygon fill="#010101" points="60.355,121.673 60.168,121.485 41.01,121.485 55.055,135.535 20.441,170.152 28.575,178.285 
		63.191,143.667 70.859,151.335 80.441,141.759 	"/>
</g>
<g>
	<g>
		<g>
			<path fill="#010101" stroke="#010101" stroke-width="0.1" stroke-miterlimit="10" d="M39.966,732.226
				c0,0,2.891,10.344,4.457,13.422c0.734,1.449,4.129,7.324,8.245,11.527c5.027,5.129,9.895,7.812,9.895,7.812
				s7.418-4.812,7.418-15.391c0-9.238-5.027-16.109-5.027-16.109s-1.816-1.832-11.465-2.461
				C43.845,730.394,39.966,732.226,39.966,732.226z"/>
		</g>
		<path fill="#010101" d="M65.363,729.937c-8.602-8.504-18.632-10.738-18.632-10.738s-6.395,2.41-10.68,4.461
			c-4.293,2.051-9.609,4.934-9.609,4.934s3.73,12.902,6.648,19.348c2.922,6.473,8.156,13.121,15.742,20.699
			c7.585,7.578,14.468,10.559,14.468,10.559s9.367-6.246,10.965-21.871C75.5,745.171,69.98,734.503,65.363,729.937z M70.852,765.858
			c-2.664,6.922-7.91,10.453-8.043,10.422c-0.246-0.062-8.402-5.57-15.253-13.027c-6.852-7.465-10.848-14.016-12.492-17.766
			s-5.398-16.578-5.398-16.578l18.18-8.172c0,0,2.999,0.637,7.749,3.277c2.57,1.43,5.934,3.789,8.652,6.59
			c3.086,3.176,6.145,8.629,7.879,14.836C73.941,751.913,73.168,759.815,70.852,765.858z"/>
		<path fill="#FFFFFF" d="M48.325,743.128c-0.188-0.012-0.441-0.02-0.695-0.211c-0.262-0.184-0.367-0.438-0.438-0.605
			c-0.148-0.359-0.41-1.023-0.527-1.387c-0.07-0.199-0.129-0.434-0.023-0.609c0.113-0.188,0.359-0.195,0.535-0.203
			c1.457-0.07,5.214-0.09,8.116-0.09h0.008c2.895,0,6.664,0.02,8.172,0.09c0.184,0.008,0.441,0.016,0.699,0.203
			c0.234,0.176,0.348,0.41,0.434,0.609c0.152,0.363,0.406,1.027,0.523,1.387c0.059,0.168,0.145,0.422,0.031,0.605
			c-0.113,0.191-0.367,0.199-0.543,0.211c-1.414,0.07-5.195,0.086-8.113,0.086C53.582,743.214,49.798,743.198,48.325,743.128
			 M54.996,739.265c-2.695,0-7.464,0.02-9.167,0.156c-0.262,0.02-0.484,0.051-0.59,0.207c-0.121,0.168-0.055,0.402,0.023,0.656
			c0.336,1.043,1.148,3.121,1.582,4.09c0.094,0.211,0.188,0.402,0.371,0.531c0.18,0.129,0.379,0.156,0.609,0.172
			c1.223,0.105,3.503,0.137,5.112,0.148c0.516,0,1.039,0.008,1.547,0.008h0.004c1.168,0.008,2.359,0.012,3.543,0.031
			c0.305,0.008,0.586,0.02,0.895,0.082c0.332,0.066,0.594,0.168,0.938,0.324c0.168,0.074,0.336,0.152,0.504,0.223
			c0.18,0.086,0.367,0.172,0.551,0.254c0.258,0.117,0.559,0.246,0.859,0.316c0.25,0.055,0.457,0.07,0.684,0.07
			c0.043,0,0.094,0,0.137,0c0.777-0.012,1.84-0.043,2.504-0.09c0.066-0.004,0.133-0.012,0.16-0.039
			c0.023-0.027,0.02-0.062,0.004-0.137c-0.02-0.105-0.035-0.211-0.062-0.312c-0.016-0.086-0.035-0.164-0.051-0.246
			c-0.023-0.156-0.047-0.32,0.078-0.441c0.102-0.105,0.273-0.125,0.406-0.137c0.137-0.012,0.285-0.023,0.426-0.031
			c0.168-0.016,0.348-0.031,0.52-0.047c0.215-0.023,0.391-0.047,0.48-0.168c0.094-0.125,0.055-0.301-0.016-0.512
			c-0.305-0.969-1.07-3.047-1.531-4.09c-0.109-0.254-0.227-0.488-0.469-0.656c-0.223-0.156-0.469-0.188-0.75-0.207
			c-1.801-0.137-6.594-0.156-9.293-0.156H54.996z"/>
	</g>
</g>
<g>
	<path fill="#010101" d="M79.428,866.582c0,0-8.312-5.832-11.475-7.781c-3.16-1.945-4.891-0.668-4.891-0.668
		s-2.795,1.488-4.326,3.078c-1.535,1.59-3.254-0.07-3.254-0.07l-11.793-11.398l-5.609-5.605c0,0-1.688-1.691-0.125-3.254
		c1.561-1.562,3.002-4.379,3.002-4.379s1.248-1.75-0.75-4.875c-2.006-3.129-7.979-11.34-7.979-11.34s-0.684-0.98-1.996-0.98
		c-0.721,0-1.812,1.219-1.812,1.219s-6.961,6.488-7.412,6.941c-0.455,0.453-0.439,1.656-0.439,1.656s-4.385,20.902,38.396,46.418
		c-0.045-0.133-0.08-0.254-0.119-0.387c7.426,3.652,11.945,3.238,11.945,3.238s1.205-0.008,1.648-0.469
		c0.445-0.461,6.812-7.527,6.812-7.527s1.201-1.121,1.189-1.836C80.418,867.25,79.428,866.582,79.428,866.582z"/>
</g>
<g>
	<g>
		<path fill="#010101" d="M71.738,948.173c-0.102,0-0.207,0-0.309,0.004c-0.426-8.574-7.699-15.418-16.578-15.418
			c-5.972,0-11.417,3.09-14.382,8.117c-4.457,0.293-8.383,2.863-10.355,6.832c-0.301,0.609-0.043,1.34,0.578,1.633
			s1.371,0.043,1.672-0.566c1.203-2.422,3.312-4.184,5.828-4.988c0.035-0.008,0.066-0.008,0.098-0.016
			c2.809-0.688,4.734-0.766,6.879,0.789c0.223,0.164,0.488,0.242,0.746,0.242c0.383,0,0.758-0.172,1.004-0.492
			c0.41-0.539,0.297-1.305-0.258-1.707c-1.133-0.82-2.227-1.309-3.344-1.551c2.621-3.648,6.891-5.852,11.535-5.852
			c7.773,0,14.098,6.176,14.098,13.77c0,0.176-0.004,0.355-0.008,0.531c-0.02,0.375,0.145,0.738,0.441,0.98
			c0.293,0.242,0.684,0.34,1.062,0.262c0.426-0.086,0.859-0.129,1.293-0.129c3.422,0,6.207,2.719,6.207,6.059
			c0,3.344-2.785,6.062-6.207,6.062H70.23c-0.691,0-1.254,0.547-1.254,1.223c0,0.672,0.562,1.223,1.254,1.223h1.508
			c4.801,0,8.703-3.816,8.703-8.508C80.441,951.985,76.539,948.173,71.738,948.173z"/>
		<path fill="#010101" d="M23.5,957.735c0.445-1.113,0.727-2.41,0.844-3.895v-1.324h-3.68v1.324h2.262
			c-0.09,0.973-0.223,1.699-0.398,2.184l-0.844-1.586l-1.11,0.559l1.418,2.652c-0.383,0.797-0.902,1.598-1.551,2.395
			c0.09,0.172,0.25,0.457,0.489,0.855c0.09,0.227,0.16,0.383,0.223,0.469c0.648-0.711,1.195-1.438,1.641-2.18l0.664,1.324
			l1.242-0.641L23.5,957.735z"/>
		<polygon fill="#010101" points="26.165,953.458 29.313,953.458 29.313,958.419 30.688,958.419 30.688,952.13 24.79,952.13 
			24.79,958.548 26.165,958.548 		"/>
		<path fill="#010101" d="M30.024,958.888c0,0.145-0.035,0.402-0.09,0.77c-0.031,0.203-0.043,0.359-0.043,0.473
			c-0.062,0.371-0.238,0.543-0.535,0.512H29.18c-0.266,0.031-0.387-0.129-0.355-0.469v-2.395h-0.711
			c0.148-0.57,0.238-1.227,0.266-1.969c0-0.172,0-0.457,0-0.855c0.031-0.398,0.047-0.699,0.047-0.898h-1.375
			c0,0.172,0,0.441,0,0.812c-0.031,0.457-0.043,0.812-0.043,1.07c0.117,2.137-0.992,3.805-3.328,5.004
			c0.355,0.371,0.695,0.727,1.02,1.07c1.332-0.855,2.262-1.727,2.797-2.609v1.027c0,0.883,0.438,1.324,1.328,1.324h0.844
			c0.797,0.027,1.254-0.316,1.375-1.027c0.145-0.512,0.234-0.969,0.266-1.367c-0.121-0.059-0.328-0.145-0.621-0.258
			C30.36,958.989,30.141,958.919,30.024,958.888z"/>
		<path fill="#010101" d="M41.305,959.103c0.645-1.082,1.062-2.535,1.238-4.363h0.711v-1.367h-3.062
			c0.18-0.457,0.328-0.941,0.445-1.457l-1.418-0.211c-0.355,1.598-0.828,2.879-1.422,3.848c-0.352-0.539-0.723-1.125-1.105-1.754
			l-1.066,0.559l0.488,0.812l-1.684,0.086c0.414-0.543,0.812-1.129,1.195-1.758h2.352v-1.281h-5.32v1.281h1.418
			c-0.266,0.574-0.547,1.031-0.844,1.371c-0.207,0.23-0.414,0.43-0.621,0.598l0.445,1.07c0.266-0.059,0.547-0.086,0.84-0.086
			c0.949-0.086,1.906-0.129,2.883-0.129l0.355,0.602l0.754-0.387c0.148,0.258,0.281,0.516,0.398,0.77
			c0.176-0.254,0.324-0.484,0.445-0.684c0.207,1.027,0.516,1.855,0.93,2.48c-0.473,0.512-1.066,1.012-1.773,1.496l0.043-0.684
			c-0.621,0.031-1.27,0.07-1.949,0.129v-1.156h1.816v-1.238h-1.816v-0.941h-1.375v0.941h-1.773v1.238h1.773v1.242
			c-0.238,0.027-0.578,0.059-1.02,0.086c-0.477,0.027-0.828,0.055-1.066,0.086l0.18,1.324c0.355-0.027,0.871-0.086,1.551-0.172
			c1.449-0.141,2.543-0.242,3.281-0.297c0.09,0.113,0.223,0.27,0.398,0.469c0.148,0.199,0.266,0.344,0.355,0.43
			c0.887-0.629,1.613-1.227,2.176-1.797c0.531,0.539,1.211,1.109,2.039,1.711c0.145-0.285,0.352-0.613,0.621-0.984
			c0.086-0.172,0.16-0.285,0.219-0.344C42.454,960.157,41.774,959.646,41.305,959.103z M40.461,957.903
			c-0.387-0.797-0.668-1.793-0.844-2.992l0.09-0.172h1.551C41.137,956.052,40.875,957.106,40.461,957.903z"/>
		<path fill="#010101" d="M44.696,952.431c0.293,0.371,0.664,0.914,1.109,1.625c0.086,0.145,0.16,0.258,0.219,0.344l1.289-0.727
			c-0.414-0.602-0.887-1.227-1.422-1.883L44.696,952.431z"/>
		<path fill="#010101" d="M49.528,951.704c-0.59,0.941-1.402,1.766-2.438,2.48c0.059,0.086,0.16,0.215,0.309,0.383
			c0.18,0.23,0.297,0.387,0.355,0.473v2.18h2.305c-0.234,0.629-1.184,1.242-2.836,1.84c0.027,0.059,0.105,0.156,0.223,0.301
			c0.266,0.426,0.473,0.727,0.621,0.898c1.301-0.629,2.172-1.211,2.613-1.754v0.426c0,0.773,0.43,1.156,1.285,1.156h1.422
			c0.797,0,1.27-0.301,1.418-0.898c0.09-0.312,0.148-0.598,0.18-0.855c-0.414-0.141-0.801-0.27-1.156-0.383c0,0.055,0,0.125,0,0.211
			l-0.707-0.941h1.328v-2.992h-1.637l0.707-0.855v-0.984h-2.926l0.398-0.555L49.528,951.704z M50.415,955.896
			c-0.027,0.145-0.043,0.258-0.043,0.344h-1.286v-1.027h1.418C50.474,955.384,50.446,955.61,50.415,955.896z M53.789,958.204
			c0,0.145-0.02,0.273-0.047,0.387c-0.031,0.027-0.047,0.055-0.047,0.082c-0.027,0.258-0.207,0.387-0.531,0.387h-0.707
			c-0.324,0-0.492-0.156-0.492-0.469v-0.941h-0.707c0.086-0.113,0.148-0.258,0.176-0.43h1.555l-0.797,0.43
			c0.234,0.34,0.457,0.684,0.664,1.023L53.789,958.204z M53.164,955.212v1.027h-1.508c0.09-0.344,0.137-0.688,0.137-1.027H53.164z
			 M51.926,953.458l-0.668,0.77h-2.171c0.266-0.258,0.52-0.516,0.754-0.77H51.926z"/>
		<path fill="#010101" d="M49.129,960.556c-1.035,0.031-1.801-0.324-2.305-1.066v-4.234h-2.441v1.367h1.023v2.91
			c-0.355,0.312-0.727,0.641-1.113,0.98l0.625,1.457c0.41-0.543,0.844-0.984,1.285-1.328c0.59,0.684,1.465,1.043,2.617,1.07
			c0.68,0.027,1.477,0.043,2.394,0.043c0.766,0,1.934,0,3.5,0c0.062-0.258,0.164-0.555,0.312-0.898
			c0.059-0.113,0.105-0.215,0.133-0.301C52.766,960.587,50.754,960.587,49.129,960.556z"/>
		<rect x="57.02" y="952.302" fill="#010101" width="8.695" height="1.453"/>
		<path fill="#010101" d="M56.133,956.88h3.328c-0.477,0.77-1.008,1.469-1.602,2.094c-0.41,0.457-0.84,0.812-1.285,1.07l0.754,1.371
			c0.477-0.09,1.035-0.145,1.688-0.172c1.566-0.117,3.398-0.203,5.5-0.258c0.234,0.285,0.441,0.555,0.617,0.812l1.336-0.898
			c-0.859-0.996-1.879-2.168-3.062-3.508l-1.242,0.73c0.441,0.512,0.887,1.055,1.332,1.621c-1.656,0.086-3.148,0.129-4.48,0.129
			c1.062-1.168,1.875-2.168,2.438-2.992h5.234v-1.414H56.133V956.88z"/>
		<polygon fill="#010101" points="76.535,944.021 77.352,945.333 77.602,945.333 78.449,943.95 78.504,946.114 79.066,946.114 
			78.973,943.146 78.395,943.146 77.492,944.587 76.566,943.146 76.027,943.146 75.949,946.114 76.473,946.114 		"/>
		<polygon fill="#010101" points="73.84,946.114 74.441,946.114 74.441,943.657 75.512,943.657 75.512,943.146 72.762,943.146 
			72.762,943.657 73.84,943.657 		"/>
	</g>
</g>
<g>
	<path fill-rule="evenodd" clip-rule="evenodd" fill="#010101" d="M74.767,348.846c-1.793,0-3.242,1.452-3.242,3.243
		c0,11.624-9.461,21.081-21.082,21.081c-11.625,0-21.082-9.457-21.082-21.081s9.457-21.081,21.082-21.081v4.864l12.973-8.107
		l-12.973-8.108v4.865c-15.203,0-27.57,12.366-27.57,27.567s12.367,27.567,27.57,27.567c15.199,0,27.566-12.366,27.566-27.567
		C78.009,350.298,76.556,348.846,74.767,348.846z"/>
</g>
<g>
	<g>
		<path fill="#202020" d="M60.644,433.903c-0.271-0.268-0.627-0.323-0.971-0.354c-1.623-0.154-5.9-0.188-9.203-0.188
			c-3.307,0-7.58,0.033-9.203,0.188c-0.348,0.031-0.703,0.087-0.971,0.354c-0.289,0.284-0.33,0.668-0.352,1.002
			c-0.055,0.974-0.029,3.186,0.049,4.154c0.021,0.264,0.064,0.538,0.27,0.755c0.199,0.211,0.469,0.259,0.723,0.29
			c1.113,0.135,3.178,0.176,4.643,0.195c0.572,0.006,1.158,0.011,1.729,0.018h0.004c0.949,0.008,1.93,0.018,2.896,0.038
			c0.23,0.003,0.455,0.014,0.678,0.073s0.398,0.147,0.623,0.28c0.135,0.081,0.271,0.16,0.402,0.237l0.008,0.008
			c0.15,0.087,0.297,0.177,0.443,0.265c0.201,0.117,0.439,0.249,0.713,0.325c0.271,0.077,0.51,0.086,0.77,0.086h0.168
			c0.963,0,2.494-0.03,3.627-0.128c0.109-0.008,0.24-0.019,0.369-0.112c0.143-0.1,0.189-0.232,0.209-0.359
			c0.025-0.125,0.051-0.253,0.072-0.376v-0.007c0.016-0.083,0.029-0.171,0.045-0.256c0.014-0.069,0.025-0.125,0.059-0.16
			c0.029-0.032,0.066-0.034,0.139-0.041c0.154-0.013,0.314-0.025,0.455-0.036c0.307-0.021,0.621-0.044,0.93-0.083
			c0.248-0.031,0.508-0.08,0.707-0.28c0.211-0.207,0.252-0.476,0.273-0.731c0.078-0.969,0.104-3.181,0.045-4.154
			C60.976,434.57,60.933,434.188,60.644,433.903z M59.405,438.724c-0.008,0.197-0.029,0.358-0.154,0.475
			c-0.121,0.109-0.289,0.135-0.482,0.153c-0.158,0.015-0.322,0.027-0.48,0.041c-0.121,0.012-0.256,0.021-0.385,0.032
			c-0.117,0.012-0.281,0.027-0.406,0.127c-0.146,0.111-0.188,0.263-0.213,0.405c-0.014,0.077-0.025,0.15-0.039,0.229
			c-0.016,0.096-0.033,0.191-0.049,0.289c-0.014,0.068-0.021,0.103-0.051,0.126c-0.037,0.027-0.102,0.033-0.154,0.036
			c-0.607,0.045-1.557,0.072-2.248,0.083c-0.037,0-0.08,0-0.121,0c-0.201,0-0.377-0.012-0.582-0.065
			c-0.242-0.064-0.465-0.184-0.648-0.291c-0.139-0.077-0.273-0.155-0.41-0.231c-0.117-0.069-0.248-0.141-0.369-0.21
			c-0.25-0.141-0.447-0.238-0.719-0.299c-0.252-0.058-0.498-0.067-0.762-0.074c-1.043-0.021-2.098-0.025-3.123-0.031h-0.004
			c-0.447-0.001-0.912-0.005-1.369-0.007c-1.418-0.012-3.432-0.038-4.479-0.136c-0.191-0.017-0.363-0.041-0.477-0.161
			c-0.117-0.12-0.139-0.293-0.15-0.49c-0.055-0.896-0.08-2.818-0.021-3.781c0.014-0.23,0.039-0.45,0.193-0.602
			c0.146-0.146,0.359-0.175,0.598-0.194c1.549-0.126,5.779-0.144,8.166-0.144h0.004c2.387,0,6.617,0.018,8.17,0.144
			c0.238,0.02,0.447,0.049,0.598,0.194c0.156,0.151,0.176,0.371,0.193,0.602C59.485,435.905,59.464,437.828,59.405,438.724z"/>
		<path fill="#202020" d="M58.226,434.976c-0.164-0.173-0.385-0.183-0.545-0.189c-1.314-0.068-4.641-0.082-7.203-0.082H50.47
			c-2.566,0-5.896,0.014-7.211,0.082c-0.16,0.007-0.381,0.017-0.545,0.189c-0.154,0.162-0.17,0.376-0.18,0.562
			c-0.016,0.334-0.016,0.948,0,1.278c0,0.156,0.014,0.393,0.18,0.564c0.164,0.171,0.385,0.181,0.545,0.191
			c1.281,0.064,4.629,0.078,7.211,0.078s5.93-0.014,7.211-0.078c0.16-0.011,0.381-0.021,0.545-0.191
			c0.166-0.172,0.176-0.408,0.18-0.564c0.012-0.328,0.018-0.944,0-1.278C58.397,435.352,58.376,435.138,58.226,434.976z"/>
		<path fill="#202020" d="M50.47,419.542c-11.049,0-20.001,8.955-20.001,20c0,17.998,20.001,40,20.001,40s19.998-22.002,19.998-40
			C70.468,428.497,61.515,419.542,50.47,419.542z M63.21,440.079c-0.055,0.584-0.146,1.245-0.586,1.71
			c-0.461,0.488-1.092,0.546-1.654,0.599c-1.4,0.134-3.117,0.227-5.248,0.283c-1.602,0.042-3.318,0.062-5.252,0.062
			s-3.654-0.02-5.256-0.062c-2.131-0.057-3.848-0.149-5.248-0.283c-0.527-0.053-1.189-0.114-1.65-0.604
			c-0.443-0.463-0.535-1.124-0.586-1.705c-0.121-1.38-0.158-4.148-0.066-5.588c0.037-0.556,0.104-1.133,0.498-1.537
			c0.393-0.401,0.934-0.467,1.502-0.505c2.139-0.136,7.689-0.154,10.807-0.154s8.664,0.019,10.807,0.154
			c0.568,0.038,1.109,0.104,1.498,0.505c0.398,0.404,0.465,0.981,0.502,1.537C63.364,435.931,63.331,438.699,63.21,440.079z"/>
	</g>
</g>
<g>
	<path fill="#010101" d="M50.002,1074.863c-0.945,0-1.715,0.77-1.715,1.715s0.77,1.715,1.715,1.715c0.941,0,1.715-0.77,1.715-1.715
		S50.947,1074.863,50.002,1074.863z"/>
	<path fill="#010101" d="M59.525,1020H40.572c-3.035,0-5.145,2.025-5.145,5.031v49.938c0,3.008,2.113,5.031,5.145,5.031h18.953
		c2.969,0,5.047-2.057,5.047-5.031v-49.938C64.572,1022.068,62.549,1020,59.525,1020z M52.572,1023.428v0.857h-5.141l-0.004-0.857
		H52.572z M50.002,1079.141c-1.418,0-2.574-1.154-2.574-2.57c0-1.42,1.156-2.57,2.574-2.57s2.57,1.15,2.57,2.57
		C52.572,1077.986,51.42,1079.141,50.002,1079.141z M62.857,1073.141H37.143v-46.285h25.715V1073.141z"/>
</g>
<path fill="#010101" d="M63.514,1121.139c-1.242-1.018-2.301-1.168-3.277-1.191c-5.699-0.129-13.316-0.154-20.141,0
	c-0.973,0.023-2.371,0.174-3.609,1.191c-1.242,1.02-1.285,2.945-1.285,2.945s0,49.749,0,50.569c0,0.953,0.223,2.227,1.539,3.676
	c1.316,1.453,3.129,1.51,4.352,1.512c3.363,0,16.027-0.004,17.496,0c1.223,0.002,3.352-0.059,4.672-1.512
	c1.316-1.449,1.539-2.723,1.539-3.676c0-0.82,0-50.569,0-50.569S64.752,1122.158,63.514,1121.139z M57.225,1121.486
	c0.344,0,0.621,0.277,0.621,0.621c0,0.342-0.277,0.619-0.621,0.619c-0.34,0-0.617-0.277-0.617-0.619
	C56.607,1121.764,56.885,1121.486,57.225,1121.486z M54.521,1121.486c0.344,0,0.621,0.277,0.621,0.621
	c0,0.342-0.277,0.619-0.621,0.619c-0.34,0-0.621-0.277-0.621-0.619C53.9,1121.764,54.182,1121.486,54.521,1121.486z
	 M53.943,1177.315c0,0.494-0.398,0.893-0.891,0.893h-6.422c-0.496,0-0.895-0.398-0.895-0.893v-0.162
	c0-0.494,0.398-0.775,0.895-0.775h6.422c0.492,0,0.891,0.281,0.891,0.775V1177.315z M63.096,1171.831
	c0,0.475-0.383,1.037-0.859,1.037H37.928c-0.477,0-0.918-0.562-0.918-1.037v-45.733c0-0.475,0.441-0.859,0.918-0.859h24.309
	c0.477,0,0.859,0.385,0.859,0.859V1171.831z"/>
</svg>
