<svg xmlns="http://www.w3.org/2000/svg" xmlns:xlink="http://www.w3.org/1999/xlink" version="1.1" id="Layer_1" x="0px" y="0px" width="35px" height="70px" viewBox="0 0 35 70" enable-background="new 0 0 35 70" xml:space="preserve"><style>.style0{fill:	#FFFFFF;}</style><path d="M15.4 17.737h-3.67v3.404h4.091v1.021h-5.31v-9.44h5.099v1.022h-3.88v2.983h3.67V17.737z" class="style0"/><path d="M17.399 22.163v-9.44h1.33l3.025 4.776c0.701 1.1 1.2 2.1 1.7 3.068l0.027-0.015 c-0.111-1.261-0.139-2.409-0.139-3.881v-3.949h1.148v9.44h-1.232l-2.998-4.79c-0.658-1.051-1.289-2.13-1.766-3.152l-0.041 0 c0.07 1.2 0.1 2.3 0.1 3.894v4.034H17.399z" class="style0"/><path d="M15.859 49.274v5.396h-0.587v-0.731h-3.874v4.005h-0.588v-4.005H6.937v0.792H6.373v-5.457h4.438v-2.172 h0.588v2.172H15.859z M10.811 53.376v-3.539H6.937v3.539H10.811z M15.272 53.376v-3.539h-3.874v3.539H15.272z" class="style0"/><path d="M26.601 49.837c-0.756 1.992-1.739 3.574-3.022 4.846c1.379 1.2 3.1 2.2 5 2.7 c-0.144 0.132-0.3 0.372-0.407 0.528c-2.003-0.553-3.694-1.512-5.073-2.783c-1.379 1.224-3.07 2.135-5.109 2.8 c-0.072-0.155-0.252-0.407-0.372-0.551c2.027-0.624 3.706-1.5 5.05-2.688c-1.308-1.343-2.339-2.974-3.059-4.857h-1.859v-0.562 h10.711v0.562H26.601z M20.256 49.837c0.66 1.7 1.6 3.2 2.9 4.438c1.188-1.175 2.123-2.638 2.794-4.438H20.256z M23.267 49.106c-0.168-0.492-0.588-1.296-0.972-1.883l0.563-0.168c0.396 0.6 0.8 1.4 1 1.846L23.267 49.106z" class="style0"/></svg>