<svg xmlns="http://www.w3.org/2000/svg" xmlns:xlink="http://www.w3.org/1999/xlink" version="1.1" id="Layer_1" x="0" y="0" width="54" height="270" viewBox="0 0 54 270" enable-background="new 0 0 54 270" xml:space="preserve">
  <path fill="#FFFFFF" d="M16.71 19.55h2.11c-0.19 1.18-0.47 2.23-0.85 3.15 -0.5-0.41-1.09-0.84-1.52-1.16l-1.01 1.13c0.55 0.44 05C9421A55"/>
  <path fill="#FFFFFF" d="M23.12 21.84c0.85 0.91 1.79 1.93 2.25 2.62l1.41-1.13c-0.67-0.85-2.08-2.23-3.04-3.18l-0.61 0.45v-4.65h-1.76v13.08h1.76V21.84z"/>
  <polygon fill="#FFFFFF" points="34.28 18.02 37.75 18.02 37.75 23.99 39.39 23.99 39.39 16.57 32.7 16.57 32.7 23.99 34.28 23.99 "/>
  <path fill="#FFFFFF" d="M29.84 21.64c-0.52-0.73-1.03-1.43-1.52-2.07l-1.22 0.87c0.7 0.93 1.43 1.99 2.1 3.04 -0.67 1.61-1.51 20EA5697AE5"/>
  <path fill="#FFFFFF" d="M38.7 25.36c-0.04 1.79-0.13 2.2-0.45 2.2h-0.57c-0.25 0-0.35-0.11-0.35-0.48v-3.1h-0.92c0.28-1.02 0.3603A1DE4A63"/>
  <path fill="#FFFFFF" d="M19.27 60.94v2.33h-4.86v10.79h1.66v-3.95c0.41 0.31 0.92 0.9 1.16 1.23 1.52-0.9 2.46-2.04 3-3.22 1.020BA6FD0A4E"/>
  <path fill="#FFFFFF" d="M28.75 73.99c0.24-0.32 0.67-0.69 3.11-2.56 -0.17-0.32-0.4-0.95-0.5-1.4l-1.33 0.98v-4.99h-1.48v5.39c0 0.74-0.33 1.26-0.61 1.5 0.25 0.22 0.66 0.78 0.81 1.09V73.99z"/>
  <path fill="#FFFFFF" d="M39.75 64.13v-1.55h-5.01c0.14-0.42 0.28-0.83 0.39-1.25l-1.55-0.36c-0.36 1.46-0.99 2.98-1.76 3.95 0.30383D4FADA"/>
  <path fill="#FFFFFF" d="M28.26 60.95c-0.29 1.98-0.81 3.98-1.6 5.23 0.32 0.24 0.92 0.79 1.17 1.05 0.48-0.78 0.89-1.82 1.23-2.0326F85A6F"/>
  <path fill="#FFFFFF" d="M13.83 117.05v1.63h12.69v-1.62h-3.25c0.36-2.3 0.77-5.01 0.98-7.03l-1.27-0.15 -0.28 0.07h-4.01c0.11-00ACCCF0AC9"/>
  <path fill="#FFFFFF" d="M36.71 113.8h3.14v-1.51h-3.03v-0.14 -1.81h2.63v-1.51h-1.59c0.41-0.64 0.84-1.46 1.23-2.21l-1.68-0.43c09F103AA77"/>
  <path fill="#FFFFFF" d="M2.68 153.99h8.31v1.58h1.77v-3.12H7.83c-0.21-0.48-0.5-1.08-0.77-1.55l-1.74 0.41c0.17 0.35 0.36 0.76 0.53 1.15H0.99v3.12h1.69V153.99z"/>
  <path fill="#FFFFFF" d="M7.32 154.66l-1.86-0.36c-0.25 0.65-0.59 1.36-0.95 2.06H0.73v1.57h2.89c-0.43 0.7-0.88 1.36-1.3 1.91l-086D7D8AAA"/>
  <path fill="#FFFFFF" d="M15.87 156.51v0.94h3.38v1.61h-3.18v1.46h3.18v1.68h-5.01v1.5h11.87v-1.5h-5.11v-1.68h3.32v-1.46h-3.32v03BF715A8D"/>
  <path fill="#FFFFFF" d="M36.55 159.19h2.56v-1.55h-2.56v-2.3h2.85v-1.57h-2.85v-2.74h-1.66v2.75h-1.12c0.14-0.63 0.25-1.29 0.350A23998ACB"/>
  <path fill="#FFFFFF" d="M40.97 164.01h1.54v-2.65h2.08v0.94c0 0.17-0.06 0.21-0.22 0.21 -0.18 0.01-0.73 0.03-1.23 0 0.21 0.39 0E4126DA30"/>
  <path fill="#FFFFFF" d="M49.34 157.2h1.91c1.27 0 1.72-0.5 1.9-2.3 -0.46-0.1-1.12-0.35-1.45-0.6 -0.07 1.22-0.15 1.43-0.61 1.4097F524AA3"/>
  <path fill="#FFFFFF" d="M43.95 152.31c0.22 0.38 0.48 0.8 0.68 1.22l-2.04 0.13c0.53-0.67 1.09-1.5 1.48-2.3l-1.76-0.46c-0.39 10D185F0ACC"/>
  <path fill="#FFFFFF" d="M51.82 160.8c-0.07 1.4-0.15 1.67-0.64 1.67h-1.56c-0.54 0-0.64-0.07-0.64-0.56v-1.11c1.27-0.41 2.64-0.01CE476A88"/>
  <path fill="#FFFFFF" d="M14.03 199.03v9.9h1.27v-0.88h3.24v0.7h1.33v-9.72h-1.48v-1.12h1.73v-1.47h-6.34l-0.01 1.47h1.89v1.12H10842D06A7A"/>
  <path fill="#FFFFFF" d="M24.53 207.27h-1.56c-0.54 0-0.63-0.07-0.63-0.66v-4.22h2.25v0.87h1.61v-6.7H20.63v1.61h3.95v2.63h-3.9v0DFE1B5A8C"/>
  <path fill="#FFFFFF" d="M28.78 201.82v5.65h-1.62v1.18h12.52v-1.18h-1.69v-5.65h-4.2l0.1-0.55h5.39v-1.22h-5.19c0.03-0.2 0.06-0025C430AFF"/>
  <path fill="#FFFFFF" d="M14.18 254.03h1.59v-0.5h8.66v0.5h1.68V241.47H14.18V254.03zM24.43 242.97v4.62c-0.96-0.18-1.94-0.43-2.06ABB3DA03"/>
  <path fill="#FFFFFF" d="M34.53 240.88l-1.67 0.36c0.15 0.31 0.31 0.66 0.42 1.01h-5.28v3.92c0 2.06-0.08 4.97-1.24 6.95 0.39 0.0B6469DA40"/>
</svg>
