<?xml version="1.0" standalone="no"?>
<!DOCTYPE svg PUBLIC "-//W3C//DTD SVG 1.1//EN" "http://www.w3.org/Graphics/SVG/1.1/DTD/svg11.dtd" >
<svg>
<metadata>
Created by FontForge 20110222 at Mon Nov  4 23:35:10 2013
 By Orthosie Webhosting
Copyright (C) 1994, 2007 Hoefler &#38; Frere-Jones. http://www.typography.com
</metadata>
<defs>
<font id="KnockoutLight" horiz-adv-x="500" >
  <font-face 
    font-family="KnockoutLight"
    font-weight="300"
    font-stretch="normal"
    units-per-em="1000"
    panose-1="2 0 5 6 4 0 0 2 0 4"
    ascent="800"
    descent="-200"
    x-height="468"
    cap-height="666"
    bbox="-221 -231 784 839"
    underline-thickness="45"
    underline-position="-61"
    unicode-range="U+0020-FB02"
  />
<missing-glyph 
 />
    <glyph glyph-name="fi" unicode="fi" horiz-adv-x="414" 
d="M282 0v468h84v-468h-84zM158 393v-393h-85v393h-54v70h54v49q0 72 30.5 113t93.5 41h34v-71h-23q-30 0 -42.5 -17.5t-12.5 -48.5v-66h69v-70h-64zM285 543v89h78v-89h-78z" />
    <glyph glyph-name="fl" unicode="fl" horiz-adv-x="414" 
d="M158 393v-393h-85v393h-54v70h54v49q0 72 30.5 113t93.5 41h34v-71h-23q-30 0 -42.5 -17.5t-12.5 -48.5v-66h69v-70h-64zM282 0v666h84v-666h-84z" />
    <glyph glyph-name=".notdef" 
 />
    <glyph glyph-name=".null" horiz-adv-x="0" 
 />
    <glyph glyph-name="nonmarkingreturn" horiz-adv-x="164" 
 />
    <glyph glyph-name="space" unicode=" " horiz-adv-x="164" 
 />
    <glyph glyph-name="exclam" unicode="!" horiz-adv-x="191" 
d="M54 0v111h83v-111h-83zM109 186h-26l-33 190v290h92v-290z" />
    <glyph glyph-name="quotedbl" unicode="&#x22;" horiz-adv-x="258" 
d="M80 465h-53l34 201h77zM190 465h-53l49 201h78z" />
    <glyph glyph-name="numbersign" unicode="#" horiz-adv-x="559" 
d="M234 431l-33 -196h125l34 196h-126zM422 431l-34 -196h135v-56h-145l-30 -179h-62l30 179h-125l-31 -179h-62l31 179h-121v56h131l33 196h-136v56h146l30 179h62l-29 -179h125l30 179h62l-30 -179h119v-56h-129z" />
    <glyph glyph-name="dollar" unicode="$" horiz-adv-x="429" 
d="M177 763h80v-85q64 -11 100.5 -56t36.5 -110v-44h-87v33q0 42 -20 71t-66 29q-38 0 -58 -22.5t-20 -58.5q0 -21 7 -38t19.5 -32.5t30 -30.5t37.5 -32q27 -20 55 -42t50 -49t36 -60.5t14 -77.5q0 -68 -37.5 -112.5t-97.5 -56.5v-86h-80v86q-63 11 -100 56t-37 110v46h89
v-34q0 -103 88 -103q42 0 64.5 27t22.5 64q0 24 -9 44t-24 38t-35 34.5t-43 33.5q-25 18 -50.5 39t-45 45.5t-32 53.5t-12.5 64q0 64 32 109.5t92 59.5v87z" />
    <glyph glyph-name="percent" unicode="%" horiz-adv-x="568" 
d="M479 242q0 14 -10 23.5t-26 9.5t-26 -9.5t-10 -23.5v-170q0 -14 10 -23.5t26 -9.5t26 9.5t10 23.5v170zM168 593q0 14 -10 24t-26 10t-25.5 -10t-9.5 -24v-169q0 -15 9.5 -24t25.5 -9t26 9t10 24v169zM542 88q0 -49 -28 -76.5t-71 -27.5q-42 0 -70.5 27.5t-28.5 76.5v138
q0 48 28.5 75.5t70.5 27.5q43 0 71 -27.5t28 -75.5v-138zM96 -22l-39 30l422 679l39 -30zM231 439q0 -48 -28 -75.5t-71 -27.5q-42 0 -70 27.5t-28 75.5v139q0 48 28 75t70 27q43 0 71 -27t28 -75v-139z" />
    <glyph glyph-name="ampersand" unicode="&#x26;" horiz-adv-x="557" 
d="M286 94q-29 38 -54 89t-45 102q-29 -23 -46.5 -53.5t-17.5 -67.5q0 -49 25 -73.5t70 -24.5q20 0 38.5 8.5t29.5 19.5zM324 533q0 30 -11 48t-36 18q-29 0 -45.5 -23t-16.5 -67q0 -22 5 -50t13 -59q52 35 71.5 71t19.5 62zM549 94q0 -54 -27.5 -81.5t-75.5 -27.5
q-28 0 -55.5 14.5t-53.5 40.5q-29 -26 -66 -40.5t-75 -14.5q-37 0 -67 13t-51.5 35.5t-33 53t-11.5 64.5q0 66 34 117t92 93q-14 37 -21.5 75t-7.5 72q0 36 10 68t28.5 55t46 36.5t62.5 13.5q66 0 96.5 -42t30.5 -105q0 -64 -41.5 -113.5t-104.5 -87.5q8 -22 17 -46
t19.5 -47.5t22 -44.5t23.5 -38q14 21 26 46t20.5 50.5t13 49t4.5 41.5h75q0 -28 -7 -60t-19 -65t-28 -64.5t-35 -58.5q31 -33 63 -33q29 0 29 34v64h67v-67z" />
    <glyph glyph-name="quotesingle" unicode="'" horiz-adv-x="178" 
d="M97 465h-55l42 201h89z" />
    <glyph glyph-name="parenleft" unicode="(" horiz-adv-x="322" 
d="M301 -166q-103 81 -158 200.5t-55 266.5t55 267t158 201l23 -27q-31 -35 -58 -79t-47 -98.5t-31.5 -120t-11.5 -143.5t11.5 -143t31.5 -119.5t47 -98.5t58 -79z" />
    <glyph glyph-name="parenright" unicode=")" horiz-adv-x="322" 
d="M234 301q0 -147 -55.5 -266.5t-157.5 -200.5l-24 27q31 35 58 79t47.5 98.5t32 119.5t11.5 143t-11.5 143.5t-32 120t-47.5 98.5t-58 79l24 27q102 -81 157.5 -201t55.5 -267z" />
    <glyph glyph-name="asterisk" unicode="*" horiz-adv-x="313" 
d="M262 451q-3 -5 -8.5 -5t-9.5 2q-14 9 -31 21.5t-37 31.5q6 -25 8.5 -48t2.5 -38q0 -5 -2.5 -10t-8.5 -5h-37q-6 0 -8.5 5t-2.5 10q0 17 2 38t9 47q-19 -17 -37.5 -31t-31.5 -21q-4 -3 -9.5 -3t-8.5 5l-18 32q-3 5 -0.5 9.5t7.5 6.5q14 9 33.5 17t45.5 16q-25 8 -46 17.5
t-34 16.5q-5 2 -7.5 7t0.5 10l18 32q3 5 8.5 4.5t9.5 -2.5q15 -9 32 -21t37 -31q-6 25 -9 48t-3 38q0 5 3 9.5t9 4.5h37q6 0 8.5 -4.5t2.5 -9.5q0 -17 -2.5 -38.5t-8.5 -47.5q19 18 37.5 31.5t30.5 21.5q5 2 10 2t9 -5l18 -31q3 -5 0.5 -9.5t-7.5 -7.5q-14 -8 -33.5 -16.5
t-45.5 -16.5q25 -8 45.5 -16.5t33.5 -16.5q5 -3 7.5 -7.5t-0.5 -10.5z" />
    <glyph glyph-name="plus" unicode="+" horiz-adv-x="351" 
d="M212 302v-109h-72v109h-100v72h100v108h72v-108h99v-72h-99z" />
    <glyph glyph-name="comma" unicode="," horiz-adv-x="189" 
d="M136 13q0 -48 -23.5 -78t-76.5 -30v29q26 0 40.5 17.5t14.5 48.5h-37v113h82v-100z" />
    <glyph glyph-name="hyphen" unicode="-" horiz-adv-x="272" 
d="M31 269v76h210v-76h-210z" />
    <glyph glyph-name="hyphen" unicode="&#xad;" horiz-adv-x="272" 
d="M31 269v76h210v-76h-210z" />
    <glyph glyph-name="period" unicode="." horiz-adv-x="189" 
d="M54 0v113h82v-113h-82z" />
    <glyph glyph-name="slash" unicode="../default.htm" horiz-adv-x="264" 
d="M67 -64h-65l199 793h64z" />
    <glyph glyph-name="zero" unicode="0" horiz-adv-x="445" 
d="M311 517q0 34 -23 58t-65 24t-65.5 -24t-23.5 -58v-368q0 -34 23.5 -58t65.5 -24t65 24t23 58v368zM400 158q0 -39 -12.5 -70.5t-35.5 -54.5t-55.5 -35.5t-73.5 -12.5t-73.5 12.5t-55.5 35.5t-35.5 54.5t-12.5 70.5v350q0 39 12.5 70.5t35.5 54.5t55.5 35.5t73.5 12.5
t73.5 -12.5t55.5 -35.5t35.5 -54.5t12.5 -70.5v-350z" />
    <glyph glyph-name="one" unicode="1" horiz-adv-x="227" 
d="M68 0v623q24 0 33.5 13t9.5 30h47v-666h-90z" />
    <glyph glyph-name="two" unicode="2" horiz-adv-x="392" 
d="M369 512q0 -67 -40 -126.5t-114 -119.5q-53 -54 -73 -99.5t-20 -80.5h241v-86h-335v36q0 36 5 68.5t20 66.5t42.5 71.5t72.5 82.5q30 29 52.5 53t36.5 46.5t21 44.5t7 47q0 41 -20 64t-62 23q-44 0 -63.5 -23.5t-19.5 -66.5v-61h-80v62q0 33 10 63.5t30 53.5t50.5 36.5
t71.5 13.5q45 0 77 -13.5t52 -37t29 -54t9 -64.5z" />
    <glyph glyph-name="three" unicode="3" horiz-adv-x="398" 
d="M365 145q0 -72 -43 -116t-124 -44q-41 0 -71.5 12.5t-50.5 34t-30 50.5t-10 61v60h80v-49q0 -45 19 -68t61 -23t62.5 22t20.5 64v93q0 23 -14.5 42t-57.5 19h-52v72h52q43 0 57.5 18.5t14.5 42.5v80q0 42 -20.5 64.5t-62.5 22.5t-61 -23t-19 -68v-49h-80v60
q0 33 9.5 61.5t29.5 50t50.5 34t72.5 12.5q81 0 124 -44t43 -116v-68q0 -42 -20.5 -72t-58.5 -38q36 -10 57.5 -36t21.5 -70v-92z" />
    <glyph glyph-name="four" unicode="4" horiz-adv-x="387" 
d="M237 492l-134 -262h134v262zM317 151v-151h-80v151h-227v66l234 449h73v-436h59v-79h-59z" />
    <glyph glyph-name="five" unicode="5" horiz-adv-x="404" 
d="M372 666q-3 -45 -18.5 -64t-58.5 -19h-157l-13 -193q16 25 47 40.5t76 15.5q58 0 91 -35.5t33 -92.5v-169q0 -75 -44.5 -119.5t-126.5 -44.5q-40 0 -70.5 13t-51 35t-30.5 50.5t-10 59.5v51h80v-40q0 -41 20 -66t62 -25q83 0 83 91v150q0 34 -17.5 52.5t-48.5 18.5
q-41 0 -64.5 -23t-34.5 -52l-74 15l18 351h309z" />
    <glyph glyph-name="six" unicode="6" horiz-adv-x="424" 
d="M304 258q0 35 -18.5 57.5t-64.5 22.5q-42 0 -65.5 -23.5t-23.5 -56.5v-107q0 -39 23.5 -63.5t62.5 -24.5q40 0 63 23t23 58v114zM391 156q0 -76 -45.5 -123t-127.5 -47q-81 0 -127 47t-46 123v347q0 81 47 129.5t129 48.5q41 0 71.5 -13t50.5 -35t30.5 -50.5t10.5 -59.5
v-43h-80v32q0 91 -88 91q-42 0 -63 -25.5t-21 -72.5v-157q18 23 49.5 41t77.5 18q63 0 97.5 -39t34.5 -96v-116z" />
    <glyph glyph-name="seven" unicode="7" horiz-adv-x="373" 
d="M368 607q-44 -84 -78.5 -159t-59 -147.5t-37.5 -146t-14 -154.5h-96q2 70 17.5 144.5t42 149.5t60.5 148t71 140h-250v84h344v-59z" />
    <glyph glyph-name="eight" unicode="8" horiz-adv-x="425" 
d="M300 225q0 14 -5 28.5t-15.5 26t-27 19t-39.5 7.5t-40 -7.5t-27.5 -19t-15.5 -26t-5 -28.5v-75q0 -42 25 -64.5t63 -22.5q37 0 62 22.5t25 64.5v75zM298 516q0 42 -24 64.5t-61 22.5q-38 0 -62 -22.5t-24 -64.5v-69q0 -14 4.5 -28.5t15 -26.5t27 -19.5t39.5 -7.5t39 7.5
t26.5 19.5t15 26.5t4.5 28.5v69zM384 145q0 -72 -45 -116t-126 -44q-82 0 -127 44t-45 116v80q0 42 20.5 70.5t49.5 42.5q-29 14 -48 42.5t-19 70.5v70q0 72 43.5 116t125.5 44q81 0 124.5 -44t43.5 -116v-70q0 -42 -19 -70.5t-47 -42.5q28 -14 48.5 -42.5t20.5 -70.5v-80z
" />
    <glyph glyph-name="nine" unicode="9" horiz-adv-x="434" 
d="M301 515q0 36 -21 62t-65 26q-42 0 -64 -23t-22 -58v-121q0 -34 20.5 -57t65.5 -23q42 0 64 23.5t22 56.5v114zM389 158q0 -81 -46.5 -127t-127.5 -46q-41 0 -72.5 11.5t-53 32t-32.5 48.5t-11 61v43h79v-31q0 -45 25.5 -66t67.5 -21q43 0 63 24.5t20 66.5v154
q-18 -24 -45 -41.5t-74 -17.5q-33 0 -58.5 11t-43.5 30t-27 44.5t-9 54.5v121q0 76 44.5 123.5t126.5 47.5q86 0 130 -47.5t44 -126.5v-349z" />
    <glyph glyph-name="colon" unicode=":" horiz-adv-x="189" 
d="M54 0v113h82v-113h-82zM54 325v113h82v-113h-82z" />
    <glyph glyph-name="semicolon" unicode=";" horiz-adv-x="189" 
d="M136 13q0 -48 -23.5 -78t-76.5 -30v29q26 0 40.5 17.5t14.5 48.5h-37v113h82v-100zM54 325v113h82v-113h-82z" />
    <glyph glyph-name="semicolon" unicode="&#x37e;" horiz-adv-x="189" 
d="M136 13q0 -48 -23.5 -78t-76.5 -30v29q26 0 40.5 17.5t14.5 48.5h-37v113h82v-100zM54 325v113h82v-113h-82z" />
    <glyph glyph-name="less" unicode="&#x3c;" horiz-adv-x="464" 
d="M51 320v27l339 219v-91l-220 -142l220 -142v-91z" />
    <glyph glyph-name="equal" unicode="=" horiz-adv-x="343" 
d="M35 218v80h273v-80h-273zM35 378v79h273v-79h-273z" />
    <glyph glyph-name="greater" unicode="&#x3e;" horiz-adv-x="464" 
d="M75 100v91l220 142l-220 143v90l338 -220v-26z" />
    <glyph glyph-name="question" unicode="?" horiz-adv-x="368" 
d="M118 0v111h83v-111h-83zM348 515q0 -57 -25.5 -104.5t-74.5 -95.5q-31 -30 -41.5 -54.5t-10.5 -60.5h-68q0 30 5 52t16 43t28.5 45t42.5 58q20 27 29.5 57t9.5 58q0 49 -19 69.5t-57 20.5q-41 0 -59.5 -25t-18.5 -70v-62h-81v71q0 35 9 64.5t28 51.5t48.5 34.5t70.5 12.5
q46 0 78 -13.5t52 -36t29 -52.5t9 -63z" />
    <glyph glyph-name="at" unicode="@" horiz-adv-x="637" 
d="M384 361q0 21 -8.5 37.5t-31.5 16.5q-22 0 -40.5 -14.5t-31.5 -36.5t-20.5 -48.5t-7.5 -51.5q0 -29 13 -44t33 -15q26 0 42.5 21.5t28.5 57.5zM611 355q0 -40 -11 -77.5t-32.5 -67t-53.5 -47t-73 -17.5q-33 0 -57 21.5t-23 55.5q-18 -31 -42.5 -49.5t-55.5 -18.5
q-39 0 -63 28t-24 77q0 33 12.5 68t33.5 63.5t50 47t62 18.5q28 0 44.5 -14t20.5 -39l16 48h66l-59 -188q-11 -32 -2.5 -52.5t37.5 -20.5q45 0 74.5 44t29.5 121q0 51 -17.5 93.5t-48 72.5t-73 46.5t-93.5 16.5q-55 0 -101 -22t-79 -59.5t-51.5 -88.5t-18.5 -109
q0 -61 18.5 -111.5t51.5 -87t79 -56.5t101 -20q52 0 95 17t74 47l28 -35q-38 -35 -87.5 -55t-109.5 -20q-64 0 -118.5 23.5t-94.5 66t-63 101.5t-23 130q0 68 23 127.5t63 103t94.5 68.5t118.5 25q74 0 127 -26t87.5 -66.5t51 -89t16.5 -93.5z" />
    <glyph glyph-name="A" unicode="A" horiz-adv-x="417" 
d="M206 517l-55 -273h110zM313 0l-35 163h-144l-35 -163h-92l151 666h100l151 -666h-96z" />
    <glyph glyph-name="B" unicode="B" horiz-adv-x="446" 
d="M313 224q0 75 -71 75h-93v-217h103q34 0 47.5 18t13.5 46v78zM308 519q0 29 -13 47t-47 18h-99v-210h88q71 0 71 75v70zM408 149q0 -72 -37.5 -110.5t-118.5 -38.5h-198v666h193q81 0 117.5 -38.5t36.5 -110.5v-54q0 -102 -85 -120q49 -10 70.5 -42t21.5 -81v-71z" />
    <glyph glyph-name="C" unicode="C" horiz-adv-x="444" 
d="M412 161q0 -36 -10.5 -68t-32.5 -56t-56.5 -38t-81.5 -14t-82 15t-58 40.5t-34.5 59t-11.5 70.5v326q0 37 11.5 70t34.5 58.5t58 40.5t82 15t81.5 -13.5t56.5 -37.5t32.5 -56t10.5 -68v-72h-85v70q0 42 -23 67.5t-70 25.5q-48 0 -71 -25.5t-23 -63.5v-348q0 -38 23 -63.5
t71 -25.5q47 0 70 25t23 68v70h85v-72z" />
    <glyph glyph-name="D" unicode="D" horiz-adv-x="465" 
d="M326 481q0 48 -21.5 73t-68.5 25h-87v-492h87q47 0 68.5 25t21.5 72v297zM420 180q0 -39 -10.5 -72t-32 -57t-55 -37.5t-80.5 -13.5h-188v666h188q47 0 80.5 -13.5t55 -37.5t32 -57t10.5 -72v-306z" />
    <glyph glyph-name="E" unicode="E" horiz-adv-x="393" 
d="M54 0v666h310v-86h-216v-190h156v-82h-156v-222h216v-86h-310z" />
    <glyph glyph-name="F" unicode="F" horiz-adv-x="377" 
d="M149 581v-205h163v-83h-163v-293h-95v667h307v-86h-212z" />
    <glyph glyph-name="G" unicode="G" horiz-adv-x="453" 
d="M366 0l-18 51q-17 -32 -51 -49t-79 -17q-43 0 -75.5 14.5t-54.5 39t-32.5 58t-10.5 71.5v330q0 37 11.5 70t34.5 58t58 39.5t82 14.5t81 -13.5t55.5 -37.5t31.5 -57.5t10 -73.5v-39h-90v50q0 17 -5 32.5t-15.5 27.5t-27.5 19.5t-40 7.5t-40 -7.5t-28.5 -20t-17 -28.5
t-5.5 -33v-348q0 -17 5.5 -33.5t16.5 -29t28 -20t41 -7.5t41 7.5t28.5 20t17 29t5.5 33.5v103h-89v80h179v-342h-47z" />
    <glyph glyph-name="H" unicode="H" horiz-adv-x="486" 
d="M338 0v292h-189v-292h-95v666h95v-289h189v289h94v-666h-94z" />
    <glyph glyph-name="I" unicode="I" horiz-adv-x="202" 
d="M54 0v666h95v-666h-95z" />
    <glyph glyph-name="J" unicode="J" horiz-adv-x="423" 
d="M371 170q0 -40 -9.5 -74t-30 -59t-52.5 -38.5t-77 -13.5q-86 0 -129.5 46t-43.5 128v106h89v-103q0 -92 81 -92q77 0 77 92v504h95v-496z" />
    <glyph glyph-name="K" unicode="K" horiz-adv-x="443" 
d="M327 0l-126 297l-53 -91v-206h-94v666h94v-324l181 324h101l-168 -286l168 -380h-103z" />
    <glyph glyph-name="L" unicode="L" horiz-adv-x="373" 
d="M54 0v666h94v-580h211v-86h-305z" />
    <glyph glyph-name="M" unicode="M" horiz-adv-x="606" 
d="M466 0v519l-27 -127l-91 -392h-93l-89 392l-28 127v-519h-84v666h132l91 -416l27 -127l27 128l89 415h132v-666h-86z" />
    <glyph glyph-name="N" unicode="N" horiz-adv-x="484" 
d="M364 0l-165 324l-56 117v-441h-90v666h77l158 -330l53 -117v447h90v-666h-67z" />
    <glyph glyph-name="O" unicode="O" horiz-adv-x="462" 
d="M323 498q0 43 -22.5 70.5t-69.5 27.5t-69 -27.5t-22 -70.5v-330q0 -43 22 -70.5t69 -27.5t69.5 27.5t22.5 70.5v330zM417 176q0 -41 -11.5 -76t-34.5 -60.5t-58 -40t-82 -14.5t-82 14.5t-58 40t-34.5 60.5t-11.5 76v314q0 41 11.5 75.5t34.5 60t58 40t82 14.5t82 -14.5
t58 -40t34.5 -60t11.5 -75.5v-314z" />
    <glyph glyph-name="P" unicode="P" horiz-adv-x="430" 
d="M308 515q0 33 -13.5 51t-46.5 18h-100v-236h100q33 0 46.5 18.5t13.5 50.5v98zM403 420q0 -71 -37.5 -112t-118.5 -41h-99v-267h-94v666h193q81 0 118.5 -41t37.5 -113v-92z" />
    <glyph glyph-name="Q" unicode="Q" horiz-adv-x="462" 
d="M322 507q0 17 -5.5 33t-16.5 28.5t-28.5 20t-40.5 7.5t-40 -7.5t-28.5 -20t-17 -28.5t-5.5 -33v-348q0 -17 5.5 -33t17 -28.5t28.5 -20t40 -7.5q29 0 52 13l-27 25l66 52v347zM454 0q-10 -8 -20.5 -11.5t-32.5 -3.5q-19 0 -37 7t-31 18q-45 -25 -102 -25q-47 0 -82 15
t-58 40t-34.5 58t-11.5 70v330q0 37 11.5 70t34.5 58t58 39.5t82 14.5t81.5 -14.5t57.5 -39.5t34.5 -58t11.5 -70v-344q0 -47 -23 -82q11 -10 25 -13.5t36 -3.5v-55z" />
    <glyph glyph-name="R" unicode="R" horiz-adv-x="451" 
d="M308 519q0 29 -13.5 47t-47.5 18h-98v-222h88q71 0 71 76v81zM413 -7q-56 0 -78.5 19t-22.5 71v130q0 35 -16.5 56t-52.5 21h-94v-290h-95v666h193q81 0 118.5 -38.5t37.5 -110.5v-73q0 -49 -19 -78t-67 -39q48 -8 68.5 -42t20.5 -74v-121q0 -26 28 -26v-71h-21z" />
    <glyph glyph-name="S" unicode="S" horiz-adv-x="427" 
d="M396 166q0 -41 -14 -74.5t-38.5 -57t-58 -36.5t-72.5 -13q-41 0 -75 13t-58 35.5t-37 53.5t-13 67v46h94v-31q0 -103 90 -103q44 0 66 24t22 62q0 22 -5.5 40.5t-18 36t-33.5 35t-53 37.5q-28 18 -55.5 39.5t-49.5 47t-35.5 56t-13.5 66.5t11.5 67t34 54t55.5 36t75 13
q41 0 73.5 -12.5t55.5 -35t35.5 -53.5t12.5 -68v-43h-90v31q0 42 -21 71t-69 29q-39 0 -59 -21t-20 -55q0 -22 5.5 -40t20 -35t38 -35.5t59.5 -41.5q36 -24 63 -46.5t44 -47t25.5 -52t8.5 -59.5z" />
    <glyph glyph-name="T" unicode="T" horiz-adv-x="394" 
d="M245 579v-579h-95v579h-137v87h368v-87h-136z" />
    <glyph glyph-name="U" unicode="U" horiz-adv-x="475" 
d="M423 159q0 -41 -13.5 -73.5t-38.5 -55t-59 -34t-75 -11.5q-40 0 -74 11.5t-59 34t-38.5 55t-13.5 73.5v507h95v-507q0 -91 91 -91t91 91v507h94v-507z" />
    <glyph glyph-name="V" unicode="V" horiz-adv-x="429" 
d="M260 0h-91l-157 666h99l107 -515l107 515h96z" />
    <glyph glyph-name="W" unicode="W" horiz-adv-x="618" 
d="M487 0h-92l-84 459l-90 -459h-92l-117 666h96l70 -492l94 492h86l86 -492l73 492h93z" />
    <glyph glyph-name="X" unicode="X" horiz-adv-x="432" 
d="M322 0l-105 255l-106 -255h-97l155 339l-146 327h102l97 -247l98 247h97l-146 -323l153 -343h-102z" />
    <glyph glyph-name="Y" unicode="Y" horiz-adv-x="407" 
d="M252 268v-268h-94v268l-161 398h102l109 -307l109 307h95z" />
    <glyph glyph-name="Z" unicode="Z" horiz-adv-x="413" 
d="M145 86h235v-86h-355v43l247 536h-234v87h351v-43z" />
    <glyph glyph-name="bracketleft" unicode="[" horiz-adv-x="295" 
d="M101 -150v903h195v-70h-118v-764h118v-69h-195z" />
    <glyph glyph-name="backslash" unicode="\" horiz-adv-x="262" 
d="M198 -64l-200 793h65l199 -793h-64z" />
    <glyph glyph-name="bracketright" unicode="]" horiz-adv-x="295" 
d="M-1 -150v69h118v764h-118v70h195v-903h-195z" />
    <glyph glyph-name="asciicircum" unicode="^" horiz-adv-x="275" 
d="M264 549q-10 -3 -22 -5t-22 -2q-31 0 -53 21t-31 57q-8 -36 -30.5 -57t-54.5 -21q-10 0 -19 2t-20 5v26q65 0 90 91h73q25 -91 89 -91v-26z" />
    <glyph glyph-name="underscore" unicode="_" horiz-adv-x="337" 
d="M0 -76v76h337v-76h-337z" />
    <glyph glyph-name="grave" unicode="`" horiz-adv-x="178" 
d="M96 538l-77 135h90l41 -135h-54z" />
    <glyph glyph-name="a" unicode="a" horiz-adv-x="372" 
d="M240 221q-131 -16 -131 -93v-12q0 -23 13 -39t39 -16q30 0 54.5 19.5t24.5 51.5v89zM322 -8q-25 0 -43 13t-19 45q-20 -27 -49.5 -42.5t-64.5 -15.5q-54 0 -85 32t-31 89v11q0 40 18 67t47.5 44.5t67 28t77.5 16.5v65q0 27 -14 42.5t-43 15.5q-35 0 -46 -15t-11 -47v-24
h-79v27q0 27 8 51t25 42t42.5 28.5t60.5 10.5q38 0 64 -11t42.5 -31t23.5 -46.5t7 -58.5v-248q0 -26 27 -26v-63h-25z" />
    <glyph glyph-name="b" unicode="b" horiz-adv-x="385" 
d="M263 321q0 43 -16 62.5t-47 19.5q-32 0 -50.5 -20.5t-18.5 -56.5v-190q0 -38 20.5 -57.5t46.5 -19.5q31 0 48 19.5t17 62.5v180zM345 129q0 -63 -33 -100t-87 -37q-32 0 -63 15.5t-46 56.5l-13 -64h-55v666h83v-258q15 29 42.5 48.5t65.5 19.5q53 0 79.5 -38.5
t26.5 -97.5v-211z" />
    <glyph glyph-name="c" unicode="c" horiz-adv-x="357" 
d="M325 145q0 -72 -35 -112.5t-104 -40.5q-68 0 -107 41.5t-39 113.5v172q0 72 39 114.5t107 42.5q69 0 104 -41t35 -113v-20h-74v33q0 30 -16 49.5t-48 19.5t-48.5 -19.5t-16.5 -54.5v-193q0 -73 65 -73q32 0 48 18.5t16 50.5v32h74v-20z" />
    <glyph glyph-name="d" unicode="d" horiz-adv-x="385" 
d="M254 328q0 36 -18 57t-49 21t-48 -20t-17 -62v-183q0 -43 17 -62.5t48 -19.5q26 0 46.5 19.5t20.5 57.5v192zM276 0l-6 64q-16 -41 -46.5 -56.5t-62.5 -15.5q-54 0 -87.5 37t-33.5 100v203q0 66 32 105t82 39q37 0 59 -13.5t41 -40.5v244h84v-666h-62z" />
    <glyph glyph-name="e" unicode="e" horiz-adv-x="359" 
d="M251 333q0 32 -16 51.5t-48 19.5t-48.5 -19.5t-16.5 -51.5v-56h129v56zM325 145q0 -72 -35.5 -112.5t-103.5 -40.5t-107 41.5t-39 113.5v172q0 72 39 114.5t107 42.5t103.5 -42.5t35.5 -114.5v-90h-203v-95q0 -32 16.5 -51.5t48.5 -19.5t48 19.5t16 51.5v32h74v-21z" />
    <glyph glyph-name="f" unicode="f" horiz-adv-x="234" 
d="M158 393v-393h-85v393h-54v70h54v49q0 72 30.5 113t93.5 41h34v-71h-23q-30 0 -42.5 -17.5t-12.5 -48.5v-66h69v-70h-64z" />
    <glyph glyph-name="g" unicode="g" horiz-adv-x="370" 
d="M278 -23q0 22 -17.5 36t-68.5 14q-47 0 -68 -15t-21 -37v-20q0 -22 21 -39t68 -17t66.5 18t19.5 40v20zM253 339q0 29 -17.5 50t-48.5 21q-32 0 -49.5 -21t-17.5 -50v-39q0 -29 17.5 -50t49.5 -21q31 0 48.5 21t17.5 50v39zM366 480q0 -29 -15 -42.5t-32 -13.5
q-8 0 -16.5 1t-17.5 6q23 -20 33.5 -44t10.5 -50v-35q0 -30 -10 -55t-29 -43.5t-45 -28.5t-58 -10q-7 0 -21 1.5t-19 3.5q-17 0 -28.5 -12.5t-11.5 -25.5q0 -17 20.5 -28t79.5 -11q76 0 111.5 -29t35.5 -77v-22q0 -29 -11 -53.5t-32 -43t-51 -29t-68 -10.5q-35 0 -65 8
t-52 23t-34.5 36t-12.5 47v17q0 30 18 50t57 31q-33 8 -49.5 28t-16.5 43q0 25 20.5 46.5t49.5 26.5q-32 16 -47 48.5t-15 71.5v30q0 30 11 56t30 44.5t45 29.5t56 11q27 0 41.5 -5.5t22.5 -5.5q31 0 42 16t11 40h59q2 -16 2.5 -24.5t0.5 -16.5z" />
    <glyph glyph-name="h" unicode="h" horiz-adv-x="393" 
d="M263 0v342q0 30 -15 47.5t-41 17.5q-18 0 -32 -11.5t-23.5 -27t-14.5 -33t-5 -29.5v-306h-84v666h84v-277q16 45 47 65.5t63 20.5q49 0 77.5 -35.5t28.5 -94.5v-345h-85z" />
    <glyph glyph-name="i" unicode="i" horiz-adv-x="180" 
d="M48 0v468h84v-468h-84zM51 543v89h78v-89h-78z" />
    <glyph glyph-name="j" unicode="j" horiz-adv-x="180" 
d="M132 -31q0 -63 -25.5 -98.5t-89.5 -35.5h-31v64h11q31 0 41 12t10 35v522h84v-499zM51 543v89h78v-89h-78z" />
    <glyph glyph-name="k" unicode="k" horiz-adv-x="369" 
d="M272 0l-88 207l-52 -84v-123h-84v666h84v-431l130 234h84l-110 -197l123 -272h-87z" />
    <glyph glyph-name="l" unicode="l" horiz-adv-x="180" 
d="M48 0v666h84v-666h-84z" />
    <glyph glyph-name="m" unicode="m" horiz-adv-x="552" 
d="M423 0v349q0 26 -11 41.5t-33 15.5q-18 0 -29 -11.5t-18 -27t-9.5 -33t-2.5 -29.5v-305h-85v350q0 26 -10 41.5t-32 15.5q-18 0 -30 -11.5t-18.5 -27t-9.5 -33t-3 -29.5v-306h-84v468h71l5 -80q18 48 44.5 67.5t60.5 19.5t54.5 -20t30.5 -55q17 41 41.5 58t58.5 17
q45 0 68.5 -31.5t23.5 -88.5v-355h-83z" />
    <glyph glyph-name="n" unicode="n" horiz-adv-x="394" 
d="M263 0v342q0 30 -15 47.5t-41 17.5q-18 0 -32 -11.5t-23.5 -27t-14.5 -33t-5 -29.5v-306h-84v468h70l6 -93q19 54 46.5 77t63.5 23q57 0 85.5 -35.5t28.5 -94.5v-345h-85z" />
    <glyph glyph-name="o" unicode="o" horiz-adv-x="374" 
d="M251 335q0 30 -16 49.5t-48 19.5t-48 -19.5t-16 -49.5v-202q0 -32 16 -50.5t48 -18.5t48 18.5t16 50.5v202zM333 147q0 -72 -39 -113.5t-107 -41.5t-107.5 41.5t-39.5 113.5v172q0 72 39.5 114.5t107.5 42.5t107 -42.5t39 -114.5v-172z" />
    <glyph glyph-name="p" unicode="p" horiz-adv-x="385" 
d="M262 327q0 82 -64 82q-26 0 -46.5 -19.5t-20.5 -58.5v-189q0 -36 18 -57t49 -21q64 0 64 83v180zM344 122q0 -28 -8 -52t-22.5 -41.5t-33.5 -27t-42 -9.5q-37 0 -61.5 12.5t-45.5 41.5v-208h-83v630h62l6 -64q15 40 46 56t63 16q54 0 86.5 -37t32.5 -100v-217z" />
    <glyph glyph-name="q" unicode="q" horiz-adv-x="385" 
d="M254 330q0 39 -20.5 58.5t-46.5 19.5q-31 0 -48 -20t-17 -62v-181q0 -43 17 -62.5t48 -19.5t49 20.5t18 57.5v189zM254 -163v222q-17 -33 -43 -50.5t-69 -17.5q-21 0 -39.5 9.5t-32.5 27t-22 41.5t-8 52v216q0 64 33 101t88 37q16 0 32 -4t30.5 -12.5t27 -22.5t19.5 -34
l13 65h55v-630h-84z" />
    <glyph glyph-name="r" unicode="r" horiz-adv-x="264" 
d="M252 386q-67 8 -93.5 -9t-26.5 -49v-328h-84v468h70l7 -83q18 58 49.5 76t77.5 10v-85z" />
    <glyph glyph-name="s" unicode="s" horiz-adv-x="344" 
d="M315 122q0 -26 -9.5 -49.5t-27.5 -41.5t-44 -28.5t-59 -10.5q-71 0 -107 38t-36 99v23h70v-21q0 -38 20 -54.5t52 -16.5q64 0 64 56q0 14 -3 26t-12 22.5t-25 21.5t-42 23q-57 24 -87 57.5t-30 82.5q0 27 9.5 50t27.5 40t43 27t56 10q70 0 102.5 -34t32.5 -95v-18h-68v20
q0 55 -66 55q-29 0 -44.5 -13t-15.5 -35q0 -13 4.5 -24t15 -21.5t28.5 -21t45 -23.5q57 -25 81.5 -59.5t24.5 -84.5z" />
    <glyph glyph-name="t" unicode="t" horiz-adv-x="239" 
d="M156 393v-246q0 -45 5 -80t20 -67h-86q-14 29 -19 62.5t-5 84.5v246h-54v70h59v84l80 27v-111h64v-70h-64z" />
    <glyph glyph-name="u" unicode="u" horiz-adv-x="395" 
d="M277 0l-6 80q-17 -47 -45.5 -67.5t-64.5 -20.5q-57 0 -85.5 35.5t-28.5 94.5v346h85v-343q0 -31 15 -48.5t41 -17.5q18 0 32 11.5t23.5 27t14.5 33t5 29.5v308h84v-468h-70z" />
    <glyph glyph-name="v" unicode="v" horiz-adv-x="338" 
d="M209 0h-80l-121 468h83l58 -260l20 -106l21 106l56 260h83z" />
    <glyph glyph-name="w" unicode="w" horiz-adv-x="497" 
d="M385 0h-74l-43 194l-19 106l-20 -106l-44 -194h-74l-103 468h83l41 -258l17 -106l18 106l50 258h71l42 -258l18 -106l17 106l49 258h74z" />
    <glyph glyph-name="x" unicode="x" horiz-adv-x="333" 
d="M242 0l-74 165l-74 -165h-84l119 234l-119 234h85l74 -165l74 165h84l-118 -234l118 -234h-85z" />
    <glyph glyph-name="y" unicode="y" horiz-adv-x="338" 
d="M201 -31q-8 -31 -17 -56t-23 -42t-35 -26.5t-53 -9.5h-31v67h24q31 0 41.5 10.5t16.5 33.5l8 40l-124 482h84l56 -259l20 -105l21 105l56 259h83z" />
    <glyph glyph-name="z" unicode="z" horiz-adv-x="316" 
d="M113 69h176v-69h-266v51l184 348h-175v69h263v-51z" />
    <glyph glyph-name="braceleft" unicode="{" horiz-adv-x="320" 
d="M234 -150q-37 0 -65 11t-46 30.5t-27 44.5t-9 54q0 39 12.5 72.5t27 63t27 54t12.5 43.5q0 26 -14.5 38t-52.5 12h-32v56h32q38 0 52.5 12t14.5 38q0 20 -12.5 44.5t-27 53.5t-27 63t-12.5 72q0 29 9 54.5t27 45t46 30.5t65 11h35v-67h-36q-35 0 -50.5 -19.5t-15.5 -49.5
q0 -29 10.5 -58.5t23 -57.5t23 -53.5t10.5 -46.5q0 -39 -21 -64.5t-66 -35.5q87 -19 87 -99q0 -21 -10.5 -47t-23 -53.5t-23 -57t-10.5 -58.5q0 -31 15.5 -50.5t50.5 -19.5h36v-66h-35z" />
    <glyph glyph-name="bar" unicode="|" horiz-adv-x="170" 
d="M54 -64v793h62v-793h-62z" />
    <glyph glyph-name="braceright" unicode="}" horiz-adv-x="320" 
d="M221 273q-38 0 -52.5 -12t-14.5 -38q0 -19 12.5 -43.5t27.5 -54t27.5 -63t12.5 -72.5q0 -29 -9 -54t-27.5 -44.5t-46 -30.5t-65.5 -11h-34v66h35q35 0 51 19.5t16 50.5q0 29 -10.5 58.5t-23.5 57t-23.5 53.5t-10.5 47q0 80 88 99q-45 10 -66.5 35.5t-21.5 64.5
q0 21 10.5 46.5t23.5 53.5t23.5 57.5t10.5 58.5q0 30 -16 49.5t-51 19.5h-35v67h34q38 0 65.5 -11t46 -30.5t27.5 -45t9 -54.5q0 -38 -12.5 -72t-27.5 -63t-27.5 -53.5t-12.5 -44.5q0 -26 14.5 -38t52.5 -12h32v-56h-32z" />
    <glyph glyph-name="asciitilde" unicode="~" horiz-adv-x="284" 
d="M272 350q0 -34 -16.5 -54t-51.5 -20q-18 0 -35.5 8.5t-34 18t-30.5 18t-23 8.5q-11 0 -14.5 -5.5t-3.5 -15.5v-33h-38q-6 9 -9.5 18.5t-3.5 20.5q0 35 16.5 55t51.5 20q18 0 36 -8.5t34.5 -18t30 -18t22.5 -8.5q11 0 15 5.5t4 16.5v33h37q13 -17 13 -41z" />
    <glyph glyph-name="nonbreakingspace" unicode="&#xa0;" horiz-adv-x="164" 
 />
    <glyph glyph-name="exclamdown" unicode="&#xa1;" horiz-adv-x="191" 
d="M50 -198v290l33 190h26l33 -190v-290h-92zM54 357v111h83v-111h-83z" />
    <glyph glyph-name="cent" unicode="&#xa2;" horiz-adv-x="366" 
d="M159 666h72v-96q47 -11 73.5 -48t26.5 -94v-26h-77v37q0 29 -16 46.5t-45 17.5t-44.5 -17.5t-15.5 -46.5v-210q0 -29 15.5 -46.5t44.5 -17.5t45 17.5t16 46.5v36h77v-27q0 -57 -26.5 -94t-73.5 -48v-96h-72v94q-51 11 -81.5 48.5t-30.5 95.5v190q0 58 30.5 96t81.5 48v94
z" />
    <glyph glyph-name="sterling" unicode="&#xa3;" horiz-adv-x="475" 
d="M141 81q-15 13 -26.5 17.5t-19.5 4.5q-14 0 -22 -7t-8 -18q0 -10 7.5 -17.5t22.5 -7.5q14 0 26 7t20 21zM452 131q0 -73 -28.5 -109.5t-91.5 -36.5q-39 0 -76.5 14t-63.5 37q-20 -24 -44.5 -37.5t-56.5 -13.5q-44 0 -69 25t-25 62q0 41 26.5 68t78.5 27q18 0 36.5 -7.5
t32.5 -17.5q11 16 18 40.5t7 46.5q0 14 -5 35t-14 35h-125v76h91q-14 29 -23.5 62t-9.5 69q0 34 10 65.5t30.5 56t52.5 39t75 14.5q39 0 68.5 -13t49.5 -34.5t30 -50.5t10 -61v-48h-80v35q0 41 -19 66.5t-60 25.5q-38 0 -58.5 -23t-20.5 -70q0 -34 11 -68t28 -65h133v-76
h-101q5 -17 7.5 -34.5t2.5 -31.5q0 -32 -10 -66.5t-32 -67.5q18 -14 41.5 -24t40.5 -10q29 0 41 16t12 42v78h80v-70z" />
    <glyph glyph-name="currency" unicode="&#xa4;" horiz-adv-x="436" 
d="M343 373v-80h-210v-132q0 -41 23 -66t71 -25q47 0 70.5 25t23.5 70v47h84v-51q0 -37 -10.5 -69t-32.5 -56t-56.5 -37.5t-81.5 -13.5t-81 15t-55.5 40.5t-32 58.5t-10.5 70v328q0 37 10.5 70t32 58.5t55.5 40.5t81 15t81.5 -13.5t56.5 -37.5t32.5 -56t10.5 -69v-51h-84v47
q0 45 -23.5 70t-70.5 25q-48 0 -71 -25.5t-23 -65.5v-132h210z" />
    <glyph glyph-name="yen" unicode="&#xa5;" horiz-adv-x="433" 
d="M259 212h133v-80h-133v-132h-89v132h-135v80h135v67h-135v78h107l-122 309h98l99 -284l99 284h97l-124 -309h103v-78h-133v-67z" />
    <glyph glyph-name="brokenbar" unicode="&#xa6;" 
d="M25 800h450v-1000h-450v1000z" />
    <glyph glyph-name="section" unicode="&#xa7;" horiz-adv-x="433" 
d="M322 222q0 17 -6.5 32.5t-24 32.5t-46.5 36t-74 42q-20 -9 -32.5 -29t-12.5 -41q0 -16 4.5 -30.5t20 -30t45.5 -34.5t81 -46q19 8 32 26.5t13 41.5zM403 241q0 -86 -70 -130q29 -26 46 -54t17 -68q0 -30 -11.5 -57.5t-34 -48t-55.5 -33t-76 -12.5q-89 0 -137.5 42
t-48.5 116v28h86v-33q0 -35 25.5 -55t68.5 -20q49 0 71.5 17t22.5 50q0 27 -20 48t-49.5 40.5t-64 39t-64 42.5t-49.5 52.5t-20 67.5q0 41 21 73.5t52 55.5q-28 24 -45.5 54t-17.5 69q0 30 10 58.5t31 50t52.5 34.5t74.5 13q47 0 80 -13t53.5 -35.5t30 -52t9.5 -61.5v-23
h-85v30q0 13 -3.5 26.5t-13.5 24t-27.5 17.5t-44.5 7q-44 0 -60 -20.5t-16 -49.5q0 -26 19.5 -47t48.5 -40.5t63 -39t63 -43t48.5 -52.5t19.5 -68z" />
    <glyph glyph-name="dieresis" unicode="&#xa8;" horiz-adv-x="231" 
d="M13 566v90h75v-90h-75zM143 566v90h75v-90h-75z" />
    <glyph glyph-name="copyright" unicode="&#xa9;" horiz-adv-x="680" 
d="M448 268q0 -41 -27.5 -66.5t-75.5 -25.5t-78 26.5t-30 67.5v112q0 41 30 67.5t78 26.5t75.5 -25t27.5 -67v-19h-49v18q0 21 -13.5 35.5t-39.5 14.5q-27 0 -40 -15t-13 -37v-110q0 -21 13 -36.5t40 -15.5q26 0 39.5 14.5t13.5 35.5v19h49v-20zM608 326q0 57 -19.5 107
t-55 87t-84.5 58.5t-109 21.5q-59 0 -108.5 -21.5t-85 -58.5t-55 -87t-19.5 -107t19.5 -106.5t55 -87t85 -59t108.5 -21.5q60 0 109 21.5t84.5 59t55 87t19.5 106.5zM658 326q0 -66 -24 -124t-66.5 -101.5t-101 -68.5t-126.5 -25t-126.5 25t-101 68.5t-66.5 101.5t-24 124
t24 124.5t66.5 102t101 68.5t126.5 25t126.5 -25t101 -68.5t66.5 -102t24 -124.5z" />
    <glyph glyph-name="ordfeminine" unicode="&#xaa;" horiz-adv-x="314" 
d="M202 487q-55 -7 -81.5 -23.5t-26.5 -47.5v-7q0 -18 10.5 -30.5t32.5 -12.5q24 0 44.5 15t20.5 39v67zM267 312q-20 0 -34.5 10t-14.5 36q-17 -21 -41 -33.5t-53 -12.5q-43 0 -68 25t-25 68v7q0 32 14.5 52.5t38.5 34t54.5 20.5t63.5 11v49q0 45 -47 45q-29 0 -37.5 -12
t-8.5 -37v-15h-64v18q0 43 26.5 72.5t83.5 29.5q31 0 52 -8.5t34 -24t19 -36.5t6 -46v-183q0 -10 4.5 -14.5t23.5 -4.5v-51h-27z" />
    <glyph glyph-name="guillemotleft" unicode="&#xab;" horiz-adv-x="411" 
d="M159 0q-12 55 -48.5 99t-87.5 60v69q51 16 87.5 60t48.5 99h49q0 -29 -7.5 -57.5t-21 -54t-33 -46.5t-43.5 -36q24 -15 43.5 -36t33 -46t21 -53.5t7.5 -57.5h-49zM330 0q-12 55 -48.5 99t-87.5 60v69q51 16 87.5 60t48.5 99h49q0 -29 -7.5 -57.5t-21 -54t-33 -46.5
t-43.5 -36q24 -15 43.5 -36t33 -46t21 -53.5t7.5 -57.5h-49z" />
    <glyph glyph-name="logicalnot" unicode="&#xac;" horiz-adv-x="380" 
d="M278 196l-89 89l-88 -89l-52 52l88 89l-88 89l53 52l89 -89l88 89l52 -52l-89 -88l89 -89z" />
    <glyph glyph-name="registered" unicode="&#xae;" horiz-adv-x="680" 
d="M392 392q0 14 -7.5 24.5t-27.5 10.5h-56v-84h51q40 0 40 40v9zM450 183q-32 0 -44 10t-12 37v33q0 19 -9 30.5t-29 11.5h-55v-119h-55v284h116q48 0 66.5 -21.5t18.5 -57.5v-5q0 -26 -10.5 -41.5t-37.5 -20.5q26 -2 38 -20.5t12 -39.5v-29q0 -13 16 -13v-39h-15zM608 326
q0 57 -19.5 107t-55 87t-84.5 58.5t-109 21.5q-59 0 -108.5 -21.5t-85 -58.5t-55 -87t-19.5 -107t19.5 -106.5t55 -87t85 -59t108.5 -21.5q60 0 109 21.5t84.5 59t55 87t19.5 106.5zM658 326q0 -66 -24 -124t-66.5 -101.5t-101 -68.5t-126.5 -25t-126.5 25t-101 68.5
t-66.5 101.5t-24 124t24 124.5t66.5 102t101 68.5t126.5 25t126.5 -25t101 -68.5t66.5 -102t24 -124.5z" />
    <glyph glyph-name="macron" unicode="&#xaf;" horiz-adv-x="251" 
d="M11 572v60h229v-60h-229z" />
    <glyph glyph-name="macron" unicode="&#x2c9;" horiz-adv-x="251" 
d="M11 572v60h229v-60h-229z" />
    <glyph glyph-name="degree" unicode="&#xb0;" horiz-adv-x="283" 
d="M202 561q0 29 -15.5 47.5t-44.5 18.5t-44.5 -18.5t-15.5 -47.5t15.5 -47.5t44.5 -18.5t44.5 18.5t15.5 47.0D0E0DCA98" />
    <glyph glyph-name="plusminus" unicode="&#xb1;" horiz-adv-x="507" 
d="M432 431h-357v-382h357v382zM24 0v480h459v-480h-459z" />
    <glyph glyph-name="twosuperior" unicode="&#xb2;" 
d="M25 800h450v-1000h-450v1000z" />
    <glyph glyph-name="threesuperior" unicode="&#xb3;" 
d="M25 800h450v-1000h-450v1000z" />
    <glyph glyph-name="acute" unicode="&#xb4;" horiz-adv-x="178" 
d="M97 538h-55l42 135h89z" />
    <glyph glyph-name="mu" unicode="&#xb5;" 
d="M25 800h450v-1000h-450v1000z" />
    <glyph glyph-name="mu" unicode="&#x3bc;" 
d="M25 800h450v-1000h-450v1000z" />
    <glyph glyph-name="paragraph" unicode="&#xb6;" horiz-adv-x="548" 
d="M290 591h-19q-35 0 -56 -23.5t-21 -66.5v-144q0 -42 21 -63t56 -21h19v318zM426 -156v747h-67v-747h-69v347h-39q-45 0 -83.5 16.5t-67 46.5t-44.5 72t-16 94v16q0 52 16 94.5t44.5 72.5t67 46.5t83.5 16.5h243v-822h-68z" />
    <glyph glyph-name="periodcentered" unicode="&#xb7;" horiz-adv-x="159" 
d="M39 276v113h82v-113h-82z" />
    <glyph glyph-name="periodcentered" unicode="&#x2219;" horiz-adv-x="159" 
d="M39 276v113h82v-113h-82z" />
    <glyph glyph-name="cedilla" unicode="&#xb8;" horiz-adv-x="191" 
d="M192 -148q0 -35 -24.5 -59t-63.5 -24q-13 0 -23 3t-14 6v32h21q40 0 40 34v24q0 37 -40 37q-25 0 -47 -26l-31 22l85 119l32 -23l-49 -66q6 4 16.5 5t18.5 1q39 0 59 -24t20 -61z" />
    <glyph glyph-name="onesuperior" unicode="&#xb9;" 
d="M25 800h450v-1000h-450v1000z" />
    <glyph glyph-name="ordmasculine" unicode="&#xba;" horiz-adv-x="293" 
d="M199 575q0 23 -14.5 38t-37.5 15q-24 0 -38.5 -15t-14.5 -38v-158q0 -23 14.5 -37.5t38.5 -14.5q23 0 37.5 14.5t14.5 37.5v158zM266 431q0 -56 -34 -87.5t-85 -31.5t-85 31.5t-34 87.5v130q0 56 34 87.5t85 31.5t85 -31.5t34 -87.5v-130z" />
    <glyph glyph-name="guillemotright" unicode="&#xbb;" horiz-adv-x="411" 
d="M217 159q-51 -16 -87.5 -60t-48.5 -99h-48q0 59 27.5 111.5t77.5 81.5q-25 15 -44.5 36t-33 46.5t-20.5 54t-7 57.5h48q12 -55 48.5 -99t87.5 -60v-69zM388 159q-51 -16 -87.5 -60t-48.5 -99h-48q0 59 27.5 111.5t77.5 81.5q-25 15 -44.5 36t-33 46.5t-20.5 54t-7 57.5
h48q12 -55 48.5 -99t87.5 -60v-69z" />
    <glyph glyph-name="onequarter" unicode="&#xbc;" 
d="M25 800h450v-1000h-450v1000z" />
    <glyph glyph-name="onehalf" unicode="&#xbd;" 
d="M25 800h450v-1000h-450v1000z" />
    <glyph glyph-name="threequarters" unicode="&#xbe;" 
d="M25 800h450v-1000h-450v1000z" />
    <glyph glyph-name="questiondown" unicode="&#xbf;" horiz-adv-x="330" 
d="M-15 -47q0 57 25.5 104.5t75.5 95.5q16 15 26 28t16 26.5t8 28t2 32.5h67q0 -30 -5 -52t-15.5 -43t-28 -45t-43.5 -58q-20 -27 -29.5 -57t-9.5 -58q0 -49 19 -69.5t58 -20.5q40 0 59 25t19 70v62h80v-71q0 -35 -9 -64.5t-28 -51.5t-48 -34.5t-70 -12.5q-46 0 -78 13.5
t-52.5 36t-29.5 52.5t-9 63zM215 468v-111h-82v111h82z" />
    <glyph glyph-name="Agrave" unicode="&#xc0;" horiz-adv-x="417" 
d="M177 704l-77 135h90l41 -135h-54zM206 517l-55 -273h110zM313 0l-35 163h-144l-35 -163h-92l151 666h100l151 -666h-96z" />
    <glyph glyph-name="Aacute" unicode="&#xc1;" horiz-adv-x="417" 
d="M232 704h-55l42 135h89zM206 517l-55 -273h110zM313 0l-35 163h-144l-35 -163h-92l151 666h100l151 -666h-96z" />
    <glyph glyph-name="Acircumflex" unicode="&#xc2;" horiz-adv-x="417" 
d="M332 714q-10 -3 -22 -5t-22 -2q-31 0 -53 21t-31 57q-8 -36 -30.5 -57t-54.5 -21q-10 0 -19 2t-20 5v25q65 0 90 92h73q25 -92 89 -92v-25zM206 517l-55 -273h110zM313 0l-35 163h-144l-35 -163h-92l151 666h100l151 -666h-96z" />
    <glyph glyph-name="Atilde" unicode="&#xc3;" horiz-adv-x="417" 
d="M330 793q0 -34 -16.5 -54t-51.5 -20q-18 0 -35.5 8.5t-34 18t-30.5 18t-23 8.5q-11 0 -14.5 -5.5t-3.5 -15.5v-33h-38q-6 9 -9.5 18.5t-3.5 21.5q0 34 16.5 54t51.5 20q18 0 36 -8.5t34.5 -18t30 -18t22.5 -8.5q11 0 15 5.5t4 16.5v33h37q13 -17 13 -41zM206 517
l-55 -273h110zM313 0l-35 163h-144l-35 -163h-92l151 666h100l151 -666h-96z" />
    <glyph glyph-name="Adieresis" unicode="&#xc4;" horiz-adv-x="417" 
d="M97 732v90h75v-90h-75zM227 732v90h75v-90h-75zM206 517l-55 -273h110zM313 0l-35 163h-144l-35 -163h-92l151 666h100l151 -666h-96z" />
    <glyph glyph-name="Aring" unicode="&#xc5;" horiz-adv-x="417" 
d="M206 517l-55 -273h110zM248 740q0 20 -10.5 32.5t-29.5 12.5t-29.5 -12.5t-10.5 -32.5t10.5 -32.5t29.5 -12.5t29.5 12.5t10.5 32.5zM175 666q-22 9 -35.5 29.5t-13.5 44.5q0 32 23 56.5t59 24.5t58.5 -24.5t22.5 -56.5q0 -24 -13 -44.5t-36 -29.5h18l151 -666h-96
l-35 163h-144l-35 -163h-92l151 666h17z" />
    <glyph glyph-name="AE" unicode="&#xc6;" horiz-adv-x="633" 
d="M295 544l-101 -299h101v299zM295 0v163h-132l-61 -163h-97l253 666h347v-86h-216v-190h156v-82h-156v-222h216v-86h-310z" />
    <glyph glyph-name="Ccedilla" unicode="&#xc7;" horiz-adv-x="444" 
d="M193 -12q-37 6 -65 23t-46.5 41.5t-27.5 54.5t-9 63v326q0 37 11.5 70t34.5 58.5t58 40.5t82 15t81.5 -13.5t56.5 -37.5t32.5 -56t10.5 -68v-72h-85v70q0 42 -23 67.5t-70 25.5q-48 0 -71 -25.5t-23 -63.5v-348q0 -38 23 -63.5t71 -25.5q47 0 70 25t23 68v70h85v-72
q0 -36 -10 -67.5t-31.5 -55t-54.5 -38t-78 -15.5l-40 -55q7 5 17 6t19 1q39 0 59 -24t20 -61q0 -35 -24.5 -59t-63.5 -24q-13 0 -23 3t-14 6v32h20q19 0 30 8.5t11 25.5v24q0 37 -41 37q-25 0 -47 -26l-30 22z" />
    <glyph glyph-name="Egrave" unicode="&#xc8;" horiz-adv-x="393" 
d="M188 704l-77 135h90l41 -135h-54zM54 0v666h310v-86h-216v-190h156v-82h-156v-222h216v-86h-310z" />
    <glyph glyph-name="Eacute" unicode="&#xc9;" horiz-adv-x="393" 
d="M224 704h-55l42 135h89zM54 0v666h310v-86h-216v-190h156v-82h-156v-222h216v-86h-310z" />
    <glyph glyph-name="Ecircumflex" unicode="&#xca;" horiz-adv-x="393" 
d="M330 714q-10 -3 -22 -5t-22 -2q-31 0 -53 21t-31 57q-8 -36 -30.5 -57t-54.5 -21q-10 0 -19 2t-20 5v25q65 0 90 92h73q25 -92 89 -92v-25zM54 0v666h310v-86h-216v-190h156v-82h-156v-222h216v-86h-310z" />
    <glyph glyph-name="Edieresis" unicode="&#xcb;" horiz-adv-x="393" 
d="M101 732v90h75v-90h-75zM231 732v90h75v-90h-75zM54 0v666h310v-86h-216v-190h156v-82h-156v-222h216v-86h-310z" />
    <glyph glyph-name="Igrave" unicode="&#xcc;" horiz-adv-x="202" 
d="M73 704l-77 135h90l41 -135h-54zM54 0v666h95v-666h-95z" />
    <glyph glyph-name="Iacute" unicode="&#xcd;" horiz-adv-x="202" 
d="M123 704h-55l42 135h89zM54 0v666h95v-666h-95z" />
    <glyph glyph-name="Icircumflex" unicode="&#xce;" horiz-adv-x="202" 
d="M227 714q-10 -3 -22 -5t-22 -2q-31 0 -53 21t-31 57q-8 -36 -30.5 -57t-54.5 -21q-10 0 -19 2t-20 5v25q65 0 90 92h73q25 -92 89 -92v-25zM54 0v666h95v-666h-95z" />
    <glyph glyph-name="Idieresis" unicode="&#xcf;" horiz-adv-x="202" 
d="M-3 732v90h75v-90h-75zM127 732v90h75v-90h-75zM54 0v666h95v-666h-95z" />
    <glyph glyph-name="Eth" unicode="&#xd0;" horiz-adv-x="508" 
d="M279 372v-79h-88v-207h87q48 0 69.5 25.5t21.5 72.5v297q0 48 -21.5 73t-69.5 25h-87v-207h88zM6 293v79h91v294h187q46 0 80 -13.5t56 -37.5t32.5 -57t10.5 -72v-306q0 -39 -10.5 -72t-32.5 -57t-56 -37.5t-80 -13.5h-187v293h-91z" />
    <glyph glyph-name="Ntilde" unicode="&#xd1;" horiz-adv-x="484" 
d="M365 793q0 -34 -16.5 -54t-51.5 -20q-18 0 -35.5 8.5t-34 18t-30.5 18t-23 8.5q-11 0 -14.5 -5.5t-3.5 -15.5v-33h-38q-6 9 -9.5 18.5t-3.5 21.5q0 34 16.5 54t51.5 20q18 0 36 -8.5t34.5 -18t30 -18t22.5 -8.5q11 0 15 5.5t4 16.5v33h37q13 -17 13 -41zM364 0l-165 324
l-56 117v-441h-90v666h77l158 -330l53 -117v447h90v-666h-67z" />
    <glyph glyph-name="Ograve" unicode="&#xd2;" horiz-adv-x="462" 
d="M202 704l-77 135h90l41 -135h-54zM323 498q0 43 -22.5 70.5t-69.5 27.5t-69 -27.5t-22 -70.5v-330q0 -43 22 -70.5t69 -27.5t69.5 27.5t22.5 70.5v330zM417 176q0 -41 -11.5 -76t-34.5 -60.5t-58 -40t-82 -14.5t-82 14.5t-58 40t-34.5 60.5t-11.5 76v314q0 41 11.5 75.5
t34.5 60t58 40t82 14.5t82 -14.5t58 -40t34.5 -60t11.5 -75.5v-314z" />
    <glyph glyph-name="Oacute" unicode="&#xd3;" horiz-adv-x="462" 
d="M256 704h-55l42 135h89zM323 498q0 43 -22.5 70.5t-69.5 27.5t-69 -27.5t-22 -70.5v-330q0 -43 22 -70.5t69 -27.5t69.5 27.5t22.5 70.5v330zM417 176q0 -41 -11.5 -76t-34.5 -60.5t-58 -40t-82 -14.5t-82 14.5t-58 40t-34.5 60.5t-11.5 76v314q0 41 11.5 75.5t34.5 60
t58 40t82 14.5t82 -14.5t58 -40t34.5 -60t11.5 -75.5v-314z" />
    <glyph glyph-name="Ocircumflex" unicode="&#xd4;" horiz-adv-x="462" 
d="M358 714q-10 -3 -22 -5t-22 -2q-31 0 -53 21t-31 57q-8 -36 -30.5 -57t-54.5 -21q-10 0 -19 2t-20 5v25q65 0 90 92h73q25 -92 89 -92v-25zM323 498q0 43 -22.5 70.5t-69.5 27.5t-69 -27.5t-22 -70.5v-330q0 -43 22 -70.5t69 -27.5t69.5 27.5t22.5 70.5v330zM417 176
q0 -41 -11.5 -76t-34.5 -60.5t-58 -40t-82 -14.5t-82 14.5t-58 40t-34.5 60.5t-11.5 76v314q0 41 11.5 75.5t34.5 60t58 40t82 14.5t82 -14.5t58 -40t34.5 -60t11.5 -75.5v-314z" />
    <glyph glyph-name="Otilde" unicode="&#xd5;" horiz-adv-x="462" 
d="M353 793q0 -34 -16.5 -54t-51.5 -20q-18 0 -35.5 8.5t-34 18t-30.5 18t-23 8.5q-11 0 -14.5 -5.5t-3.5 -15.5v-33h-38q-6 9 -9.5 18.5t-3.5 21.5q0 34 16.5 54t51.5 20q18 0 36 -8.5t34.5 -18t30 -18t22.5 -8.5q11 0 15 5.5t4 16.5v33h37q13 -17 13 -41zM323 498
q0 43 -22.5 70.5t-69.5 27.5t-69 -27.5t-22 -70.5v-330q0 -43 22 -70.5t69 -27.5t69.5 27.5t22.5 70.5v330zM417 176q0 -41 -11.5 -76t-34.5 -60.5t-58 -40t-82 -14.5t-82 14.5t-58 40t-34.5 60.5t-11.5 76v314q0 41 11.5 75.5t34.5 60t58 40t82 14.5t82 -14.5t58 -40
t34.5 -60t11.5 -75.5v-314z" />
    <glyph glyph-name="Odieresis" unicode="&#xd6;" horiz-adv-x="462" 
d="M130 732v90h75v-90h-75zM260 732v90h75v-90h-75zM323 498q0 43 -22.5 70.5t-69.5 27.5t-69 -27.5t-22 -70.5v-330q0 -43 22 -70.5t69 -27.5t69.5 27.5t22.5 70.5v330zM417 176q0 -41 -11.5 -76t-34.5 -60.5t-58 -40t-82 -14.5t-82 14.5t-58 40t-34.5 60.5t-11.5 76v314
q0 41 11.5 75.5t34.5 60t58 40t82 14.5t82 -14.5t58 -40t34.5 -60t11.5 -75.5v-314z" />
    <glyph glyph-name="multiply" unicode="&#xd7;" 
d="M25 800h450v-1000h-450v1000z" />
    <glyph glyph-name="Oslash" unicode="&#xd8;" horiz-adv-x="462" 
d="M323 451l-7 -14l-19 -38t-27.5 -54.5t-31.5 -62.5q-38 -75 -86 -169q11 -20 30.5 -31.5t48.5 -11.5q47 0 69.5 27.5t22.5 70.5v283zM311 553q-11 20 -31 31.5t-49 11.5q-47 0 -69 -27.5t-22 -70.5v-282zM430 663q-4 -10 -10 -21q-5 -10 -11.5 -22.5t-14.5 -27.5
q23 -42 23 -102v-314q0 -41 -11.5 -76t-34.5 -60.5t-58 -40t-82 -14.5q-40 0 -70.5 10.5t-53.5 28.5q0 1 -4 -7l-9 -18q-6 -11 -13 -26l-49 30q10 19 18 35l12.5 25t5.5 10q-12 23 -17.5 48.5t-5.5 54.5v314q0 41 11.5 75.5t34.5 60t58 40t82 14.5q40 0 70.5 -10.5
t53.5 -29.5l27 53z" />
    <glyph glyph-name="Ugrave" unicode="&#xd9;" horiz-adv-x="475" 
d="M219 704l-77 135h90l41 -135h-54zM423 159q0 -41 -13.5 -73.5t-38.5 -55t-59 -34t-75 -11.5q-40 0 -74 11.5t-59 34t-38.5 55t-13.5 73.5v507h95v-507q0 -91 91 -91t91 91v507h94v-507z" />
    <glyph glyph-name="Uacute" unicode="&#xda;" horiz-adv-x="475" 
d="M263 704h-55l42 135h89zM423 159q0 -41 -13.5 -73.5t-38.5 -55t-59 -34t-75 -11.5q-40 0 -74 11.5t-59 34t-38.5 55t-13.5 73.5v507h95v-507q0 -91 91 -91t91 91v507h94v-507z" />
    <glyph glyph-name="Ucircumflex" unicode="&#xdb;" horiz-adv-x="475" 
d="M370 714q-10 -3 -22 -5t-22 -2q-31 0 -53 21t-31 57q-8 -36 -30.5 -57t-54.5 -21q-10 0 -19 2t-20 5v25q65 0 90 92h73q25 -92 89 -92v-25zM423 159q0 -41 -13.5 -73.5t-38.5 -55t-59 -34t-75 -11.5q-40 0 -74 11.5t-59 34t-38.5 55t-13.5 73.5v507h95v-507q0 -91 91 -91
t91 91v507h94v-507z" />
    <glyph glyph-name="Udieresis" unicode="&#xdc;" horiz-adv-x="475" 
d="M139 732v90h75v-90h-75zM269 732v90h75v-90h-75zM423 159q0 -41 -13.5 -73.5t-38.5 -55t-59 -34t-75 -11.5q-40 0 -74 11.5t-59 34t-38.5 55t-13.5 73.5v507h95v-507q0 -91 91 -91t91 91v507h94v-507z" />
    <glyph glyph-name="Yacute" unicode="&#xdd;" horiz-adv-x="407" 
d="M237 704h-55l42 135h89zM252 268v-268h-94v268l-161 398h102l109 -307l109 307h95z" />
    <glyph glyph-name="Thorn" unicode="&#xde;" horiz-adv-x="430" 
d="M308 398q0 33 -13 51.5t-47 18.5h-99v-236h99q34 0 47 18t13 51v97zM403 304q0 -72 -37.5 -112.5t-118.5 -40.5h-98v-151h-95v666h95v-116h98q81 0 118.5 -41t37.5 -113v-92z" />
    <glyph glyph-name="germandbls" unicode="&#xdf;" horiz-adv-x="385" 
d="M344 116q0 -60 -33.5 -92t-87.5 -32q-11 0 -22 3t-18 8v35q43 0 60.5 17.5t17.5 48.5v166q0 28 -18 41t-57 13v56q38 0 54.5 15.5t16.5 43.5v86q0 68 -60 68t-60 -71v-522h-85v509q0 69 35.5 113t105.5 44q75 0 111.5 -40t36.5 -106v-57q0 -35 -14.5 -64t-42.5 -42
q34 -14 47 -39.5t13 -65.5v-136z" />
    <glyph glyph-name="agrave" unicode="&#xe0;" horiz-adv-x="372" 
d="M153 538l-77 135h90l41 -135h-54zM240 221q-131 -16 -131 -93v-12q0 -23 13 -39t39 -16q30 0 54.5 19.5t24.5 51.5v89zM322 -8q-25 0 -43 13t-19 45q-20 -27 -49.5 -42.5t-64.5 -15.5q-54 0 -85 32t-31 89v11q0 40 18 67t47.5 44.5t67 28t77.5 16.5v65q0 27 -14 42.5
t-43 15.5q-35 0 -46 -15t-11 -47v-24h-79v27q0 27 8 51t25 42t42.5 28.5t60.5 10.5q38 0 64 -11t42.5 -31t23.5 -46.5t7 -58.5v-248q0 -26 27 -26v-63h-25z" />
    <glyph glyph-name="aacute" unicode="&#xe1;" horiz-adv-x="372" 
d="M206 538h-55l42 135h89zM240 221q-131 -16 -131 -93v-12q0 -23 13 -39t39 -16q30 0 54.5 19.5t24.5 51.5v89zM322 -8q-25 0 -43 13t-19 45q-20 -27 -49.5 -42.5t-64.5 -15.5q-54 0 -85 32t-31 89v11q0 40 18 67t47.5 44.5t67 28t77.5 16.5v65q0 27 -14 42.5t-43 15.5
q-35 0 -46 -15t-11 -47v-24h-79v27q0 27 8 51t25 42t42.5 28.5t60.5 10.5q38 0 64 -11t42.5 -31t23.5 -46.5t7 -58.5v-248q0 -26 27 -26v-63h-25z" />
    <glyph glyph-name="acircumflex" unicode="&#xe2;" horiz-adv-x="372" 
d="M312 548q-10 -3 -22 -5t-22 -2q-31 0 -53 21t-31 57q-8 -36 -30.5 -57t-54.5 -21q-10 0 -19 2t-20 5v25q65 0 90 92h73q25 -92 89 -92v-25zM240 221q-131 -16 -131 -93v-12q0 -23 13 -39t39 -16q30 0 54.5 19.5t24.5 51.5v89zM322 -8q-25 0 -43 13t-19 45
q-20 -27 -49.5 -42.5t-64.5 -15.5q-54 0 -85 32t-31 89v11q0 40 18 67t47.5 44.5t67 28t77.5 16.5v65q0 27 -14 42.5t-43 15.5q-35 0 -46 -15t-11 -47v-24h-79v27q0 27 8 51t25 42t42.5 28.5t60.5 10.5q38 0 64 -11t42.5 -31t23.5 -46.5t7 -58.5v-248q0 -26 27 -26v-63h-25z
" />
    <glyph glyph-name="atilde" unicode="&#xe3;" horiz-adv-x="372" 
d="M308 627q0 -34 -16.5 -54t-51.5 -20q-18 0 -35.5 8.5t-34 18t-30.5 18t-23 8.5q-11 0 -14.5 -5.5t-3.5 -15.5v-33h-38q-6 9 -9.5 18.5t-3.5 21.5q0 34 16.5 54t51.5 20q18 0 36 -8.5t34.5 -18t30 -18t22.5 -8.5q11 0 15 5.5t4 16.5v33h37q13 -17 13 -41zM240 221
q-131 -16 -131 -93v-12q0 -23 13 -39t39 -16q30 0 54.5 19.5t24.5 51.5v89zM322 -8q-25 0 -43 13t-19 45q-20 -27 -49.5 -42.5t-64.5 -15.5q-54 0 -85 32t-31 89v11q0 40 18 67t47.5 44.5t67 28t77.5 16.5v65q0 27 -14 42.5t-43 15.5q-35 0 -46 -15t-11 -47v-24h-79v27
q0 27 8 51t25 42t42.5 28.5t60.5 10.5q38 0 64 -11t42.5 -31t23.5 -46.5t7 -58.5v-248q0 -26 27 -26v-63h-25z" />
    <glyph glyph-name="adieresis" unicode="&#xe4;" horiz-adv-x="372" 
d="M76 566v90h75v-90h-75zM206 566v90h75v-90h-75zM240 221q-131 -16 -131 -93v-12q0 -23 13 -39t39 -16q30 0 54.5 19.5t24.5 51.5v89zM322 -8q-25 0 -43 13t-19 45q-20 -27 -49.5 -42.5t-64.5 -15.5q-54 0 -85 32t-31 89v11q0 40 18 67t47.5 44.5t67 28t77.5 16.5v65
q0 27 -14 42.5t-43 15.5q-35 0 -46 -15t-11 -47v-24h-79v27q0 27 8 51t25 42t42.5 28.5t60.5 10.5q38 0 64 -11t42.5 -31t23.5 -46.5t7 -58.5v-248q0 -26 27 -26v-63h-25z" />
    <glyph glyph-name="aring" unicode="&#xe5;" horiz-adv-x="372" 
d="M223 619q0 21 -10.5 33t-30.5 12q-19 0 -29.5 -12t-10.5 -33q0 -20 10.5 -32.5t29.5 -12.5q20 0 30.5 12.5t10.5 32.5zM263 619q0 -32 -22.5 -56.5t-58.5 -24.5q-35 0 -58 24.5t-23 56.5t23 56.5t58 24.5q36 0 58.5 -24.5t22.5 -56.5zM240 221q-131 -16 -131 -93v-12
q0 -23 13 -39t39 -16q30 0 54.5 19.5t24.5 51.5v89zM322 -8q-25 0 -43 13t-19 45q-20 -27 -49.5 -42.5t-64.5 -15.5q-54 0 -85 32t-31 89v11q0 40 18 67t47.5 44.5t67 28t77.5 16.5v65q0 27 -14 42.5t-43 15.5q-35 0 -46 -15t-11 -47v-24h-79v27q0 27 8 51t25 42t42.5 28.5
t60.5 10.5q38 0 64 -11t42.5 -31t23.5 -46.5t7 -58.5v-248q0 -26 27 -26v-63h-25z" />
    <glyph glyph-name="ae" unicode="&#xe6;" horiz-adv-x="559" 
d="M242 221q-131 -16 -131 -93v-12q0 -23 12.5 -39t39.5 -16q30 0 54.5 19.5t24.5 51.5v89zM450 333q0 32 -16 51.5t-48 19.5t-48.5 -19.5t-16.5 -51.5v-56h129v56zM524 145q0 -36 -10 -64t-27.5 -48t-41 -30.5t-50.5 -10.5q-39 0 -71 13.5t-52 50.5q-23 -32 -55 -48
t-68 -16q-54 0 -86 31.5t-32 89.5v11q0 40 18 67t47.5 44.5t67.5 28t78 16.5v59q0 28 -13 46t-46 18q-32 0 -46.5 -15t-14.5 -47v-24h-73v27q0 27 8.5 51t24.5 42t39.5 28.5t53.5 10.5q41 0 67 -16.5t40 -44.5q17 29 46 45t67 16q58 0 93.5 -42.5t35.5 -114.5v-90h-203v-95
q0 -32 16.5 -51.5t48.5 -19.5t48 19.5t16 51.5v32h74v-21z" />
    <glyph glyph-name="ccedilla" unicode="&#xe7;" horiz-adv-x="357" 
d="M145 -4q-49 11 -77 50.5t-28 100.5v172q0 72 39 114.5t107 42.5q69 0 104 -41t35 -113v-20h-74v33q0 30 -16 49.5t-48 19.5t-48.5 -19.5t-16.5 -54.5v-193q0 -73 65 -73q32 0 48 18.5t16 50.5v32h74v-20q0 -71 -34.5 -111t-101.5 -42l-45 -62q7 5 17 6t18 1
q39 0 59.5 -24t20.5 -61q0 -35 -24.5 -59t-63.5 -24q-14 0 -23.5 3t-13.5 6v32h20q19 0 30 8.5t11 25.5v24q0 37 -41 37q-25 0 -47 -26l-31 22z" />
    <glyph glyph-name="egrave" unicode="&#xe8;" horiz-adv-x="359" 
d="M157 538l-77 135h90l41 -135h-54zM251 333q0 32 -16 51.5t-48 19.5t-48.5 -19.5t-16.5 -51.5v-56h129v56zM325 145q0 -72 -35.5 -112.5t-103.5 -40.5t-107 41.5t-39 113.5v172q0 72 39 114.5t107 42.5t103.5 -42.5t35.5 -114.5v-90h-203v-95q0 -32 16.5 -51.5t48.5 -19.5
t48 19.5t16 51.5v32h74v-21z" />
    <glyph glyph-name="eacute" unicode="&#xe9;" horiz-adv-x="359" 
d="M213 538h-55l42 135h89zM251 333q0 32 -16 51.5t-48 19.5t-48.5 -19.5t-16.5 -51.5v-56h129v56zM325 145q0 -72 -35.5 -112.5t-103.5 -40.5t-107 41.5t-39 113.5v172q0 72 39 114.5t107 42.5t103.5 -42.5t35.5 -114.5v-90h-203v-95q0 -32 16.5 -51.5t48.5 -19.5t48 19.5
t16 51.5v32h74v-21z" />
    <glyph glyph-name="ecircumflex" unicode="&#xea;" horiz-adv-x="359" 
d="M305 548q-10 -3 -22 -5t-22 -2q-31 0 -53 21t-31 57q-8 -36 -30.5 -57t-54.5 -21q-10 0 -19 2t-20 5v25q65 0 90 92h73q25 -92 89 -92v-25zM251 333q0 32 -16 51.5t-48 19.5t-48.5 -19.5t-16.5 -51.5v-56h129v56zM325 145q0 -72 -35.5 -112.5t-103.5 -40.5t-107 41.5
t-39 113.5v172q0 72 39 114.5t107 42.5t103.5 -42.5t35.5 -114.5v-90h-203v-95q0 -32 16.5 -51.5t48.5 -19.5t48 19.5t16 51.5v32h74v-21z" />
    <glyph glyph-name="edieresis" unicode="&#xeb;" horiz-adv-x="359" 
d="M79 566v90h75v-90h-75zM209 566v90h75v-90h-75zM251 333q0 32 -16 51.5t-48 19.5t-48.5 -19.5t-16.5 -51.5v-56h129v56zM325 145q0 -72 -35.5 -112.5t-103.5 -40.5t-107 41.5t-39 113.5v172q0 72 39 114.5t107 42.5t103.5 -42.5t35.5 -114.5v-90h-203v-95
q0 -32 16.5 -51.5t48.5 -19.5t48 19.5t16 51.5v32h74v-21z" />
    <glyph glyph-name="igrave" unicode="&#xec;" horiz-adv-x="180" 
d="M59 538l-77 135h90l41 -135h-54zM48 0v468h84v-468h-84z" />
    <glyph glyph-name="iacute" unicode="&#xed;" horiz-adv-x="180" 
d="M117 538h-55l42 135h89zM48 0v468h84v-468h-84z" />
    <glyph glyph-name="icircumflex" unicode="&#xee;" horiz-adv-x="180" 
d="M218 548q-10 -3 -22 -5t-22 -2q-31 0 -53 21t-31 57q-8 -36 -30.5 -57t-54.5 -21q-10 0 -19 2t-20 5v25q65 0 90 92h73q25 -92 89 -92v-25zM48 0v468h84v-468h-84z" />
    <glyph glyph-name="idieresis" unicode="&#xef;" horiz-adv-x="180" 
d="M-15 566v90h75v-90h-75zM115 566v90h75v-90h-75zM48 0v468h84v-468h-84z" />
    <glyph glyph-name="eth" unicode="&#xf0;" horiz-adv-x="376" 
d="M122 130q0 -29 18 -47t47 -18t47.5 18t18.5 47v194q0 36 -17 56.5t-49 20.5q-31 0 -48 -18t-17 -61v-192zM306 646l19 -46l-38 -20q49 -75 49 -182v-253q0 -36 -11.5 -64t-31.5 -48t-47 -30.5t-59 -10.5q-31 0 -58 10.5t-47 30.5t-31 48t-11 64v196q0 28 8.5 52t24 41
t36.5 27t46 10q33 0 56.5 -12.5t42.5 -40.5q0 71 -34 128l-58 -29l-18 46l46 24q-18 21 -39.5 40t-45.5 36v3h99q30 -21 52 -46z" />
    <glyph glyph-name="ntilde" unicode="&#xf1;" horiz-adv-x="394" 
d="M317 627q0 -34 -16.5 -54t-51.5 -20q-18 0 -35.5 8.5t-34 18t-30.5 18t-23 8.5q-11 0 -14.5 -5.5t-3.5 -15.5v-33h-38q-6 9 -9.5 18.5t-3.5 21.5q0 34 16.5 54t51.5 20q18 0 36 -8.5t34.5 -18t30 -18t22.5 -8.5q11 0 15 5.5t4 16.5v33h37q13 -17 13 -41zM263 0v342
q0 30 -15 47.5t-41 17.5q-18 0 -32 -11.5t-23.5 -27t-14.5 -33t-5 -29.5v-306h-84v468h70l6 -93q19 54 46.5 77t63.5 23q57 0 85.5 -35.5t28.5 -94.5v-345h-85z" />
    <glyph glyph-name="ograve" unicode="&#xf2;" horiz-adv-x="374" 
d="M158 538l-77 135h90l41 -135h-54zM251 335q0 30 -16 49.5t-48 19.5t-48 -19.5t-16 -49.5v-202q0 -32 16 -50.5t48 -18.5t48 18.5t16 50.5v202zM333 147q0 -72 -39 -113.5t-107 -41.5t-107.5 41.5t-39.5 113.5v172q0 72 39.5 114.5t107.5 42.5t107 -42.5t39 -114.5v-172z
" />
    <glyph glyph-name="oacute" unicode="&#xf3;" horiz-adv-x="374" 
d="M215 538h-55l42 135h89zM251 335q0 30 -16 49.5t-48 19.5t-48 -19.5t-16 -49.5v-202q0 -32 16 -50.5t48 -18.5t48 18.5t16 50.5v202zM333 147q0 -72 -39 -113.5t-107 -41.5t-107.5 41.5t-39.5 113.5v172q0 72 39.5 114.5t107.5 42.5t107 -42.5t39 -114.5v-172z" />
    <glyph glyph-name="ocircumflex" unicode="&#xf4;" horiz-adv-x="374" 
d="M316 548q-10 -3 -22 -5t-22 -2q-31 0 -53 21t-31 57q-8 -36 -30.5 -57t-54.5 -21q-10 0 -19 2t-20 5v25q65 0 90 92h73q25 -92 89 -92v-25zM251 335q0 30 -16 49.5t-48 19.5t-48 -19.5t-16 -49.5v-202q0 -32 16 -50.5t48 -18.5t48 18.5t16 50.5v202zM333 147
q0 -72 -39 -113.5t-107 -41.5t-107.5 41.5t-39.5 113.5v172q0 72 39.5 114.5t107.5 42.5t107 -42.5t39 -114.5v-172z" />
    <glyph glyph-name="otilde" unicode="&#xf5;" horiz-adv-x="374" 
d="M309 627q0 -34 -16.5 -54t-51.5 -20q-18 0 -35.5 8.5t-34 18t-30.5 18t-23 8.5q-11 0 -14.5 -5.5t-3.5 -15.5v-33h-38q-6 9 -9.5 18.5t-3.5 21.5q0 34 16.5 54t51.5 20q18 0 36 -8.5t34.5 -18t30 -18t22.5 -8.5q11 0 15 5.5t4 16.5v33h37q13 -17 13 -41zM251 335
q0 30 -16 49.5t-48 19.5t-48 -19.5t-16 -49.5v-202q0 -32 16 -50.5t48 -18.5t48 18.5t16 50.5v202zM333 147q0 -72 -39 -113.5t-107 -41.5t-107.5 41.5t-39.5 113.5v172q0 72 39.5 114.5t107.5 42.5t107 -42.5t39 -114.5v-172z" />
    <glyph glyph-name="odieresis" unicode="&#xf6;" horiz-adv-x="374" 
d="M85 566v90h75v-90h-75zM215 566v90h75v-90h-75zM251 335q0 30 -16 49.5t-48 19.5t-48 -19.5t-16 -49.5v-202q0 -32 16 -50.5t48 -18.5t48 18.5t16 50.5v202zM333 147q0 -72 -39 -113.5t-107 -41.5t-107.5 41.5t-39.5 113.5v172q0 72 39.5 114.5t107.5 42.5t107 -42.5
t39 -114.5v-172z" />
    <glyph glyph-name="divide" unicode="&#xf7;" 
d="M25 800h450v-1000h-450v1000z" />
    <glyph glyph-name="oslash" unicode="&#xf8;" horiz-adv-x="375" 
d="M251 297l-122 -197q7 -17 21 -26.5t37 -9.5q32 0 48 18.5t16 50.5v164zM246 366q-7 17 -21.5 27.5t-37.5 10.5q-32 0 -48 -19.5t-16 -49.5v-167zM356 466l-20 -32q-8 -12 -14 -22.5t-7 -10.5q18 -34 18 -82v-172q0 -72 -39 -113.5t-107 -41.5q-63 0 -102 37l-33 -52
l-32 25l38 62q-18 35 -18 83v172q0 72 39.5 114.5t107.5 42.5q64 0 103 -39l33 54z" />
    <glyph glyph-name="ugrave" unicode="&#xf9;" horiz-adv-x="395" 
d="M171 538l-77 135h90l41 -135h-54zM277 0l-6 80q-17 -47 -45.5 -67.5t-64.5 -20.5q-57 0 -85.5 35.5t-28.5 94.5v346h85v-343q0 -31 15 -48.5t41 -17.5q18 0 32 11.5t23.5 27t14.5 33t5 29.5v308h84v-468h-70z" />
    <glyph glyph-name="uacute" unicode="&#xfa;" horiz-adv-x="395" 
d="M224 538h-55l42 135h89zM277 0l-6 80q-17 -47 -45.5 -67.5t-64.5 -20.5q-57 0 -85.5 35.5t-28.5 94.5v346h85v-343q0 -31 15 -48.5t41 -17.5q18 0 32 11.5t23.5 27t14.5 33t5 29.5v308h84v-468h-70z" />
    <glyph glyph-name="ucircumflex" unicode="&#xfb;" horiz-adv-x="395" 
d="M324 548q-10 -3 -22 -5t-22 -2q-31 0 -53 21t-31 57q-8 -36 -30.5 -57t-54.5 -21q-10 0 -19 2t-20 5v25q65 0 90 92h73q25 -92 89 -92v-25zM277 0l-6 80q-17 -47 -45.5 -67.5t-64.5 -20.5q-57 0 -85.5 35.5t-28.5 94.5v346h85v-343q0 -31 15 -48.5t41 -17.5q18 0 32 11.5
t23.5 27t14.5 33t5 29.5v308h84v-468h-70z" />
    <glyph glyph-name="udieresis" unicode="&#xfc;" horiz-adv-x="395" 
d="M95 566v90h75v-90h-75zM225 566v90h75v-90h-75zM277 0l-6 80q-17 -47 -45.5 -67.5t-64.5 -20.5q-57 0 -85.5 35.5t-28.5 94.5v346h85v-343q0 -31 15 -48.5t41 -17.5q18 0 32 11.5t23.5 27t14.5 33t5 29.5v308h84v-468h-70z" />
    <glyph glyph-name="yacute" unicode="&#xfd;" horiz-adv-x="338" 
d="M198 538h-55l42 135h89zM201 -31q-8 -31 -17 -56t-23 -42t-35 -26.5t-53 -9.5h-31v67h24q31 0 41.5 10.5t16.5 33.5l8 40l-124 482h84l56 -259l20 -105l21 105l56 259h83z" />
    <glyph glyph-name="thorn" unicode="&#xfe;" horiz-adv-x="385" 
d="M263 322q0 43 -17 62.5t-47 19.5q-32 0 -50 -20.5t-18 -56.5v-185q0 -36 18 -56.5t50 -20.5q30 0 47 19.5t17 62.5v175zM345 122q0 -28 -8.5 -52t-22.5 -41.5t-33.5 -27t-41.5 -9.5q-38 0 -62 12.5t-46 41.5v-208h-83v828h83v-243q22 29 46 41t62 12q22 0 41.5 -9.5
t33.5 -26.5t22.5 -41t8.5 -53v-224z" />
    <glyph glyph-name="ydieresis" unicode="&#xff;" horiz-adv-x="338" 
d="M68 566v90h75v-90h-75zM198 566v90h75v-90h-75zM201 -31q-8 -31 -17 -56t-23 -42t-35 -26.5t-53 -9.5h-31v67h24q31 0 41.5 10.5t16.5 33.5l8 40l-124 482h84l56 -259l20 -105l21 105l56 259h83z" />
    <glyph glyph-name="dotlessi" unicode="&#x131;" horiz-adv-x="180" 
d="M48 0v468h84v-468h-84z" />
    <glyph glyph-name="Lslash" unicode="&#x141;" horiz-adv-x="378" 
d="M191 86h211v-86h-306v254l-76 -48l-21 49l97 63v348h95v-287l75 48l21 -49l-96 -63v-229z" />
    <glyph glyph-name="lslash" unicode="&#x142;" horiz-adv-x="242" 
d="M163 334v-334h-84v255l-63 -62l-31 43l94 91v339h84v-260l59 58l32 -42z" />
    <glyph glyph-name="OE" unicode="&#x152;" horiz-adv-x="656" 
d="M317 579h-79q-51 0 -74.5 -25t-23.5 -82v-279q0 -56 23.5 -81.5t74.5 -25.5h79v493zM234 0q-48 0 -84 14t-59 39.5t-34.5 61t-11.5 78.5v280q0 43 11.5 78.5t34.5 61t59 39.5t84 14h393v-86h-215v-190h156v-82h-156v-222h215v-86h-393z" />
    <glyph glyph-name="oe" unicode="&#x153;" horiz-adv-x="570" 
d="M251 335q0 30 -16.5 49.5t-48.5 19.5q-31 0 -47.5 -19.5t-16.5 -49.5v-202q0 -32 16.5 -50.5t47.5 -18.5q32 0 48.5 18.5t16.5 50.5v202zM462 333q0 32 -16.5 51.5t-48.5 19.5t-48 -19.5t-16 -51.5v-56h129v56zM536 145q0 -72 -35.5 -112.5t-94.5 -40.5q-78 0 -114 62
q-34 -62 -115 -62q-28 0 -53 10.5t-44 31t-29.5 49t-10.5 64.5v172q0 36 10.5 65t29.5 49.5t44 31.5t53 11q40 0 69 -16.5t46 -46.5q17 30 46 46.5t68 16.5q59 0 94.5 -42.5t35.5 -114.5v-90h-203v-95q0 -32 16 -51.5t48 -19.5t48.5 19.5t16.5 51.5v32h74v-21z" />
    <glyph glyph-name="Scaron" unicode="&#x160;" horiz-adv-x="427" 
d="M336 800q-64 0 -89 -91h-73q-25 91 -90 91v26q11 3 23 4.5t21 1.5q32 0 54 -20.5t30 -56.5q9 36 31.5 56.5t54.5 20.5q19 0 38 -6v-26zM396 166q0 -41 -14 -74.5t-38.5 -57t-58 -36.5t-72.5 -13q-41 0 -75 13t-58 35.5t-37 53.5t-13 67v46h94v-31q0 -103 90 -103
q44 0 66 24t22 62q0 22 -5.5 40.5t-18 36t-33.5 35t-53 37.5q-28 18 -55.5 39.5t-49.5 47t-35.5 56t-13.5 66.5t11.5 67t34 54t55.5 36t75 13q41 0 73.5 -12.5t55.5 -35t35.5 -53.5t12.5 -68v-43h-90v31q0 42 -21 71t-69 29q-39 0 -59 -21t-20 -55q0 -22 5.5 -40t20 -35
t38 -35.5t59.5 -41.5q36 -24 63 -46.5t44 -47t25.5 -52t8.5 -59.5z" />
    <glyph glyph-name="scaron" unicode="&#x161;" horiz-adv-x="344" 
d="M299 634q-64 0 -89 -91h-73q-25 91 -90 91v26q11 3 23 4.5t21 1.5q32 0 54 -20.5t30 -56.5q9 36 31.5 56.5t54.5 20.5q19 0 38 -6v-26zM315 122q0 -26 -9.5 -49.5t-27.5 -41.5t-44 -28.5t-59 -10.5q-71 0 -107 38t-36 99v23h70v-21q0 -38 20 -54.5t52 -16.5q64 0 64 56
q0 14 -3 26t-12 22.5t-25 21.5t-42 23q-57 24 -87 57.5t-30 82.5q0 27 9.5 50t27.5 40t43 27t56 10q70 0 102.5 -34t32.5 -95v-18h-68v20q0 55 -66 55q-29 0 -44.5 -13t-15.5 -35q0 -13 4.5 -24t15 -21.5t28.5 -21t45 -23.5q57 -25 81.5 -59.5t24.5 -84.5z" />
    <glyph glyph-name="Ydieresis" unicode="&#x178;" horiz-adv-x="407" 
d="M101 732v90h75v-90h-75zM231 732v90h75v-90h-75zM252 268v-268h-94v268l-161 398h102l109 -307l109 307h95z" />
    <glyph glyph-name="Zcaron" unicode="&#x17d;" horiz-adv-x="413" 
d="M335 800q-64 0 -89 -91h-73q-25 91 -90 91v26q11 3 23 4.5t21 1.5q32 0 54 -20.5t30 -56.5q9 36 31.5 56.5t54.5 20.5q19 0 38 -6v-26zM145 86h235v-86h-355v43l247 536h-234v87h351v-43z" />
    <glyph glyph-name="zcaron" unicode="&#x17e;" horiz-adv-x="316" 
d="M289 634q-64 0 -89 -91h-73q-25 91 -90 91v26q11 3 23 4.5t21 1.5q32 0 54 -20.5t30 -56.5q9 36 31.5 56.5t54.5 20.5q19 0 38 -6v-26zM113 69h176v-69h-266v51l184 348h-175v69h263v-51z" />
    <glyph glyph-name="florin" unicode="&#x192;" horiz-adv-x="294" 
d="M269 384v-75h-75v-172q0 -72 -27 -113t-92 -41h-29v76h11q30 0 40 11.5t10 38.5v200h-70v75h70v127q0 72 27 113.5t93 41.5h29v-76h-12q-30 0 -40 -12t-10 -38v-156h75z" />
    <glyph glyph-name="circumflex" unicode="&#x2c6;" horiz-adv-x="275" 
d="M264 548q-10 -3 -22 -5t-22 -2q-31 0 -53 21t-31 57q-8 -36 -30.5 -57t-54.5 -21q-10 0 -19 2t-20 5v25q65 0 90 92h73q25 -92 89 -92v-25z" />
    <glyph glyph-name="caron" unicode="&#x2c7;" horiz-adv-x="276" 
d="M264 634q-64 0 -89 -91h-73q-25 91 -90 91v26q11 3 23 4.5t21 1.5q32 0 54 -20.5t30 -56.5q9 36 31.5 56.5t54.5 20.5q19 0 38 -6v-26z" />
    <glyph glyph-name="breve" unicode="&#x2d8;" horiz-adv-x="243" 
d="M232 622q0 -35 -31.5 -57.5t-79.5 -22.5t-79 22.5t-31 57.5q0 24 10 41h46v-18q0 -22 12.5 -36.5t41.5 -14.5q30 0 42.5 14.5t12.5 36.5v18h46q5 -9 7.5 -18.5t2.5 -22.5z" />
    <glyph glyph-name="dotaccent" unicode="&#x2d9;" horiz-adv-x="230" 
d="M78 566v90h74v-90h-74z" />
    <glyph glyph-name="ring" unicode="&#x2da;" horiz-adv-x="179" 
d="M130 619q0 21 -10.5 33t-30.5 12q-19 0 -29.5 -12t-10.5 -33q0 -20 10.5 -32.5t29.5 -12.5q20 0 30.5 12.50205065AE6" />
    <glyph glyph-name="ogonek" unicode="&#x2db;" horiz-adv-x="191" 
d="M170 -168q-16 -11 -61 -11q-41 0 -68 23t-27 61q0 40 31.5 72.5t96.5 49.5l7 -9q-34 -21 -55 -46t-21 -54q0 -23 17.5 -39t53.5 -16h26v-31z" />
    <glyph glyph-name="tilde" unicode="&#x2dc;" horiz-adv-x="284" 
d="M272 627q0 -34 -16.5 -54t-51.5 -20q-18 0 -35.5 8.5t-34 18t-30.5 18t-23 8.5q-11 0 -14.5 -5.5t-3.5 -15.5v-33h-38q-6 9 -9.5 18.5t-3.5 21.5q0 34 16.5 54t51.5 20q18 0 36 -8.5t34.5 -18t30 -18t22.5 -8.5q11 0 15 5.5t4 16.5v33h37q13 -17 13 -41z" />
    <glyph glyph-name="hungarumlaut" unicode="&#x2dd;" horiz-adv-x="258" 
d="M80 538h-53l34 135h77zM190 538h-53l49 135h78z" />
    <glyph glyph-name="Delta" unicode="&#x394;" 
d="M25 800h450v-1000h-450v1000z" />
    <glyph glyph-name="Delta" unicode="&#x2206;" 
d="M25 800h450v-1000h-450v1000z" />
    <glyph glyph-name="Omega" unicode="&#x3a9;" horiz-adv-x="468" 
d="M158 393v-393h-85v393h-54v70h54v49q0 72 30.5 113t93.5 41h34v-71h-23q-30 0 -42.5 -17.5t-12.5 -48.5v-66h69v-70h-64zM391 393v-393h-84v393h-54v70h54v49q0 72 30.5 113t93.5 41h33v-71h-22q-30 0 -42.5 -17.5t-12.5 -48.5v-66h69v-70h-65z" />
    <glyph glyph-name="Omega" unicode="&#x2126;" horiz-adv-x="468" 
d="M158 393v-393h-85v393h-54v70h54v49q0 72 30.5 113t93.5 41h34v-71h-23q-30 0 -42.5 -17.5t-12.5 -48.5v-66h69v-70h-64zM391 393v-393h-84v393h-54v70h54v49q0 72 30.5 113t93.5 41h33v-71h-22q-30 0 -42.5 -17.5t-12.5 -48.5v-66h69v-70h-65z" />
    <glyph glyph-name="pi" unicode="&#x3c0;" horiz-adv-x="680" 
d="M402 398q0 14 -8 22.5t-28 8.5h-55v-93h55q20 0 28 9.5t8 23.5v29zM457 369q0 -31 -19 -53t-66 -22h-61v-108h-55v284h116q48 0 66.5 -20t18.5 -52v-29zM608 326q0 57 -19.5 107t-55 87t-84.5 58.5t-109 21.5q-59 0 -108.5 -21.5t-85 -58.5t-55 -87t-19.5 -107
t19.5 -106.5t55 -87t85 -59t108.5 -21.5q60 0 109 21.5t84.5 59t55 87t19.5 106.5zM658 326q0 -66 -24 -124t-66.5 -101.5t-101 -68.5t-126.5 -25t-126.5 25t-101 68.5t-66.5 101.5t-24 124t24 124.5t66.5 102t101 68.5t126.5 25t126.5 -25t101 -68.5t66.5 -102t24 -124.5z
" />
    <glyph glyph-name="endash" unicode="&#x2013;" horiz-adv-x="475" 
d="M63 269v76h350v-76h-350z" />
    <glyph glyph-name="emdash" unicode="&#x2014;" horiz-adv-x="713" 
d="M63 269v76h588v-76h-588z" />
    <glyph glyph-name="quoteleft" unicode="&#x2018;" horiz-adv-x="159" 
d="M38 559q0 48 23 78t76 30v-29q-26 0 -40 -17.5t-14 -48.5h37v-113h-82v100z" />
    <glyph glyph-name="quoteright" unicode="&#x2019;" horiz-adv-x="159" 
d="M121 566q0 -47 -23.5 -77t-76.5 -30v29q26 0 40.5 17t14.5 48h-37v113h82v-100z" />
    <glyph glyph-name="quotesinglbase" unicode="&#x201a;" horiz-adv-x="159" 
d="M121 13q0 -48 -23.5 -78t-76.5 -30v29q26 0 40.5 17.5t14.5 48.5h-37v113h82v-100z" />
    <glyph glyph-name="quotedblleft" unicode="&#x201c;" horiz-adv-x="281" 
d="M38 559q0 48 23 78t76 30v-29q-26 0 -40 -17.5t-14 -48.5h37v-113h-82v100zM159 559q0 48 23 78t76 30v-29q-26 0 -40.5 -17.5t-14.5 -48.5h38v-113h-82v100z" />
    <glyph glyph-name="quotedblright" unicode="&#x201d;" horiz-adv-x="281" 
d="M121 566q0 -47 -23.5 -77t-76.5 -30v29q26 0 40.5 17t14.5 48h-37v113h82v-100zM241 566q0 -47 -23 -77t-76 -30v29q26 0 40.5 17t14.5 48h-38v113h82v-100z" />
    <glyph glyph-name="quotedblbase" unicode="&#x201e;" horiz-adv-x="281" 
d="M121 13q0 -48 -23.5 -78t-76.5 -30v29q26 0 40.5 17.5t14.5 48.5h-37v113h82v-100zM241 13q0 -48 -23 -78t-76 -30v29q26 0 40.5 17.5t14.5 48.5h-38v113h82v-100z" />
    <glyph glyph-name="dagger" unicode="&#x2020;" horiz-adv-x="381" 
d="M364 421q0 -7 -4.5 -9.5t-9.5 -2.5q-7 0 -24.5 0.5t-38 2t-40.5 4t-33 5.5q3 -12 5.5 -38t4 -53.5t2.5 -51t1 -30.5q0 -49 -0.5 -96t-2 -87.5t-3.5 -72t-4 -50.5q0 -5 -2.5 -9.5t-9.5 -4.5h-30q-7 0 -9.5 4.5t-2.5 9.5q-2 19 -3.5 50.5t-3 72t-2 87.5t-0.5 96q0 7 1 30.5
t2.5 51t3.5 53.5t5 38q-12 -3 -32.5 -5.5t-41 -4t-38 -2t-24.5 -0.5q-5 0 -9.5 2.5t-4.5 9.5v48q0 6 4.5 8.5t9.5 2.5q9 0 26 -0.5t37 -1.5t40 -3.5t33 -5.5q-3 12 -5.5 39.5t-4 57t-2 54.5t-0.5 32q0 5 3 9.5t9 4.5h48q7 0 10 -4.5t3 -9.5q0 -7 -0.5 -32t-2 -54.5t-4 -57
t-5.5 -39.5q13 3 32.5 5.5t39.5 3.5t37 1.5t26 0.5q5 0 9.5 -2.5t4.5 -8.5v-48z" />
    <glyph glyph-name="daggerdbl" unicode="&#x2021;" horiz-adv-x="381" 
d="M364 125q0 -7 -4.5 -9.5t-9.5 -2.5q-9 0 -26 0.5t-37 2t-39.5 4t-32.5 5.5q3 -13 5.5 -40t4 -56.5t2 -54.5t0.5 -32q0 -5 -3 -9.5t-10 -4.5h-48q-6 0 -9 4.5t-3 9.5q0 7 0.5 32t2 54.5t4 56.5t5.5 40q-13 -3 -33 -5.5t-40 -4t-37 -2t-26 -0.5q-5 0 -9.5 2.5t-4.5 9.5v48
q0 7 4.5 9.5t9.5 2.5q7 0 24.5 -0.5t38 -2t41 -4t32.5 -5.5q-3 12 -5 30.5t-3.5 36.5t-2.5 34t-1 23q0 8 1 23.5t2.5 33.5t3.5 36.5t5 30.5q-12 -3 -32.5 -5.5t-41 -4t-38 -2t-24.5 -0.5q-5 0 -9.5 2.5t-4.5 9.5v48q0 6 4.5 8.5t9.5 2.5q9 0 26 -0.5t37 -1.5t40 -3.5
t33 -5.5q-3 12 -5.5 39.5t-4 57t-2 54.5t-0.5 32q0 5 3 9.5t9 4.5h48q7 0 10 -4.5t3 -9.5q0 -7 -0.5 -32t-2 -54.5t-4 -57t-5.5 -39.5q13 3 32.5 5.5t39.5 3.5t37 1.5t26 0.5q5 0 9.5 -2.5t4.5 -8.5v-48q0 -7 -4.5 -9.5t-9.5 -2.5q-7 0 -24.5 0.5t-38 2t-40.5 4t-33 5.5
q3 -12 5.5 -30.5t4 -36.5t2.5 -33.5t1 -23.5q0 -7 -1 -23t-2.5 -34t-4 -36.5t-5.5 -30.5q13 3 33 5.5t40.5 4t38 2t24.5 0.5q5 0 9.5 -2.5t4.5 -9.5v-48z" />
    <glyph glyph-name="bullet" unicode="&#x2022;" horiz-adv-x="295" 
d="M264 333q0 -56 -33 -87t-83 -31q-51 0 -84 31t-33 87t33 87t84 31q50 0 83 -31t33 -87z" />
    <glyph glyph-name="ellipsis" unicode="&#x2026;" horiz-adv-x="519" 
d="M54 0v113h82v-113h-82zM218 0v113h82v-113h-82zM383 0v113h82v-113h-82z" />
    <glyph glyph-name="perthousand" unicode="&#x2030;" horiz-adv-x="806" 
d="M479 242q0 14 -10 23.5t-26 9.5t-26 -9.5t-10 -23.5v-170q0 -14 10 -23.5t26 -9.5t26 9.5t10 23.5v170zM721 242q0 14 -10 23.5t-26 9.5t-26 -9.5t-10 -23.5v-170q0 -14 10 -23.5t26 -9.5t26 9.5t10 23.5v170zM168 593q0 14 -10 24t-26 10t-25.5 -10t-9.5 -24v-169
q0 -15 9.5 -24t25.5 -9t26 9t10 24v169zM542 88q0 -49 -28 -76.5t-71 -27.5q-42 0 -70.5 27.5t-28.5 76.5v138q0 48 28.5 75.5t70.5 27.5q43 0 71 -27.5t28 -75.5v-138zM784 88q0 -49 -28 -76.5t-71 -27.5q-42 0 -70.5 27.5t-28.5 76.5v138q0 48 28.5 75.5t70.5 27.5
q43 0 71 -27.5t28 -75.5v-138zM96 -22l-39 30l422 679l39 -30zM231 439q0 -48 -28 -75.5t-71 -27.5q-42 0 -70 27.5t-28 75.5v139q0 48 28 75t70 27q43 0 71 -27t28 -75v-139z" />
    <glyph glyph-name="guilsinglleft" unicode="&#x2039;" horiz-adv-x="240" 
d="M159 0q-12 55 -48.5 99t-87.5 60v69q51 16 87.5 60t48.5 99h49q0 -29 -7.5 -57.5t-21 -54t-33 -46.5t-43.5 -36q24 -15 43.5 -36t33 -46t21 -53.5t7.5 -57.5h-49z" />
    <glyph glyph-name="guilsinglright" unicode="&#x203a;" horiz-adv-x="240" 
d="M218 159q-51 -16 -87.5 -60t-48.5 -99h-48q0 59 27.5 111.5t77.5 81.5q-25 15 -44.5 36t-33 46.5t-20.5 54t-7 57.5h48q12 -55 48.5 -99t87.5 -60v-69z" />
    <glyph glyph-name="fraction" unicode="&#x2044;" horiz-adv-x="101" 
d="M-174 -75l-47 33l498 782l47 -32z" />
    <glyph glyph-name="fraction" unicode="&#x2215;" horiz-adv-x="101" 
d="M-174 -75l-47 33l498 782l47 -32z" />
    <glyph glyph-name="Euro" unicode="&#x20ac;" horiz-adv-x="436" 
d="M343 373v-80h-210v-132q0 -41 23 -66t71 -25q47 0 70.5 25t23.5 70v47h84v-51q0 -37 -10.5 -69t-32.5 -56t-56.5 -37.5t-81.5 -13.5t-81 15t-55.5 40.5t-32 58.5t-10.5 70v328q0 37 10.5 70t32 58.5t55.5 40.5t81 15t81.5 -13.5t56.5 -37.5t32.5 -56t10.5 -69v-51h-84v47
q0 45 -23.5 70t-70.5 25q-48 0 -71 -25.5t-23 -65.5v-132h210z" />
    <glyph glyph-name="trademark" unicode="&#x2122;" horiz-adv-x="587" 
d="M151 622v-220h-52v220h-76v44h204v-44h-76zM494 402v214l-19 -74l-44 -140h-47l-43 140l-19 74v-214h-47v264h71l45 -147l17 -69l19 69l42 147h73v-264h-48z" />
    <glyph glyph-name="partialdiff" unicode="&#x2202;" 
d="M25 800h450v-1000h-450v1000z" />
    <glyph glyph-name="product" unicode="&#x220f;" horiz-adv-x="436" 
d="M236 356q71 0 71 75v88q0 29 -13 47t-47 18h-98v-228h87zM210 278h-61v-278h-95v666h192q81 0 119 -38.5t38 -110.5v-85q0 -51 -24.5 -90t-76.5 -54l5 -12t12.5 -32.5t17.5 -46.5t20 -53l54 -144h-97z" />
    <glyph glyph-name="summation" unicode="&#x2211;" 
d="M25 800h450v-1000h-450v1000z" />
    <glyph glyph-name="minus" unicode="&#x2212;" horiz-adv-x="380" 
d="M278 196l-89 89l-88 -89l-52 52l88 89l-88 89l53 52l89 -89l88 89l52 -52l-89 -88l89 -89z" />
    <glyph glyph-name="radical" unicode="&#x221a;" horiz-adv-x="647" 
d="M158 393v-393h-85v393h-54v70h54v49q0 72 30.5 113t93.5 41h34v-71h-23q-30 0 -42.5 -17.5t-12.5 -48.5v-66h69v-70h-64zM391 393v-393h-84v393h-54v70h54v49q0 72 30.5 113t93.5 41h33v-71h-22q-30 0 -42.5 -17.5t-12.5 -48.5v-66h69v-70h-65zM515 0v666h85v-666h-85z
" />
    <glyph glyph-name="infinity" unicode="&#x221e;" 
d="M25 800h450v-1000h-450v1000z" />
    <glyph glyph-name="integral" unicode="&#x222b;" 
d="M25 800h450v-1000h-450v1000z" />
    <glyph glyph-name="approxequal" unicode="&#x2248;" horiz-adv-x="647" 
d="M515 0v468h85v-468h-85zM158 393v-393h-85v393h-54v70h54v49q0 72 30.5 113t93.5 41h34v-71h-23q-30 0 -42.5 -17.5t-12.5 -48.5v-66h69v-70h-64zM391 393v-393h-84v393h-54v70h54v49q0 72 30.5 113t93.5 41h33v-71h-22q-30 0 -42.5 -17.5t-12.5 -48.5v-66h69v-70h-65z
M518 543v89h79v-89h-79z" />
    <glyph glyph-name="notequal" unicode="&#x2260;" horiz-adv-x="494" 
d="M24 0v468h446v-468h-446z" />
    <glyph glyph-name="lessequal" unicode="&#x2264;" horiz-adv-x="363" 
d="M48 236v13l254 117v-248z" />
    <glyph glyph-name="greaterequal" unicode="&#x2265;" horiz-adv-x="363" 
d="M63 118v248l254 -117v-13z" />
    <glyph glyph-name="lozenge" unicode="&#x25ca;" 
d="M25 800h450v-1000h-450v1000z" />
    <glyph glyph-name="NUL" horiz-adv-x="1000" 
 />
    <glyph glyph-name="uni00A0" horiz-adv-x="164" 
 />
    <glyph glyph-name="apple" horiz-adv-x="694" 
d="M426 283q-8 0 -12 5t-4 12q0 6 4 11.5t12 5.5t12 -5.5t4 -11.5q0 -7 -4 -12t-12 -5zM476 299v17h11q10 0 10 -8q0 -9 -10 -9h-11zM342 423q-8 -21 -20 -21q-16 0 -16 25q0 10 4.5 19t11.5 16zM327 479l-8.5 17t-3.5 15t4 13.5t10 5.5t9.5 -5.5t3.5 -13.5q0 -9 -3.5 -16.5
t-11.5 -15.5zM255 276h8l11 34h1l11 -34h8l14 47h-8l-10 -35h-1l-11 35h-7l-11 -35h-1l-10 35h-8zM132 277h8v32l25 -32h7v46h-8v-32l-25 32h-7v-46zM193 277h34v7h-26v13h23v7h-23v12h26v7h-34v-46zM357 323h-9l18 -29v-17h8v17l18 29h-9l-13 -22zM426 276q11 0 17.5 7
t6.5 17q0 9 -6.5 16.5t-17.5 7.5t-17.5 -7.5t-6.5 -16.5q0 -10 6.5 -17t17.5 -7zM498 277h9l-12 17q10 4 10 14q0 15 -17 15h-20v-46h8v15h12zM523 277h8v12l8 8l15 -20h10l-20 26l18 20h-10l-20 -24h-1v24h-8v-46zM358 468q-2 -7 -4 -15t-4 -15h-1l-16 31q10 9 16.5 19.5
t6.5 22.5q0 11 -6.5 21t-20.5 10q-13 0 -20.5 -10t-7.5 -21t4 -19.5t10 -19.5q-23 -18 -23 -47q0 -17 8 -27t21 -10q19 0 29 24h1l12 -24l12 6l-17 32q4 9 7 18.5t6 20.5zM460 394q10 -4 21 -4q31 0 31 36v137h-16v-137q0 -22 -16 -22q-5 0 -10.5 1.5t-9.5 3.5v-15zM184 391
h15v79h47v-79h15v172h-15v-79h-47v79h-15v-172zM400 391h15v78h38v14h-38v66h43v14h-58v-172zM436 -200l-8 14h-163l-8 -14h-207v303q14 0 23 9t9 23q0 13 -9 22.5t-23 9.5v554h100l30 79h334l29 -79h101v-921h-208z" />
    <glyph glyph-name="Ohm" horiz-adv-x="468" 
d="M158 393v-393h-85v393h-54v70h54v49q0 72 30.5 113t93.5 41h34v-71h-23q-30 0 -42.5 -17.5t-12.5 -48.5v-66h69v-70h-64zM391 393v-393h-84v393h-54v70h54v49q0 72 30.5 113t93.5 41h33v-71h-22q-30 0 -42.5 -17.5t-12.5 -48.5v-66h69v-70h-65z" />
    </font>
</defs>
</svg>
